{"glyphs":{"0":{"ha":936,"x_min":86,"x_max":850,"o":"m 86 485 q 192 849 86 707 q 469 992 299 992 q 744 850 639 992 q 850 488 850 708 q 744 122 850 264 q 467 -19 638 -19 q 191 122 296 -19 q 86 485 86 263 m 215 488 q 286 208 215 317 q 469 99 357 99 q 651 206 581 99 q 721 485 721 314 q 649 765 721 656 q 467 874 578 874 q 285 765 356 874 q 215 488 215 657 z "},"1":{"ha":603,"x_min":61,"x_max":443,"o":"m 64 625 l 61 626 l 61 763 l 419 990 l 443 983 l 443 0 l 314 0 l 314 785 l 64 625 z "},"2":{"ha":801,"x_min":68,"x_max":740,"o":"m 282 115 l 740 115 l 675 0 l 79 0 l 68 25 l 410 440 q 520 596 493 540 q 547 710 547 651 q 503 823 547 778 q 389 868 458 868 q 249 821 317 868 q 110 674 181 774 l 107 675 l 86 819 q 228 944 151 903 q 397 986 306 986 q 599 913 522 986 q 675 721 675 840 q 642 573 675 643 q 517 393 608 503 l 282 115 z "},"3":{"ha":761,"x_min":71,"x_max":685,"o":"m 472 510 q 629 414 574 481 q 685 260 685 347 q 591 63 685 142 q 363 -15 497 -15 q 231 1 289 -15 q 94 65 174 17 l 71 217 l 74 218 q 225 128 161 154 q 358 103 289 103 q 497 147 442 103 q 551 261 551 192 q 474 394 551 344 q 232 467 397 443 l 232 517 q 461 618 393 568 q 529 738 529 668 q 487 833 529 797 q 375 869 444 869 q 251 842 315 869 q 106 754 188 815 l 103 754 l 103 897 q 249 969 186 950 q 383 988 311 988 q 586 924 511 988 q 661 751 661 860 q 613 615 661 676 q 472 510 565 554 z "},"4":{"ha":865,"x_min":33,"x_max":815,"o":"m 815 332 l 815 226 l 657 226 l 657 0 l 535 0 l 535 226 l 39 226 l 33 257 l 526 979 l 536 979 l 536 979 l 657 979 l 657 332 l 815 332 m 538 817 l 210 332 l 538 332 l 538 817 z "},"5":{"ha":803,"x_min":89,"x_max":725,"o":"m 400 611 q 635 528 546 611 q 725 308 725 446 q 627 75 725 167 q 372 -17 529 -17 q 234 -1 300 -17 q 110 44 168 14 l 89 182 l 92 183 q 235 119 167 140 q 367 99 303 99 q 528 156 465 99 q 592 303 592 214 q 533 442 592 392 q 372 493 475 493 q 257 480 318 493 q 143 443 196 467 l 122 453 l 158 972 l 679 972 l 679 854 l 271 854 l 251 588 q 327 606 292 600 q 400 611 363 611 z "},"6":{"ha":832,"x_min":81,"x_max":764,"o":"m 471 621 q 679 535 594 621 q 764 317 764 450 q 663 78 764 175 q 414 -19 563 -19 q 171 74 261 -19 q 81 326 81 168 q 123 519 81 424 q 276 768 165 615 l 425 972 l 576 972 l 393 725 q 340 651 363 683 q 301 590 318 618 q 385 614 346 607 q 471 621 425 621 m 249 493 q 219 410 228 450 q 210 329 210 371 q 267 158 210 222 q 417 94 324 94 q 574 156 513 94 q 635 310 635 217 q 575 460 635 408 q 406 513 515 513 q 331 508 368 513 q 249 493 293 503 z "},"7":{"ha":800,"x_min":69,"x_max":763,"o":"m 750 972 l 763 953 l 301 0 l 161 0 l 588 857 l 94 857 l 69 972 l 750 972 z "},"8":{"ha":850,"x_min":82,"x_max":768,"o":"m 600 496 q 724 397 679 460 q 768 257 768 335 q 670 61 768 139 q 424 -17 572 -17 q 178 61 275 -17 q 82 257 82 139 q 126 397 82 335 q 250 494 171 458 q 147 590 183 531 q 110 719 110 649 q 200 912 110 835 q 426 989 290 989 q 651 912 563 989 q 740 719 740 835 q 703 590 740 649 q 600 496 667 531 m 424 876 q 289 831 340 876 q 238 715 238 786 q 292 596 238 644 q 426 547 346 547 q 559 596 506 547 q 613 715 613 644 q 560 831 613 785 q 424 876 507 876 m 424 439 q 272 390 335 439 q 208 268 208 340 q 270 144 208 192 q 426 96 332 96 q 581 144 521 96 q 642 268 642 192 q 577 390 642 340 q 424 439 513 439 z "},"9":{"ha":832,"x_min":68,"x_max":751,"o":"m 751 646 q 709 453 751 549 q 556 204 667 357 l 407 0 l 256 0 l 438 247 q 481 307 460 276 q 522 368 501 338 q 443 347 481 353 q 361 340 406 340 q 151 427 235 340 q 68 650 68 514 q 168 893 68 794 q 418 992 268 992 q 661 898 571 992 q 751 646 751 804 m 415 878 q 258 815 319 878 q 197 657 197 753 q 256 501 197 554 q 428 449 315 449 q 500 453 464 449 q 578 468 536 458 q 611 557 600 515 q 622 643 622 599 q 565 813 622 749 q 415 878 508 878 z "},"A":{"ha":1096,"x_min":40,"x_max":1053,"o":"m 179 0 l 40 0 l 493 978 l 617 978 l 1053 0 l 908 0 l 800 250 l 292 250 l 179 0 m 550 825 l 344 368 l 749 368 l 550 825 z "},"B":{"ha":857,"x_min":139,"x_max":782,"o":"m 592 506 q 733 419 683 478 q 782 275 782 360 q 685 75 782 150 q 429 0 588 0 l 139 0 l 139 972 l 432 972 q 657 905 575 972 q 739 718 739 838 q 701 594 739 649 q 592 506 663 540 m 424 857 l 268 857 l 268 553 l 410 553 q 551 597 497 553 q 606 710 606 640 q 556 817 606 778 q 424 857 507 857 m 268 439 l 268 115 l 436 115 q 591 160 533 115 q 649 278 649 204 q 591 397 649 354 q 429 439 533 439 l 268 439 z "},"C":{"ha":1001,"x_min":76,"x_max":924,"o":"m 561 -17 q 215 125 354 -17 q 76 486 76 267 q 115 681 76 589 q 224 843 153 772 q 387 951 294 913 q 581 989 479 989 q 756 958 675 989 q 906 868 838 928 l 906 706 l 903 706 q 741 825 822 786 q 574 864 660 864 q 320 754 426 864 q 214 490 214 644 q 318 217 214 326 q 569 108 422 108 q 751 148 663 108 q 921 267 839 188 l 924 265 l 904 108 q 739 14 824 44 q 561 -17 654 -17 z "},"D":{"ha":1088,"x_min":139,"x_max":1010,"o":"m 460 0 l 139 0 l 139 972 l 460 972 q 861 842 713 972 q 1010 489 1010 711 q 856 135 1010 271 q 460 0 703 0 m 872 486 q 760 752 872 654 q 457 850 647 850 l 274 850 l 274 122 l 463 122 q 758 223 643 122 q 872 486 872 324 z "},"E":{"ha":811,"x_min":139,"x_max":731,"o":"m 690 0 l 139 0 l 139 972 l 686 972 l 726 851 l 274 851 l 274 554 l 653 554 l 653 435 l 274 435 l 274 121 l 731 121 l 690 0 z "},"F":{"ha":753,"x_min":139,"x_max":711,"o":"m 624 538 l 624 417 l 274 417 l 274 0 l 139 0 l 139 972 l 711 972 l 669 851 l 274 851 l 274 538 l 624 538 z "},"G":{"ha":1104,"x_min":76,"x_max":975,"o":"m 975 506 l 975 107 q 783 15 879 43 q 576 -14 688 -14 q 215 123 354 -14 q 76 483 76 260 q 227 844 76 703 q 610 986 378 986 q 786 966 704 986 q 950 903 868 946 l 950 754 l 947 754 q 773 834 856 808 q 606 860 690 860 q 326 752 439 860 q 214 486 214 644 q 317 215 214 318 q 583 111 419 111 q 722 126 658 111 q 843 175 785 142 l 843 383 l 564 383 l 564 506 l 975 506 z "},"H":{"ha":1133,"x_min":139,"x_max":993,"o":"m 993 0 l 860 0 l 860 435 l 274 435 l 274 0 l 139 0 l 139 972 l 274 972 l 274 558 l 860 558 l 860 972 l 993 972 l 993 0 z "},"I":{"ha":426,"x_min":146,"x_max":281,"o":"m 281 0 l 146 0 l 146 972 l 281 972 l 281 0 z "},"J":{"ha":638,"x_min":43,"x_max":506,"o":"m 224 111 q 332 153 293 111 q 371 274 371 196 l 371 972 l 506 972 l 506 257 q 435 58 506 131 q 244 -14 365 -14 q 155 -2 197 -14 q 75 35 113 10 l 43 186 l 46 188 q 138 130 94 149 q 224 111 181 111 z "},"K":{"ha":958,"x_min":139,"x_max":944,"o":"m 944 0 l 767 0 l 306 439 l 274 439 l 274 0 l 139 0 l 139 972 l 274 972 l 274 554 l 307 554 l 764 972 l 939 972 l 939 969 l 414 500 l 944 3 l 944 0 z "},"L":{"ha":746,"x_min":139,"x_max":692,"o":"m 692 0 l 139 0 l 139 972 l 274 972 l 274 121 l 692 121 l 692 0 z "},"M":{"ha":1429,"x_min":139,"x_max":1289,"o":"m 139 972 l 338 972 l 713 225 l 1086 972 l 1289 972 l 1289 0 l 1158 0 l 1158 844 l 722 -15 l 701 -15 l 265 838 l 265 0 l 139 0 l 139 972 z "},"N":{"ha":1143,"x_min":139,"x_max":1003,"o":"m 267 0 l 139 0 l 139 972 l 263 972 l 876 274 l 876 972 l 1003 972 l 1003 -7 l 957 -7 l 267 779 l 267 0 z "},"O":{"ha":1168,"x_min":76,"x_max":1092,"o":"m 583 -19 q 222 126 368 -19 q 76 485 76 272 q 224 845 76 699 q 586 992 371 992 q 946 846 800 992 q 1092 488 1092 700 q 944 127 1092 274 q 583 -19 797 -19 m 581 867 q 321 756 428 867 q 214 488 214 646 q 321 216 214 326 q 583 106 428 106 q 845 216 736 106 q 954 485 954 326 q 845 756 954 644 q 581 867 736 867 z "},"P":{"ha":822,"x_min":139,"x_max":764,"o":"m 764 669 q 665 437 764 524 q 406 350 567 350 l 274 350 l 274 0 l 139 0 l 139 972 l 417 972 q 670 892 576 972 q 764 669 764 811 m 628 668 q 569 801 628 751 q 413 851 511 851 l 272 851 l 272 471 l 406 471 q 567 524 507 471 q 628 668 628 578 z "},"Q":{"ha":1168,"x_min":76,"x_max":1092,"o":"m 1057 -65 l 1013 -194 q 964 -205 989 -201 q 914 -208 939 -208 q 726 -165 807 -208 q 561 -19 646 -121 q 215 135 354 -10 q 76 485 76 279 q 224 845 76 699 q 586 992 371 992 q 946 846 800 992 q 1092 488 1092 700 q 992 182 1092 315 q 731 1 892 49 q 823 -66 778 -46 q 926 -86 868 -86 q 992 -81 960 -86 q 1054 -62 1024 -75 l 1057 -65 m 954 485 q 845 756 954 644 q 581 867 736 867 q 321 756 428 867 q 214 488 214 646 q 321 216 214 326 q 583 106 428 106 q 845 216 736 106 q 954 485 954 326 z "},"R":{"ha":882,"x_min":139,"x_max":889,"o":"m 889 0 l 721 0 l 379 389 l 274 389 l 274 0 l 139 0 l 139 972 l 422 972 q 659 894 569 972 q 749 685 749 817 q 688 513 749 586 q 522 411 626 439 l 889 0 m 613 685 q 558 806 613 760 q 418 853 504 853 l 271 853 l 271 507 l 411 507 q 556 557 500 507 q 613 685 613 607 z "},"S":{"ha":769,"x_min":54,"x_max":686,"o":"m 346 439 q 149 567 203 503 q 94 725 94 632 q 176 917 94 844 q 390 989 257 989 q 524 972 463 989 q 646 915 585 954 l 646 765 l 643 765 q 512 840 576 815 q 385 864 447 864 q 267 830 311 864 q 224 738 224 796 q 264 644 224 682 q 433 549 304 607 q 628 419 571 486 q 686 260 686 353 q 599 60 686 136 q 371 -17 511 -17 q 221 8 293 -17 q 86 79 149 32 l 54 260 l 57 261 q 218 149 133 190 q 378 108 303 108 q 507 147 458 108 q 556 249 556 185 q 513 343 556 303 q 346 439 471 383 z "},"T":{"ha":993,"x_min":49,"x_max":944,"o":"m 944 972 l 944 851 l 563 851 l 563 0 l 429 0 l 429 851 l 49 851 l 49 972 l 944 972 z "},"U":{"ha":1096,"x_min":126,"x_max":968,"o":"m 547 -17 q 239 101 351 -17 q 126 425 126 219 l 126 972 l 261 972 l 261 422 q 338 190 261 274 q 550 107 414 107 q 763 190 686 107 q 839 426 839 274 l 839 972 l 968 972 l 968 425 q 856 101 968 218 q 547 -17 744 -17 z "},"V":{"ha":1071,"x_min":43,"x_max":1031,"o":"m 886 972 l 1031 972 l 544 -22 l 514 -22 l 43 972 l 193 972 l 535 219 l 886 972 z "},"W":{"ha":1633,"x_min":51,"x_max":1585,"o":"m 1443 972 l 1585 972 l 1235 -6 l 1104 -6 l 815 701 l 515 -6 l 386 -6 l 51 972 l 197 972 l 458 169 l 808 983 l 832 983 l 1171 169 l 1443 972 z "},"X":{"ha":1026,"x_min":49,"x_max":978,"o":"m 978 0 l 819 0 l 510 401 l 204 0 l 49 0 l 432 493 l 60 972 l 218 972 l 515 588 l 813 972 l 967 972 l 593 493 l 978 0 z "},"Y":{"ha":928,"x_min":18,"x_max":910,"o":"m 756 972 l 910 972 l 531 435 l 531 0 l 397 0 l 397 435 l 18 972 l 178 972 l 467 553 l 756 972 z "},"Z":{"ha":969,"x_min":54,"x_max":917,"o":"m 282 121 l 917 121 l 851 0 l 64 0 l 54 19 l 676 851 l 99 851 l 99 972 l 896 972 l 906 953 l 282 121 z "},"a":{"ha":788,"x_min":72,"x_max":683,"o":"m 683 422 l 683 17 l 558 -11 l 558 113 q 412 19 481 50 q 278 -11 343 -11 q 129 40 186 -11 q 72 175 72 90 q 192 352 72 294 q 558 413 311 410 l 558 415 q 517 547 558 501 q 399 592 476 592 q 278 567 340 592 q 151 492 217 542 l 149 493 l 175 633 q 291 689 231 671 q 418 707 351 707 q 615 633 546 707 q 683 422 683 560 m 199 181 q 226 119 199 142 q 303 96 254 96 q 414 119 351 96 q 558 193 476 143 l 558 332 q 288 284 378 321 q 199 181 199 247 z "},"b":{"ha":856,"x_min":118,"x_max":793,"o":"m 488 708 q 705 610 617 708 q 793 367 793 513 q 683 95 793 201 q 411 -11 574 -11 q 318 -1 364 -11 q 224 29 272 8 l 133 0 l 118 0 l 118 1008 l 243 1054 l 243 593 q 363 681 304 654 q 488 708 421 708 m 665 358 q 605 530 665 464 q 450 596 544 596 q 347 575 396 596 q 243 508 299 554 l 243 133 q 325 108 285 117 q 408 100 365 100 q 592 174 519 100 q 665 358 665 247 z "},"c":{"ha":749,"x_min":61,"x_max":679,"o":"m 679 207 l 657 63 q 539 3 600 24 q 415 -17 478 -17 q 160 85 258 -17 q 61 346 61 186 q 166 606 61 501 q 431 711 271 711 q 557 691 500 711 q 664 628 614 671 l 664 474 l 661 474 q 542 567 599 538 q 428 596 486 596 q 258 524 326 596 q 190 347 190 451 q 255 169 190 239 q 421 99 319 99 q 550 128 482 99 q 676 208 618 158 l 679 207 z "},"d":{"ha":861,"x_min":61,"x_max":744,"o":"m 744 0 l 618 0 l 618 100 q 502 13 558 40 q 378 -14 446 -14 q 153 85 244 -14 q 61 333 61 185 q 164 599 61 493 q 411 706 267 706 q 516 688 465 706 q 618 633 567 671 l 618 1008 l 744 1054 l 744 0 m 432 594 q 259 524 328 594 q 190 343 190 453 q 253 167 190 236 q 411 99 317 99 q 514 119 465 99 q 618 186 563 140 l 618 536 q 525 581 569 567 q 432 594 481 594 z "},"e":{"ha":776,"x_min":60,"x_max":715,"o":"m 694 183 l 649 46 q 535 -1 588 13 q 419 -15 482 -15 q 157 83 254 -15 q 60 347 60 182 q 157 607 60 500 q 399 714 254 714 q 629 613 543 714 q 715 354 715 513 q 714 324 715 340 q 711 299 713 307 l 189 299 q 267 151 203 204 q 433 99 332 99 q 562 122 494 99 q 692 185 629 144 l 694 183 m 394 604 q 252 544 310 604 q 186 392 194 485 l 589 392 q 529 548 581 492 q 394 604 478 604 z "},"f":{"ha":556,"x_min":56,"x_max":551,"o":"m 533 694 l 533 588 l 304 588 l 304 0 l 179 0 l 179 588 l 56 588 l 56 694 l 179 694 l 179 804 q 242 985 179 919 q 413 1051 304 1051 q 474 1046 446 1051 q 531 1026 501 1040 l 551 897 l 549 896 q 481 927 510 918 q 421 936 451 936 q 335 902 367 936 q 304 808 304 868 l 304 694 l 533 694 z "},"g":{"ha":861,"x_min":61,"x_max":744,"o":"m 744 694 l 744 67 q 648 -182 744 -92 q 385 -272 551 -272 q 247 -257 314 -272 q 113 -208 181 -242 l 86 -68 l 89 -67 q 244 -135 172 -114 q 390 -157 315 -157 q 556 -97 493 -157 q 618 67 618 -36 l 618 129 q 496 41 556 68 q 368 14 436 14 q 148 107 235 14 q 61 343 61 200 q 172 603 61 501 q 443 706 282 706 q 536 696 490 706 q 635 664 582 686 l 728 694 l 744 694 m 446 599 q 263 528 336 599 q 190 350 190 457 q 250 186 190 249 q 406 124 310 124 q 509 145 458 124 q 618 215 560 167 l 618 560 q 531 589 572 579 q 446 599 489 599 z "},"h":{"ha":839,"x_min":118,"x_max":735,"o":"m 456 596 q 353 567 401 596 q 243 471 306 539 l 243 0 l 118 0 l 118 1008 l 243 1054 l 243 564 q 361 674 303 640 q 490 708 419 708 q 667 635 600 708 q 735 438 735 561 l 735 0 l 610 0 l 610 425 q 569 551 610 506 q 456 596 528 596 z "},"i":{"ha":375,"x_min":101,"x_max":274,"o":"m 188 1029 q 249 1004 224 1029 q 274 943 274 979 q 249 882 274 907 q 188 857 224 857 q 126 882 151 857 q 101 943 101 907 q 126 1004 101 979 q 188 1029 151 1029 m 250 0 l 125 0 l 125 694 l 250 694 l 250 0 z "},"j":{"ha":378,"x_min":-46,"x_max":276,"o":"m 190 1029 q 251 1004 226 1029 q 276 943 276 979 q 251 882 276 907 q 190 857 226 857 q 129 882 154 857 q 104 943 104 907 q 129 1004 104 979 q 190 1029 154 1029 m 128 694 l 253 694 l 253 -40 q 197 -212 253 -151 q 42 -272 142 -272 q 8 -270 26 -272 q -24 -264 -10 -268 l -46 -156 l -43 -154 q -10 -162 -25 -160 q 19 -164 4 -164 q 100 -133 72 -164 q 128 -42 128 -101 l 128 694 z "},"k":{"ha":765,"x_min":118,"x_max":754,"o":"m 754 0 l 589 0 l 283 306 l 243 306 l 243 0 l 118 0 l 118 1008 l 243 1054 l 243 400 l 282 400 l 572 694 l 731 694 l 731 692 l 390 357 l 754 3 l 754 0 z "},"l":{"ha":375,"x_min":125,"x_max":250,"o":"m 250 0 l 125 0 l 125 1008 l 250 1054 l 250 0 z "},"m":{"ha":1279,"x_min":118,"x_max":1175,"o":"m 438 596 q 345 569 389 596 q 243 476 301 542 l 243 0 l 118 0 l 118 678 l 243 706 l 243 569 q 354 676 299 643 q 475 708 410 708 q 608 668 551 708 q 690 554 664 628 q 810 672 751 636 q 940 708 868 708 q 1110 635 1046 708 q 1175 438 1175 561 l 1175 0 l 1049 0 l 1049 425 q 1010 551 1049 506 q 903 596 971 596 q 809 568 854 596 q 707 475 764 540 q 708 462 708 469 q 708 438 708 454 l 708 0 l 583 0 l 583 425 q 544 551 583 506 q 438 596 506 596 z "},"n":{"ha":839,"x_min":118,"x_max":735,"o":"m 456 596 q 353 567 401 596 q 243 471 306 539 l 243 0 l 118 0 l 118 678 l 243 706 l 243 564 q 361 674 303 640 q 490 708 419 708 q 667 635 600 708 q 735 438 735 561 l 735 0 l 610 0 l 610 425 q 569 551 610 506 q 456 596 528 596 z "},"o":{"ha":853,"x_min":60,"x_max":793,"o":"m 425 -19 q 163 87 265 -19 q 60 346 60 193 q 165 606 60 497 q 428 714 271 714 q 691 609 589 714 q 793 350 793 504 q 688 89 793 197 q 425 -19 583 -19 m 665 350 q 598 530 665 458 q 428 601 531 601 q 256 528 324 601 q 189 346 189 456 q 256 165 189 238 q 425 93 324 93 q 597 167 529 93 q 665 350 665 240 z "},"p":{"ha":861,"x_min":118,"x_max":800,"o":"m 800 361 q 698 95 800 201 q 451 -11 596 -11 q 345 7 396 -11 q 243 63 294 25 l 243 -265 l 118 -265 l 118 678 l 243 706 l 243 593 q 358 681 301 654 q 483 708 415 708 q 708 609 617 708 q 800 361 800 510 m 671 351 q 608 528 671 460 q 450 596 544 596 q 347 575 396 596 q 243 508 299 554 l 243 160 q 335 115 290 129 q 431 100 381 100 q 603 172 535 100 q 671 351 671 243 z "},"q":{"ha":856,"x_min":61,"x_max":738,"o":"m 722 694 l 738 694 l 738 -265 l 613 -265 l 613 101 q 494 13 551 40 q 368 -14 436 -14 q 149 84 238 -14 q 61 328 61 182 q 172 599 61 493 q 444 706 282 706 q 538 696 492 706 q 632 665 583 686 l 722 694 m 446 594 q 263 521 336 594 q 190 336 190 447 q 251 165 190 231 q 406 99 311 99 q 508 119 460 99 q 613 186 557 140 l 613 561 q 529 586 569 578 q 446 594 489 594 z "},"r":{"ha":576,"x_min":118,"x_max":539,"o":"m 501 572 q 381 543 440 572 q 243 444 322 514 l 243 0 l 118 0 l 118 678 l 243 706 l 243 529 q 378 671 329 636 q 485 706 428 706 q 506 704 497 706 q 529 700 515 703 l 539 568 q 520 572 529 571 q 501 572 511 572 z "},"s":{"ha":700,"x_min":57,"x_max":635,"o":"m 390 406 q 581 325 528 374 q 635 192 635 276 q 556 43 635 101 q 356 -15 478 -15 q 215 6 282 -15 q 83 69 149 26 l 57 221 l 60 222 q 217 129 138 161 q 369 97 296 97 q 473 122 432 97 q 514 185 514 146 q 476 250 514 226 q 325 300 438 274 q 138 379 190 332 q 85 503 85 426 q 160 652 85 594 q 356 710 236 710 q 472 693 414 710 q 583 646 531 676 l 583 513 l 581 513 q 455 576 515 554 q 342 597 394 597 q 242 575 279 597 q 206 517 206 553 q 243 455 206 478 q 390 406 281 432 z "},"t":{"ha":621,"x_min":47,"x_max":564,"o":"m 564 167 l 536 33 q 464 -2 506 11 q 378 -15 422 -15 q 222 46 279 -15 q 165 217 165 107 l 165 588 l 47 588 l 47 694 l 165 694 l 165 850 l 289 896 l 289 694 l 561 694 l 561 588 l 289 588 l 289 222 q 318 128 289 160 q 404 97 347 97 q 482 115 443 97 q 561 168 521 132 l 564 167 z "},"u":{"ha":839,"x_min":104,"x_max":722,"o":"m 722 0 l 596 0 l 596 131 q 478 20 536 54 q 349 -14 419 -14 q 172 60 239 -14 q 104 257 104 133 l 104 694 l 231 694 l 231 269 q 272 144 231 189 q 385 99 313 99 q 485 127 438 99 q 596 224 533 156 l 596 694 l 722 694 l 722 0 z "},"v":{"ha":790,"x_min":29,"x_max":764,"o":"m 628 694 l 764 694 l 397 -19 l 371 -19 l 29 694 l 167 694 l 389 204 l 628 694 z "},"w":{"ha":1221,"x_min":36,"x_max":1186,"o":"m 1058 694 l 1186 694 l 914 -10 l 810 -10 l 608 451 l 394 -10 l 289 -10 l 36 694 l 171 694 l 350 157 l 603 703 l 626 703 l 861 157 l 1058 694 z "},"x":{"ha":775,"x_min":39,"x_max":735,"o":"m 735 0 l 588 0 l 386 269 l 182 0 l 39 0 l 315 356 l 54 694 l 203 694 l 389 446 l 576 694 l 719 694 l 460 358 l 735 0 z "},"y":{"ha":761,"x_min":25,"x_max":732,"o":"m 732 694 l 410 -78 q 308 -224 369 -175 q 167 -272 247 -272 q 107 -266 136 -272 q 50 -246 78 -260 l 25 -118 l 28 -117 q 89 -145 61 -136 q 147 -154 117 -154 q 233 -126 197 -154 q 294 -36 268 -97 l 326 39 l 32 694 l 171 694 l 390 182 l 596 694 l 732 694 z "},"z":{"ha":743,"x_min":38,"x_max":692,"o":"m 250 108 l 692 108 l 653 0 l 44 0 l 38 21 l 474 586 l 86 586 l 86 694 l 681 694 l 686 675 l 250 108 z "},".":{"ha":285,"x_min":49,"x_max":236,"o":"m 143 -12 q 76 15 104 -12 q 49 82 49 43 q 76 149 49 121 q 143 176 104 176 q 209 149 182 176 q 236 82 236 121 q 209 15 236 43 q 143 -12 182 -12 z "},",":{"ha":285,"x_min":-17,"x_max":221,"o":"m 21 -232 l -17 -200 q 71 -50 50 -111 q 92 108 92 11 l 92 154 l 221 154 q 183 -45 221 35 q 21 -232 146 -125 z "},":":{"ha":311,"x_min":63,"x_max":250,"o":"m 156 518 q 90 546 117 518 q 63 613 63 574 q 90 679 63 651 q 156 707 117 707 q 222 679 194 707 q 250 613 250 651 q 222 546 250 574 q 156 518 194 518 m 156 -12 q 90 15 117 -12 q 63 82 63 43 q 90 149 63 121 q 156 176 117 176 q 222 149 194 176 q 250 82 250 121 q 222 15 250 43 q 156 -12 194 -12 z "},";":{"ha":311,"x_min":-10,"x_max":254,"o":"m 160 518 q 93 546 121 518 q 65 613 65 574 q 93 679 65 651 q 160 707 121 707 q 226 679 199 707 q 254 613 254 651 q 226 546 254 574 q 160 518 199 518 m 28 -232 l -10 -200 q 78 -50 57 -111 q 99 108 99 11 l 99 154 l 228 154 q 190 -45 228 35 q 28 -232 153 -125 z "},"?":{"ha":671,"x_min":61,"x_max":603,"o":"m 61 721 l 61 865 q 197 956 126 926 q 347 986 268 986 q 533 924 463 986 q 603 756 603 861 q 567 631 603 682 q 431 526 531 581 q 334 463 357 485 q 311 417 311 442 q 319 373 311 396 q 349 313 328 350 l 272 313 q 213 396 226 368 q 200 456 200 424 q 228 528 200 497 q 346 607 257 560 q 452 682 425 650 q 479 757 479 714 q 440 838 479 807 q 340 869 401 869 q 208 835 272 869 q 64 721 144 801 l 61 721 m 300 -12 q 233 15 261 -12 q 206 82 206 43 q 233 149 206 121 q 300 176 261 176 q 366 149 339 176 q 393 82 393 121 q 366 15 393 43 q 300 -12 339 -12 z "},"!":{"ha":360,"x_min":86,"x_max":274,"o":"m 249 972 l 249 818 l 207 311 l 153 311 l 113 818 l 113 972 l 249 972 m 181 -12 q 114 15 142 -12 q 86 82 86 43 q 114 149 86 121 q 181 176 142 176 q 247 149 219 176 q 274 82 274 121 q 247 15 274 43 q 181 -12 219 -12 z "},"¿":{"ha":671,"x_min":68,"x_max":608,"o":"m 371 985 q 438 957 410 985 q 465 890 465 929 q 438 824 465 851 q 371 796 410 796 q 305 824 332 796 q 278 890 278 851 q 305 957 278 929 q 371 985 332 985 m 608 251 l 608 107 q 473 16 543 46 q 324 -14 403 -14 q 138 49 208 -14 q 68 217 68 111 q 104 341 68 290 q 240 446 140 392 q 337 509 314 488 q 360 556 360 531 q 351 599 360 576 q 322 660 343 622 l 399 660 q 458 576 444 604 q 471 517 471 549 q 442 444 471 475 q 325 365 414 413 q 219 291 246 322 q 192 215 192 260 q 230 134 192 165 q 329 103 268 103 q 461 137 397 103 q 606 251 525 171 l 608 251 z "},"¡":{"ha":360,"x_min":86,"x_max":274,"o":"m 181 985 q 247 957 219 985 q 274 890 274 929 q 247 824 274 851 q 181 796 219 796 q 114 824 142 796 q 86 890 86 851 q 114 957 86 929 q 181 985 142 985 m 113 0 l 113 154 l 153 661 l 207 661 l 249 154 l 249 0 l 113 0 z "},"…":{"ha":832,"x_min":49,"x_max":783,"o":"m 138 -12 q 75 14 101 -12 q 49 76 49 40 q 74 140 49 114 q 138 167 100 167 q 201 140 175 167 q 226 76 226 114 q 200 14 226 40 q 138 -12 174 -12 m 415 -12 q 353 14 379 -12 q 326 76 326 40 q 353 140 326 113 q 415 167 379 167 q 478 140 453 167 q 504 76 504 114 q 478 14 504 40 q 415 -12 451 -12 m 694 -12 q 632 14 658 -12 q 606 76 606 40 q 631 140 606 114 q 694 167 657 167 q 758 140 732 167 q 783 76 783 114 q 757 14 783 40 q 694 -12 731 -12 z "},"“":{"ha":565,"x_min":51,"x_max":524,"o":"m 167 758 q 180 694 167 725 q 244 585 193 663 l 113 585 q 65 664 79 629 q 51 739 51 699 q 81 831 51 783 q 218 983 110 879 l 260 953 q 188 839 208 883 q 167 758 167 794 m 431 758 q 443 697 431 726 q 508 585 456 667 l 376 585 q 329 666 343 631 q 315 739 315 701 q 344 831 315 783 q 482 983 374 879 l 524 953 q 451 839 472 883 q 431 758 431 794 z "},"‟":{"ha":565,"x_min":51,"x_max":524,"o":"m 113 972 l 244 972 q 181 866 194 899 q 167 800 167 833 q 188 718 167 764 q 260 604 210 672 l 218 574 q 138 653 153 638 q 111 683 124 669 q 66 754 81 721 q 51 819 51 788 q 65 894 51 858 q 113 972 79 929 m 376 972 l 508 972 q 444 863 457 893 q 431 800 431 832 q 452 718 431 764 q 524 604 474 672 l 482 574 q 402 653 417 638 q 375 683 388 669 q 330 754 344 721 q 315 819 315 788 q 329 892 315 857 q 376 972 343 926 z "},"”":{"ha":565,"x_min":42,"x_max":514,"o":"m 399 800 q 385 863 399 832 q 321 972 372 893 l 453 972 q 500 892 486 926 q 514 819 514 857 q 499 754 514 788 q 454 683 485 721 q 427 653 442 669 q 347 574 413 638 l 306 604 q 377 718 356 672 q 399 800 399 764 m 133 800 q 119 866 133 833 q 56 972 106 899 l 189 972 q 236 892 222 926 q 250 819 250 857 q 235 755 250 788 q 189 683 221 722 q 153 644 179 672 q 83 574 126 617 l 42 604 q 112 717 90 671 q 133 800 133 763 z "},"„":{"ha":539,"x_min":15,"x_max":488,"o":"m 372 -18 q 359 44 372 14 q 294 154 346 75 l 426 154 q 474 74 460 108 q 488 1 488 39 q 473 -64 488 -31 q 428 -135 458 -97 q 401 -165 415 -149 q 321 -244 386 -181 l 279 -214 q 351 -100 329 -146 q 372 -18 372 -54 m 107 -18 q 93 48 107 15 q 29 154 79 81 l 163 154 q 210 74 196 108 q 224 1 224 39 q 209 -63 224 -31 q 163 -135 194 -96 q 126 -174 153 -146 q 57 -244 100 -201 l 15 -214 q 85 -101 64 -147 q 107 -18 107 -56 z "},"‘":{"ha":301,"x_min":51,"x_max":260,"o":"m 167 758 q 180 694 167 725 q 244 585 193 663 l 113 585 q 65 664 79 629 q 51 739 51 699 q 81 831 51 783 q 218 983 110 879 l 260 953 q 188 839 208 883 q 167 758 167 794 z "},"‛":{"ha":301,"x_min":51,"x_max":260,"o":"m 113 972 l 244 972 q 181 866 194 899 q 167 800 167 833 q 188 718 167 764 q 260 604 210 672 l 218 574 q 138 653 153 638 q 111 683 124 669 q 66 754 81 721 q 51 819 51 788 q 65 894 51 858 q 113 972 79 929 z "},"’":{"ha":301,"x_min":42,"x_max":250,"o":"m 133 800 q 119 866 133 833 q 56 972 106 899 l 189 972 q 236 892 222 926 q 250 819 250 857 q 235 755 250 788 q 189 683 221 722 q 153 644 179 672 q 83 574 126 617 l 42 604 q 112 717 90 671 q 133 800 133 763 z "},"‚":{"ha":275,"x_min":15,"x_max":224,"o":"m 107 -18 q 93 48 107 15 q 29 154 79 81 l 163 154 q 210 74 196 108 q 224 1 224 39 q 209 -63 224 -31 q 163 -135 194 -96 q 126 -174 153 -146 q 57 -244 100 -201 l 15 -214 q 85 -101 64 -147 q 107 -18 107 -56 z "},"«":{"ha":868,"x_min":65,"x_max":783,"o":"m 386 704 l 433 679 l 215 349 l 433 15 l 386 -10 l 65 336 l 65 358 l 386 704 m 738 704 l 783 679 l 565 349 l 783 15 l 738 -10 l 417 336 l 417 358 l 738 704 z "},"»":{"ha":868,"x_min":83,"x_max":803,"o":"m 482 -10 l 435 15 l 653 346 l 435 679 l 482 704 l 803 358 l 803 336 l 482 -10 m 131 -10 l 83 15 l 301 346 l 83 679 l 131 704 l 451 358 l 451 336 l 131 -10 z "},"‹":{"ha":531,"x_min":65,"x_max":447,"o":"m 400 704 l 447 679 l 215 349 l 447 15 l 400 -10 l 65 336 l 65 358 l 400 704 z "},"›":{"ha":531,"x_min":83,"x_max":465,"o":"m 131 -10 l 83 15 l 315 346 l 83 679 l 131 704 l 465 358 l 465 336 l 131 -10 z "},"(":{"ha":568,"x_min":104,"x_max":535,"o":"m 225 424 q 303 116 225 261 q 535 -153 381 -29 l 499 -194 q 199 94 293 -56 q 104 424 104 243 q 199 753 104 604 q 499 1042 293 903 l 535 1000 q 303 731 381 876 q 225 424 225 586 z "},")":{"ha":568,"x_min":33,"x_max":464,"o":"m 343 424 q 265 731 343 586 q 33 1000 188 876 l 69 1042 q 369 753 275 903 q 464 424 464 604 q 369 94 464 243 q 69 -194 275 -56 l 33 -153 q 265 116 188 -29 q 343 424 343 261 z "},"[":{"ha":569,"x_min":149,"x_max":522,"o":"m 504 -181 l 149 -181 l 149 1028 l 504 1028 l 522 950 l 265 950 l 265 -103 l 522 -103 l 504 -181 z "},"]":{"ha":569,"x_min":47,"x_max":421,"o":"m 65 1028 l 421 1028 l 421 -181 l 65 -181 l 47 -103 l 304 -103 l 304 950 l 47 950 l 65 1028 z "},"{":{"ha":683,"x_min":50,"x_max":636,"o":"m 492 -103 l 636 -103 l 618 -181 l 465 -181 q 276 -126 346 -181 q 206 24 206 -71 q 215 85 206 53 q 253 176 224 117 q 282 244 275 222 q 289 283 289 265 q 258 347 289 325 q 153 381 228 369 l 50 396 l 50 451 l 153 467 q 258 500 228 478 q 289 564 289 522 q 282 603 289 582 q 253 671 275 625 q 215 763 224 731 q 206 824 206 794 q 276 973 206 918 q 465 1028 346 1028 l 618 1028 l 636 950 l 492 950 q 375 919 415 950 q 335 832 335 889 q 342 787 335 811 q 371 711 349 763 q 405 625 397 654 q 413 571 413 596 q 381 483 413 518 q 278 424 350 449 q 381 364 350 399 q 413 276 413 329 q 405 222 413 251 q 371 136 397 193 q 342 60 349 85 q 335 15 335 36 q 376 -72 335 -42 q 492 -103 417 -103 z "},"}":{"ha":683,"x_min":47,"x_max":633,"o":"m 431 176 q 469 85 460 117 q 478 24 478 53 q 408 -126 478 -71 q 218 -181 338 -181 l 65 -181 l 47 -103 l 192 -103 q 308 -72 268 -103 q 349 15 349 -42 q 342 60 349 36 q 313 136 335 85 q 278 222 286 193 q 271 276 271 251 q 302 364 271 329 q 406 424 333 399 q 302 483 333 449 q 271 571 271 518 q 278 625 271 596 q 313 711 286 654 q 342 787 335 763 q 349 832 349 811 q 308 919 349 889 q 192 950 267 950 l 47 950 l 65 1028 l 218 1028 q 408 973 338 1028 q 478 824 478 918 q 469 763 478 794 q 431 671 460 731 q 401 603 408 625 q 394 564 394 582 q 425 500 394 522 q 531 467 456 478 l 633 451 l 633 396 l 531 381 q 425 347 456 369 q 394 283 394 325 q 401 244 394 265 q 431 176 408 222 z "},"/":{"ha":632,"x_min":-8,"x_max":589,"o":"m 100 -181 l -8 -181 l 481 1028 l 589 1028 l 100 -181 z "},"|":{"ha":525,"x_min":208,"x_max":317,"o":"m 317 1028 l 317 -181 l 208 -181 l 208 1028 l 317 1028 z "},"\\":{"ha":632,"x_min":44,"x_max":640,"o":"m 153 1028 l 640 -181 l 532 -181 l 44 1028 l 153 1028 z "},"-":{"ha":540,"x_min":89,"x_max":451,"o":"m 89 322 l 89 440 l 451 440 l 451 322 l 89 322 z "},"–":{"ha":767,"x_min":89,"x_max":678,"o":"m 89 324 l 89 438 l 678 438 l 678 324 l 89 324 z "},"—":{"ha":1294,"x_min":89,"x_max":1206,"o":"m 89 324 l 89 438 l 1206 438 l 1206 324 l 89 324 z "},"·":{"ha":306,"x_min":58,"x_max":246,"o":"m 153 288 q 86 315 114 288 q 58 381 58 342 q 86 447 58 419 q 153 475 114 475 q 219 447 192 475 q 246 381 246 419 q 219 315 246 342 q 153 288 192 288 z "},"•":{"ha":692,"x_min":146,"x_max":546,"o":"m 346 297 q 205 356 264 297 q 146 496 146 415 q 205 637 146 578 q 346 696 264 696 q 487 637 428 696 q 546 496 546 578 q 487 356 546 415 q 346 297 428 297 z "},"⍿":{"ha":804,"x_min":190,"x_max":614,"o":"m 614 496 q 569 372 614 426 q 457 301 525 317 l 457 -125 l 347 -125 l 347 301 q 235 372 279 317 q 190 496 190 426 q 235 622 190 567 q 347 692 279 676 l 347 1083 l 457 1083 l 457 692 q 569 622 525 676 q 614 496 614 567 z "},"_":{"ha":833,"x_min":-3,"x_max":836,"o":"m -3 -194 l -3 -108 l 836 -108 l 836 -194 l -3 -194 z "},"&":{"ha":974,"x_min":63,"x_max":944,"o":"m 944 0 l 778 0 q 698 72 733 39 q 633 133 663 104 q 482 24 556 58 q 325 -10 408 -10 q 135 59 208 -10 q 63 235 63 128 q 119 389 63 321 q 296 515 175 457 q 226 643 247 589 q 206 747 206 697 q 279 923 206 854 q 469 992 353 992 q 635 928 569 992 q 701 769 701 865 q 641 615 701 689 q 463 479 581 542 q 533 395 493 440 q 629 293 574 350 q 703 386 664 333 q 790 507 743 439 l 925 507 l 925 504 q 798 328 847 394 q 708 215 749 263 q 826 108 767 160 q 944 3 885 56 l 944 0 m 463 889 q 366 850 403 889 q 329 749 329 811 q 347 663 329 707 q 403 560 364 619 q 533 661 489 610 q 578 763 578 713 q 544 853 578 817 q 463 889 511 889 m 357 429 q 228 336 268 381 q 189 242 189 292 q 230 143 189 183 q 333 103 271 103 q 442 129 389 103 q 553 211 494 156 q 438 333 485 281 q 357 429 390 386 z "},"@":{"ha":1422,"x_min":63,"x_max":1360,"o":"m 1057 -140 l 1057 -187 q 860 -240 957 -224 q 653 -257 764 -257 q 221 -113 379 -257 q 63 282 63 31 q 120 565 63 426 q 283 810 178 703 q 525 976 389 918 q 810 1035 661 1035 q 1208 893 1057 1035 q 1360 519 1360 751 q 1265 203 1360 328 q 1018 79 1171 79 q 899 110 949 79 q 838 190 850 140 q 716 107 775 133 q 594 81 657 81 q 443 143 500 81 q 386 311 386 206 q 417 458 386 386 q 506 588 449 531 q 634 674 563 643 q 783 704 706 704 q 867 694 825 704 q 949 667 908 685 l 1038 694 l 1051 692 l 950 274 q 944 243 946 253 q 943 224 943 233 q 972 156 943 181 q 1047 131 1000 131 q 1236 244 1160 131 q 1313 518 1313 357 q 1176 863 1313 735 q 807 992 1039 992 q 544 936 671 992 q 318 779 417 881 q 165 549 219 678 q 111 285 111 419 q 255 -83 111 49 q 656 -214 399 -214 q 865 -196 768 -214 q 1057 -140 961 -178 m 778 607 q 579 522 661 607 q 497 321 497 436 q 533 216 497 253 q 631 179 568 179 q 729 201 681 179 q 838 272 778 222 l 914 579 q 848 600 881 593 q 778 607 815 607 z "},"℗":{"ha":1236,"x_min":58,"x_max":1178,"o":"m 222 94 q 101 272 143 171 q 58 485 58 374 q 101 697 58 596 q 224 876 144 799 q 406 994 303 953 q 619 1036 508 1036 q 833 995 732 1036 q 1014 878 935 954 q 1135 700 1093 801 q 1178 488 1178 599 q 1135 275 1178 376 q 1013 96 1092 174 q 831 -22 933 19 q 617 -64 728 -64 q 403 -23 504 -64 q 222 94 301 18 m 617 993 q 252 846 401 993 q 103 488 103 699 q 253 127 103 275 q 619 -21 404 -21 q 984 126 835 -21 q 1133 485 1133 274 q 983 845 1133 697 q 617 993 832 993 m 879 611 q 812 464 879 519 q 636 408 744 408 l 535 408 l 535 174 l 443 174 l 443 806 l 643 806 q 816 754 753 806 q 879 611 879 703 m 640 729 l 535 729 l 535 485 l 640 485 q 747 518 708 485 q 786 611 786 551 q 747 697 786 665 q 640 729 707 729 z "},"©":{"ha":1236,"x_min":58,"x_max":1178,"o":"m 222 94 q 101 272 143 171 q 58 485 58 374 q 101 697 58 596 q 224 876 144 799 q 406 994 303 953 q 619 1036 508 1036 q 833 995 732 1036 q 1014 878 935 954 q 1135 700 1093 801 q 1178 488 1178 599 q 1135 275 1178 376 q 1013 96 1092 174 q 831 -22 933 19 q 617 -64 728 -64 q 403 -23 504 -64 q 222 94 301 18 m 617 993 q 252 846 401 993 q 103 488 103 699 q 253 127 103 275 q 619 -21 404 -21 q 984 126 835 -21 q 1133 485 1133 274 q 983 845 1133 697 q 617 993 832 993 m 635 246 q 757 269 697 246 q 874 338 817 292 l 876 336 l 860 238 q 752 181 807 199 q 631 163 697 163 q 391 253 488 163 q 294 486 294 344 q 394 718 294 625 q 642 811 494 811 q 763 791 706 811 q 868 729 819 771 l 868 626 l 865 626 q 753 702 810 676 q 640 728 697 728 q 461 658 535 728 q 388 488 388 589 q 460 315 388 383 q 635 246 532 246 z "},"®":{"ha":760,"x_min":71,"x_max":688,"o":"m 688 708 q 597 494 688 582 q 379 406 507 406 q 160 493 250 406 q 71 707 71 581 q 161 922 71 833 q 381 1010 251 1010 q 599 922 510 1010 q 688 708 688 835 m 653 707 q 574 900 653 822 q 379 978 496 978 q 185 899 264 978 q 107 707 107 821 q 185 515 107 592 q 381 438 264 438 q 574 516 494 438 q 653 707 653 594 m 550 542 l 478 542 l 357 669 l 324 669 l 324 542 l 265 542 l 265 890 l 378 890 q 469 860 435 890 q 503 782 503 831 q 481 719 503 746 q 421 681 458 692 l 550 542 m 371 840 l 324 840 l 324 718 l 369 718 q 424 735 404 718 q 444 779 444 751 q 425 824 444 808 q 371 840 406 840 z "},"℠":{"ha":1340,"x_min":65,"x_max":1229,"o":"m 235 664 q 109 737 143 699 q 75 829 75 775 q 126 940 75 897 q 261 982 178 982 q 344 972 306 982 q 418 940 383 961 l 418 846 l 415 846 q 333 885 375 871 q 254 900 290 900 q 192 883 215 900 q 168 839 168 867 q 190 792 168 813 q 271 747 213 771 q 410 667 378 704 q 443 576 443 629 q 390 460 443 504 q 249 417 336 417 q 158 431 201 417 q 79 471 114 444 l 65 569 l 68 571 q 167 516 119 535 q 256 497 215 497 q 326 517 299 497 q 354 569 354 538 q 333 614 354 594 q 235 664 311 633 m 571 972 l 707 972 l 900 583 l 1093 972 l 1229 972 l 1229 425 l 1138 425 l 1138 872 l 906 417 l 890 417 l 658 875 l 658 425 l 571 425 l 571 972 z "},"™":{"ha":1408,"x_min":39,"x_max":1297,"o":"m 535 972 l 535 889 l 333 889 l 333 425 l 240 425 l 240 889 l 39 889 l 39 972 l 535 972 m 639 972 l 775 972 l 968 585 l 1161 972 l 1297 972 l 1297 425 l 1207 425 l 1207 875 l 975 417 l 960 417 l 728 872 l 728 425 l 639 425 l 639 972 z "},"*":{"ha":721,"x_min":61,"x_max":660,"o":"m 290 978 l 431 978 l 372 740 l 349 740 l 290 978 m 304 690 l 61 710 l 106 843 l 314 714 l 304 690 m 617 843 l 660 710 l 417 690 l 408 714 l 617 843 m 339 633 l 247 408 l 132 490 l 319 649 l 339 633 m 589 490 l 475 408 l 383 633 l 401 649 l 589 490 z "},"†":{"ha":739,"x_min":81,"x_max":658,"o":"m 357 742 l 300 978 l 439 978 l 382 742 l 357 742 m 317 700 l 317 676 l 81 619 l 81 758 l 317 700 m 422 700 l 658 758 l 658 619 l 422 676 l 422 700 m 356 -14 l 306 400 l 357 636 l 382 636 l 433 400 l 383 -14 l 356 -14 z "},"‡":{"ha":739,"x_min":81,"x_max":658,"o":"m 357 742 l 300 978 l 439 978 l 382 742 l 357 742 m 317 700 l 317 676 l 81 619 l 81 758 l 317 700 m 422 700 l 658 758 l 658 619 l 422 676 l 422 700 m 357 336 l 306 486 l 357 636 l 382 636 l 433 486 l 382 336 l 357 336 m 422 294 l 658 353 l 658 214 l 422 271 l 422 294 m 317 294 l 317 271 l 81 214 l 81 353 l 317 294 m 382 231 l 439 -6 l 300 -6 l 357 231 l 382 231 z "},"\"":{"ha":610,"x_min":58,"x_max":589,"o":"m 58 592 l 171 972 l 325 972 l 108 574 l 58 592 m 322 592 l 435 972 l 589 972 l 374 574 l 322 592 z "},"'":{"ha":344,"x_min":58,"x_max":325,"o":"m 58 592 l 171 972 l 325 972 l 108 574 l 58 592 z "},"+":{"ha":833,"x_min":69,"x_max":764,"o":"m 764 553 l 764 440 l 476 440 l 476 147 l 357 147 l 357 440 l 69 440 l 69 553 l 357 553 l 357 843 l 476 843 l 476 553 l 764 553 z "},"÷":{"ha":833,"x_min":69,"x_max":764,"o":"m 417 685 q 350 713 378 685 q 322 779 322 740 q 350 846 322 818 q 417 874 378 874 q 483 846 456 874 q 511 779 511 818 q 483 713 511 740 q 417 685 456 685 m 69 553 l 764 553 l 764 440 l 69 440 l 69 553 m 417 118 q 350 146 378 118 q 322 213 322 174 q 350 278 322 250 q 417 306 378 306 q 483 278 456 306 q 511 213 511 250 q 483 146 511 174 q 417 118 456 118 z "},"−":{"ha":833,"x_min":69,"x_max":764,"o":"m 764 553 l 764 440 l 69 440 l 69 553 l 764 553 z "},"=":{"ha":833,"x_min":83,"x_max":750,"o":"m 750 693 l 750 579 l 83 579 l 83 693 l 750 693 m 750 413 l 750 300 l 83 300 l 83 413 l 750 413 z "},"≠":{"ha":833,"x_min":83,"x_max":750,"o":"m 750 413 l 750 300 l 368 300 l 281 115 l 208 149 l 279 300 l 83 300 l 83 413 l 333 413 l 411 579 l 83 579 l 83 693 l 465 693 l 553 878 l 625 844 l 554 693 l 750 693 l 750 579 l 500 579 l 421 413 l 750 413 z "},"~":{"ha":833,"x_min":76,"x_max":757,"o":"m 268 633 q 327 617 292 633 q 442 551 363 601 q 529 499 504 511 q 568 488 554 488 q 618 517 594 488 q 683 628 642 547 l 757 590 q 657 409 699 460 q 565 358 615 358 q 506 374 542 358 q 392 442 471 390 q 304 494 329 482 q 265 506 279 506 q 215 476 239 506 q 150 364 192 446 l 76 401 q 176 583 135 532 q 268 633 218 633 z "},"≈":{"ha":833,"x_min":72,"x_max":761,"o":"m 265 804 q 324 788 288 804 q 439 721 360 772 q 526 669 501 681 q 564 657 550 657 q 613 685 590 657 q 679 799 636 714 l 753 760 q 654 580 696 631 q 561 529 613 529 q 503 545 539 529 q 388 611 467 561 q 301 663 325 651 q 263 675 276 675 q 213 647 236 675 q 147 535 190 618 l 72 572 q 173 754 132 704 q 265 804 214 804 m 272 464 q 331 448 294 464 q 446 382 367 432 q 533 330 508 342 q 571 318 557 318 q 620 347 597 318 q 686 458 643 375 l 761 421 q 661 240 703 290 q 568 189 619 189 q 510 205 546 189 q 394 271 474 221 q 308 323 332 311 q 269 335 283 335 q 220 306 243 335 q 154 194 197 278 l 81 232 q 179 413 138 361 q 272 464 221 464 z "},"×":{"ha":833,"x_min":99,"x_max":735,"o":"m 735 260 l 654 179 l 418 419 l 179 178 l 99 257 l 342 497 l 99 735 l 179 815 l 417 574 l 654 814 l 735 733 l 494 497 l 735 260 z "},"<":{"ha":833,"x_min":74,"x_max":746,"o":"m 276 497 l 746 271 l 746 144 l 74 479 l 74 514 l 746 847 l 746 724 l 276 497 z "},">":{"ha":833,"x_min":88,"x_max":760,"o":"m 760 514 l 760 479 l 88 144 l 88 268 l 558 496 l 88 722 l 88 847 l 760 514 z "},"^":{"ha":833,"x_min":67,"x_max":767,"o":"m 767 465 l 638 465 l 415 829 l 193 465 l 67 465 l 401 1007 l 432 1007 l 767 465 z "},"±":{"ha":833,"x_min":76,"x_max":757,"o":"m 757 651 l 757 538 l 476 538 l 476 246 l 357 246 l 357 538 l 76 538 l 76 651 l 357 651 l 357 942 l 476 942 l 476 651 l 757 651 m 757 107 l 757 0 l 76 0 l 76 107 l 757 107 z "},"#":{"ha":931,"x_min":42,"x_max":889,"o":"m 575 -3 l 489 -3 l 547 246 l 285 246 l 226 -3 l 140 -3 l 199 246 l 42 246 l 42 361 l 225 361 l 285 611 l 111 611 l 111 726 l 311 726 l 369 975 l 456 975 l 397 726 l 660 726 l 718 975 l 804 975 l 746 726 l 889 726 l 889 611 l 719 611 l 660 361 l 819 361 l 819 246 l 633 246 l 575 -3 m 371 611 l 311 361 l 574 361 l 633 611 l 371 611 z "},"$":{"ha":814,"x_min":63,"x_max":736,"o":"m 736 268 q 649 76 736 149 q 414 -3 563 4 l 396 -187 l 300 -187 l 319 3 q 199 35 258 11 q 92 94 140 58 l 63 247 l 65 249 q 205 163 138 196 q 333 118 272 131 l 365 444 q 150 547 211 483 q 89 715 89 610 q 179 903 89 832 q 413 975 269 975 l 413 975 l 429 1143 l 525 1143 l 508 968 q 604 943 558 960 q 688 903 650 926 l 688 758 l 685 758 q 588 815 638 792 q 492 849 539 838 l 463 539 q 677 434 618 496 q 736 268 736 372 m 397 861 q 260 823 313 861 q 208 722 208 785 q 245 628 208 664 q 376 563 282 593 l 406 861 q 402 861 404 861 q 397 861 400 861 m 617 263 q 579 357 617 321 q 451 422 542 393 l 421 111 q 565 156 513 115 q 617 263 617 196 z "},"£":{"ha":804,"x_min":67,"x_max":733,"o":"m 311 115 l 733 115 l 707 0 l 83 0 l 78 25 q 267 222 228 169 q 306 321 306 275 q 299 370 306 347 q 275 422 292 393 l 67 422 l 67 513 l 221 513 q 165 625 181 576 q 149 724 149 674 q 233 915 149 842 q 456 989 317 989 q 580 972 518 989 q 704 918 642 954 l 724 774 l 721 772 q 582 849 649 824 q 453 874 515 874 q 324 833 372 874 q 275 725 275 792 q 292 643 275 685 q 363 513 308 601 l 646 513 l 646 422 l 410 422 q 424 374 419 399 q 429 326 429 350 q 403 232 429 278 q 311 115 378 186 z "},"¥":{"ha":868,"x_min":33,"x_max":835,"o":"m 767 303 l 767 224 l 497 224 l 497 0 l 371 0 l 371 224 l 100 224 l 100 303 l 371 303 l 371 418 l 100 418 l 100 497 l 332 497 l 33 972 l 179 972 l 436 551 l 693 972 l 835 972 l 535 497 l 767 497 l 767 418 l 497 418 l 497 303 l 767 303 z "},"€":{"ha":940,"x_min":44,"x_max":861,"o":"m 861 179 l 842 43 q 727 -4 779 8 q 597 -17 675 -17 q 337 78 440 -17 q 203 344 233 172 l 44 344 l 44 425 l 192 425 q 190 447 190 435 q 190 485 190 460 q 191 510 190 496 q 193 551 192 524 l 44 551 l 44 631 l 204 631 q 344 893 239 797 q 601 989 450 989 q 731 974 672 989 q 854 924 789 958 l 854 786 l 851 786 q 722 853 775 835 q 611 872 668 872 q 434 809 507 872 q 333 631 361 746 l 728 631 l 728 551 l 321 551 q 319 512 319 525 q 318 488 318 499 q 319 461 318 475 q 321 425 319 447 l 728 425 l 728 344 l 333 344 q 431 164 360 228 q 604 100 501 100 q 727 117 672 100 q 858 181 782 135 l 861 179 z "},"₦":{"ha":1243,"x_min":56,"x_max":1189,"o":"m 56 553 l 56 633 l 196 633 l 196 972 l 386 972 l 599 631 l 928 631 l 928 972 l 1047 972 l 1047 633 l 1189 633 l 1189 553 l 1047 553 l 1047 422 l 1189 422 l 1189 343 l 1047 343 l 1047 0 l 858 0 l 643 346 l 315 346 l 315 0 l 196 0 l 196 343 l 56 343 l 56 422 l 196 422 l 196 553 l 56 553 m 315 871 l 315 631 l 465 631 l 315 871 m 646 556 l 729 421 l 928 421 l 928 556 l 646 556 m 315 556 l 315 421 l 596 421 l 513 556 l 315 556 m 928 346 l 776 346 l 928 103 l 928 346 z "},"₱":{"ha":925,"x_min":47,"x_max":908,"o":"m 443 335 l 314 335 l 314 0 l 188 0 l 188 608 l 47 608 l 47 697 l 188 697 l 188 972 l 453 972 q 698 899 604 972 q 803 697 792 826 l 908 697 l 908 608 l 800 608 q 686 408 783 482 q 443 335 589 335 m 447 860 l 313 860 l 313 693 l 674 693 q 602 815 663 771 q 447 860 542 860 m 313 449 l 447 449 q 599 492 539 449 q 672 611 658 535 l 313 611 l 313 449 z "},"₺":{"ha":847,"x_min":47,"x_max":811,"o":"m 774 385 l 811 250 q 634 60 749 128 q 369 -7 519 -7 q 282 -1 326 -7 q 188 18 238 6 l 188 324 l 47 258 l 47 350 l 188 413 l 188 549 l 47 482 l 47 574 l 188 636 l 188 972 l 314 972 l 314 693 l 622 835 l 622 744 l 314 607 l 314 469 l 622 611 l 622 519 l 314 382 l 314 108 q 347 106 329 107 q 385 104 365 104 q 610 176 511 104 q 771 385 708 247 l 774 385 z "},"₽":{"ha":840,"x_min":47,"x_max":788,"o":"m 703 283 l 703 204 l 314 204 l 314 0 l 188 0 l 188 204 l 47 204 l 47 283 l 188 283 l 188 410 l 47 410 l 47 489 l 188 489 l 188 972 l 457 972 q 699 899 611 972 q 788 697 788 826 q 693 486 788 563 q 436 410 599 410 l 314 410 l 314 283 l 703 283 m 451 860 l 313 860 l 313 493 l 439 493 q 602 542 544 493 q 660 682 660 592 q 605 813 660 767 q 451 860 550 860 z "},"₹":{"ha":863,"x_min":83,"x_max":775,"o":"m 338 321 l 747 3 l 747 0 l 560 0 l 85 375 l 90 394 l 160 394 q 375 443 294 394 q 472 585 456 492 l 90 585 l 90 675 l 476 675 l 476 857 l 83 857 l 83 972 l 775 972 l 775 857 l 607 857 l 607 675 l 769 675 l 769 585 l 603 585 q 523 413 589 479 q 338 321 457 347 z "},"฿":{"ha":915,"x_min":139,"x_max":839,"o":"m 650 506 q 789 416 739 476 q 839 275 839 356 q 747 75 839 150 q 503 0 654 0 l 503 -187 l 410 -187 l 410 0 l 139 0 l 139 972 l 410 972 l 410 1143 l 503 1143 l 503 972 q 723 904 643 971 q 803 722 803 838 q 763 595 803 651 q 650 506 722 539 m 414 860 l 260 860 l 260 550 l 414 550 l 414 860 m 676 714 q 629 822 676 783 q 499 860 582 860 l 499 550 q 629 598 582 554 q 676 714 676 642 m 260 442 l 260 113 l 414 113 l 414 442 l 260 442 m 714 276 q 656 397 714 353 q 499 442 597 442 l 499 113 l 503 113 q 656 158 599 113 q 714 276 714 203 z "},"₩":{"ha":1586,"x_min":71,"x_max":1515,"o":"m 1511 422 l 1511 343 l 1294 343 l 1204 -6 l 1026 -6 l 935 346 l 650 346 l 558 -6 l 381 -6 l 290 343 l 74 343 l 74 422 l 271 422 l 238 553 l 71 553 l 71 633 l 217 633 l 129 972 l 264 972 l 344 631 l 618 631 l 710 981 l 881 981 l 972 631 l 1246 631 l 1326 972 l 1456 972 l 1368 633 l 1515 633 l 1515 553 l 1347 553 l 1314 422 l 1511 422 m 793 889 l 725 631 l 860 631 l 793 889 m 992 556 l 1026 421 l 1197 421 l 1229 556 l 992 556 m 706 556 l 669 421 l 915 421 l 879 556 l 706 556 m 361 556 l 393 421 l 563 421 l 599 556 l 361 556 m 1179 346 l 1046 346 l 1117 76 l 1179 346 m 543 346 l 411 346 l 474 79 l 543 346 z "},"¢":{"ha":757,"x_min":67,"x_max":682,"o":"m 682 346 l 660 208 q 549 156 608 175 q 431 135 490 136 l 415 -7 l 319 -7 l 335 143 q 140 260 213 168 q 67 485 67 353 q 161 724 67 625 q 401 835 256 824 l 417 979 l 513 979 l 497 832 q 585 807 543 825 q 668 758 628 789 l 668 613 l 665 613 q 572 685 615 660 q 483 721 528 711 l 438 244 q 560 275 497 249 q 679 347 622 301 l 682 346 m 186 486 q 231 339 186 401 q 350 254 275 276 l 396 725 q 244 647 303 714 q 186 486 186 581 z "},"₫":{"ha":882,"x_min":68,"x_max":835,"o":"m 693 0 l 572 0 l 572 83 q 470 9 521 32 q 360 -14 419 -14 q 151 74 235 -14 q 68 297 68 161 q 160 535 68 442 q 379 629 251 629 q 478 615 432 629 q 568 571 525 600 l 568 772 l 328 772 l 328 851 l 568 851 l 568 972 l 693 972 l 693 851 l 835 851 l 835 772 l 693 772 l 693 0 m 408 522 q 252 463 313 522 q 192 306 192 403 q 247 153 192 210 q 390 96 301 96 q 479 113 438 96 q 568 167 521 129 l 568 475 q 491 511 529 500 q 408 522 453 522 m 717 -221 l 81 -221 l 81 -142 l 717 -142 l 717 -221 z "},"%":{"ha":1289,"x_min":63,"x_max":1226,"o":"m 540 714 q 473 510 540 589 q 300 432 406 432 q 129 510 196 432 q 63 711 63 588 q 130 913 63 835 q 303 992 197 992 q 474 914 407 992 q 540 714 540 836 m 374 -3 l 260 -3 l 608 510 l 915 975 l 1029 975 l 681 463 l 374 -3 m 300 897 q 206 846 242 897 q 169 713 169 794 q 206 578 169 629 q 303 526 243 526 q 397 578 361 526 q 433 711 433 629 q 397 846 433 794 q 300 897 360 897 m 749 258 q 816 462 749 383 q 989 540 883 540 q 1160 463 1093 540 q 1226 261 1226 385 q 1159 59 1226 138 q 986 -19 1092 -19 q 815 58 882 -19 q 749 258 749 136 m 989 75 q 1083 126 1047 75 q 1119 260 1119 178 q 1083 394 1119 343 q 986 446 1046 446 q 892 394 928 446 q 856 261 856 343 q 892 126 856 178 q 989 75 929 75 z "},"°":{"ha":731,"x_min":72,"x_max":658,"o":"m 72 693 q 157 905 72 818 q 367 992 242 992 q 574 906 490 992 q 658 696 658 819 q 574 483 658 569 q 364 397 489 397 q 156 483 240 397 q 72 693 72 569 m 179 696 q 233 550 179 610 q 367 490 288 490 q 499 550 444 490 q 553 693 553 610 q 498 838 553 778 q 364 899 443 899 q 233 839 288 899 q 179 696 179 779 z "},"ª":{"ha":689,"x_min":97,"x_max":582,"o":"m 560 483 l 465 483 l 465 569 q 358 499 411 522 q 254 475 306 475 q 145 512 188 475 q 103 607 103 549 q 192 732 103 690 q 463 776 281 774 q 433 866 461 836 q 347 896 404 896 q 255 878 301 896 q 160 825 208 861 l 157 826 l 178 928 q 266 968 221 956 q 363 981 311 981 q 509 929 458 981 q 560 781 560 878 l 560 483 m 200 614 q 219 570 200 586 q 274 554 239 554 q 357 572 310 554 q 463 625 404 589 l 463 717 q 265 684 331 708 q 200 614 200 660 m 97 271 l 97 349 l 582 349 l 582 271 l 97 271 z "},"º":{"ha":693,"x_min":79,"x_max":614,"o":"m 79 729 q 156 912 79 836 q 349 988 233 988 q 540 913 465 988 q 614 731 614 839 q 538 547 614 622 q 346 471 461 471 q 154 546 229 471 q 79 729 79 621 m 513 731 q 465 850 513 801 q 347 899 418 899 q 228 850 275 899 q 181 729 181 801 q 228 608 181 657 q 346 560 275 560 q 465 609 418 560 q 513 731 513 658 m 101 271 l 101 349 l 592 349 l 592 271 l 101 271 z "},"§":{"ha":874,"x_min":54,"x_max":819,"o":"m 618 126 q 688 51 665 93 q 711 -49 711 8 q 633 -208 711 -147 q 429 -268 556 -268 q 280 -250 350 -268 q 142 -192 210 -232 l 115 -42 l 118 -40 q 283 -126 204 -97 q 433 -154 361 -154 q 543 -124 501 -154 q 585 -46 585 -94 q 547 33 585 3 q 407 96 508 63 q 131 218 207 157 q 54 375 54 279 q 106 505 54 449 q 254 593 157 561 q 185 669 207 626 q 163 768 163 713 q 241 928 163 867 q 446 989 319 989 q 590 973 521 989 q 715 928 660 957 l 715 793 l 713 793 q 568 856 633 836 q 442 875 503 875 q 331 844 372 875 q 289 765 289 814 q 326 688 289 717 q 468 625 364 658 q 744 502 668 563 q 819 346 819 442 q 767 215 819 272 q 618 126 715 158 m 181 386 q 235 290 181 328 q 449 203 289 253 q 502 185 482 192 q 531 174 522 178 q 653 247 614 207 q 693 335 693 286 q 639 430 693 392 q 425 517 585 468 q 382 531 403 524 q 342 546 361 539 q 220 474 260 513 q 181 386 181 435 z "},"¶":{"ha":949,"x_min":61,"x_max":800,"o":"m 61 646 q 174 883 61 793 q 461 972 286 972 l 800 972 l 800 0 l 717 0 l 717 858 l 583 858 l 583 0 l 500 0 l 500 328 l 446 328 q 167 413 274 328 q 61 646 61 499 m 190 629 q 262 467 190 528 q 450 406 333 406 l 500 406 l 500 858 l 456 858 q 262 798 333 858 q 190 629 190 738 z "},"µ":{"ha":853,"x_min":118,"x_max":735,"o":"m 221 78 l 236 -210 l 236 -265 l 118 -265 l 118 694 l 243 694 l 243 269 q 284 144 243 189 q 397 99 325 99 q 499 127 451 99 q 610 225 547 156 l 610 694 l 735 694 l 735 0 l 636 0 l 617 142 q 506 29 560 64 q 390 -6 451 -6 q 294 16 338 -6 q 221 78 251 38 z "},"‥":{"ha":833,"x_min":114,"x_max":719,"o":"m 208 -12 q 142 15 169 -12 q 114 82 114 43 q 142 149 114 121 q 208 176 169 176 q 275 149 247 176 q 303 82 303 121 q 275 15 303 43 q 208 -12 247 -12 m 625 -12 q 558 15 586 -12 q 531 82 531 43 q 558 149 531 121 q 625 176 586 176 q 692 149 664 176 q 719 82 719 121 q 692 15 719 43 q 625 -12 664 -12 z "},"‒":{"ha":833,"x_min":111,"x_max":722,"o":"m 722 553 l 722 440 l 111 440 l 111 553 l 722 553 z "},"⁰":{"ha":585,"x_min":51,"x_max":533,"o":"m 533 856 q 466 640 533 724 q 292 557 399 557 q 117 638 182 557 q 51 854 51 719 q 119 1069 51 986 q 293 1153 186 1153 q 467 1070 400 1153 q 533 856 533 988 m 292 1065 q 190 1007 229 1065 q 151 856 151 949 q 190 702 151 761 q 293 643 229 643 q 394 701 356 643 q 433 854 433 760 q 394 1006 433 947 q 292 1065 354 1065 z "},"¹":{"ha":407,"x_min":43,"x_max":304,"o":"m 46 904 l 43 906 l 43 1007 l 290 1153 l 304 1149 l 304 568 l 206 568 l 206 1000 l 46 904 z "},"²":{"ha":499,"x_min":46,"x_max":465,"o":"m 203 654 l 465 654 l 425 568 l 57 568 l 46 601 l 250 838 q 312 920 296 890 q 328 979 328 950 q 304 1038 328 1015 q 242 1061 281 1061 q 160 1035 200 1061 q 71 949 119 1008 l 68 950 l 56 1054 q 144 1126 96 1103 q 249 1150 193 1150 q 378 1106 329 1150 q 428 990 428 1063 q 408 902 428 943 q 331 799 388 861 l 203 654 z "},"³":{"ha":490,"x_min":44,"x_max":433,"o":"m 303 867 q 399 811 365 849 q 433 722 433 774 q 374 606 433 651 q 229 560 315 560 q 142 570 182 560 q 58 606 103 581 l 44 708 l 47 710 q 140 660 97 676 q 224 644 183 644 q 301 667 271 644 q 332 725 332 689 q 288 793 332 768 q 139 836 244 818 l 139 878 q 281 937 242 911 q 319 1000 319 963 q 296 1048 319 1031 q 231 1065 272 1065 q 155 1049 194 1065 q 65 996 115 1032 l 63 996 l 63 1096 q 151 1138 110 1125 q 240 1150 193 1150 q 372 1111 322 1150 q 421 1008 421 1072 q 391 929 421 965 q 303 867 361 893 z "},"⁴":{"ha":550,"x_min":22,"x_max":514,"o":"m 325 694 l 26 694 l 22 718 l 300 1146 l 418 1146 l 418 771 l 514 771 l 514 694 l 418 694 l 418 568 l 325 568 l 325 694 m 325 1054 l 144 771 l 325 771 l 325 1054 z "},"⁵":{"ha":519,"x_min":61,"x_max":463,"o":"m 253 929 q 406 881 350 929 q 463 750 463 833 q 399 612 463 665 q 233 558 335 558 q 149 567 189 558 q 74 594 110 576 l 61 689 l 64 690 q 150 654 111 665 q 226 643 189 643 q 326 672 289 643 q 364 751 364 701 q 329 823 364 797 q 232 849 294 849 q 165 842 201 849 q 90 822 128 835 l 81 828 l 101 1142 l 435 1142 l 435 1054 l 182 1054 l 171 921 q 209 927 188 925 q 253 929 231 929 z "},"⁶":{"ha":529,"x_min":50,"x_max":488,"o":"m 307 942 q 436 891 385 942 q 488 760 488 840 q 424 615 488 674 q 265 557 361 557 q 108 613 165 557 q 50 764 50 668 q 76 876 50 819 q 171 1024 101 932 l 260 1142 l 376 1142 l 251 983 q 222 944 233 960 q 207 922 211 929 q 258 937 235 932 q 307 942 282 942 m 169 851 q 153 808 158 828 q 149 765 149 788 q 181 674 149 708 q 267 639 214 639 q 354 672 319 639 q 389 756 389 706 q 356 837 389 808 q 263 865 322 865 q 222 863 243 865 q 169 851 201 860 z "},"⁷":{"ha":506,"x_min":44,"x_max":476,"o":"m 469 1142 l 476 1131 l 206 568 l 99 568 l 340 1056 l 63 1056 l 44 1142 l 469 1142 z "},"⁸":{"ha":550,"x_min":57,"x_max":494,"o":"m 389 861 q 467 803 439 840 q 494 719 494 767 q 433 603 494 649 q 275 558 372 558 q 118 603 179 558 q 57 719 57 649 q 84 803 57 767 q 161 861 111 840 q 97 915 119 881 q 75 993 75 950 q 131 1107 75 1063 q 275 1151 186 1151 q 420 1107 364 1151 q 476 993 476 1063 q 453 916 476 950 q 389 861 431 882 m 275 1074 q 199 1049 228 1074 q 171 986 171 1025 q 200 922 171 947 q 275 896 229 896 q 351 922 322 896 q 381 986 381 947 q 351 1049 381 1025 q 275 1074 322 1074 m 275 822 q 188 796 222 822 q 154 728 154 769 q 187 661 154 686 q 275 636 219 636 q 364 661 331 636 q 397 728 397 686 q 363 796 397 769 q 275 822 328 822 z "},"⁹":{"ha":529,"x_min":42,"x_max":481,"o":"m 481 947 q 455 835 481 892 q 358 686 429 778 l 269 568 l 154 568 l 279 726 q 303 758 294 746 q 319 781 313 771 q 269 766 293 771 q 221 761 246 761 q 92 813 143 761 q 42 947 42 865 q 104 1095 42 1036 q 264 1154 167 1154 q 422 1098 363 1154 q 481 947 481 1042 m 263 1071 q 174 1037 208 1071 q 139 951 139 1003 q 172 868 139 897 q 265 839 206 839 q 309 842 286 839 q 358 853 332 846 q 376 899 371 878 q 382 946 382 921 q 349 1037 382 1003 q 263 1071 317 1071 z "},"₀":{"ha":585,"x_min":51,"x_max":533,"o":"m 533 104 q 466 -111 533 -28 q 292 -194 399 -194 q 117 -113 182 -194 q 51 103 51 -32 q 119 318 51 235 q 293 401 186 401 q 467 319 400 401 q 533 104 533 236 m 292 314 q 190 256 229 314 q 151 104 151 197 q 190 -49 151 10 q 293 -108 229 -108 q 394 -50 356 -108 q 433 103 433 8 q 394 255 433 196 q 292 314 354 314 z "},"₁":{"ha":407,"x_min":43,"x_max":304,"o":"m 46 153 l 43 154 l 43 256 l 290 401 l 304 397 l 304 -183 l 206 -183 l 206 249 l 46 153 z "},"₂":{"ha":499,"x_min":46,"x_max":465,"o":"m 203 -97 l 465 -97 l 425 -183 l 57 -183 l 46 -150 l 250 86 q 312 169 296 139 q 328 228 328 199 q 304 287 328 264 q 242 310 281 310 q 160 283 200 310 q 71 197 119 257 l 68 199 l 56 303 q 144 375 96 351 q 249 399 193 399 q 378 355 329 399 q 428 239 428 311 q 408 151 428 192 q 331 47 388 110 l 203 -97 z "},"₃":{"ha":490,"x_min":44,"x_max":433,"o":"m 303 115 q 399 60 365 97 q 433 -29 433 22 q 374 -146 433 -100 q 229 -192 315 -192 q 142 -181 182 -192 q 58 -146 103 -171 l 44 -43 l 47 -42 q 140 -91 97 -75 q 224 -107 183 -107 q 301 -85 271 -107 q 332 -26 332 -62 q 288 42 332 17 q 139 85 244 67 l 139 126 q 281 185 242 160 q 319 249 319 211 q 296 297 319 279 q 231 314 272 314 q 155 297 194 314 q 65 244 115 281 l 63 244 l 63 344 q 151 386 110 374 q 240 399 193 399 q 372 360 322 399 q 421 257 421 321 q 391 178 421 214 q 303 115 361 142 z "},"₄":{"ha":550,"x_min":22,"x_max":514,"o":"m 325 -57 l 26 -57 l 22 -33 l 300 394 l 418 394 l 418 19 l 514 19 l 514 -57 l 418 -57 l 418 -183 l 325 -183 l 325 -57 m 325 303 l 144 19 l 325 19 l 325 303 z "},"₅":{"ha":519,"x_min":61,"x_max":463,"o":"m 253 178 q 406 130 350 178 q 463 -1 463 82 q 399 -140 463 -86 q 233 -193 335 -193 q 149 -184 189 -193 q 74 -157 110 -175 l 61 -62 l 64 -61 q 150 -97 111 -86 q 226 -108 189 -108 q 326 -79 289 -108 q 364 0 364 -50 q 329 72 364 46 q 232 97 294 97 q 165 90 201 97 q 90 71 128 83 l 81 76 l 101 390 l 435 390 l 435 303 l 182 303 l 171 169 q 209 176 188 174 q 253 178 231 178 z "},"₆":{"ha":529,"x_min":50,"x_max":488,"o":"m 307 190 q 436 140 385 190 q 488 8 488 89 q 424 -136 488 -78 q 265 -194 361 -194 q 108 -139 165 -194 q 50 13 50 -83 q 76 124 50 68 q 171 272 101 181 l 260 390 l 376 390 l 251 232 q 222 193 233 208 q 207 171 211 178 q 258 185 235 181 q 307 190 282 190 m 169 100 q 153 56 158 76 q 149 14 149 36 q 181 -78 149 -43 q 267 -112 214 -112 q 354 -79 319 -112 q 389 4 389 -46 q 356 85 389 57 q 263 114 322 114 q 222 111 243 114 q 169 100 201 108 z "},"₇":{"ha":506,"x_min":44,"x_max":476,"o":"m 469 390 l 476 379 l 206 -183 l 99 -183 l 340 304 l 63 304 l 44 390 l 469 390 z "},"₈":{"ha":550,"x_min":57,"x_max":494,"o":"m 389 110 q 467 52 439 89 q 494 -32 494 15 q 433 -148 494 -103 q 275 -193 372 -193 q 118 -148 179 -193 q 57 -32 57 -103 q 84 52 57 15 q 161 110 111 89 q 97 164 119 129 q 75 242 75 199 q 131 356 75 311 q 275 400 186 400 q 420 356 364 400 q 476 242 476 311 q 453 165 476 199 q 389 110 431 131 m 275 322 q 199 298 228 322 q 171 235 171 274 q 200 170 171 196 q 275 144 229 144 q 351 170 322 144 q 381 235 381 196 q 351 298 381 274 q 275 322 322 322 m 275 71 q 188 44 222 71 q 154 -24 154 18 q 187 -90 154 -65 q 275 -115 219 -115 q 364 -90 331 -115 q 397 -24 397 -65 q 363 44 397 18 q 275 71 328 71 z "},"₉":{"ha":529,"x_min":42,"x_max":481,"o":"m 481 196 q 455 83 481 140 q 358 -65 429 26 l 269 -183 l 154 -183 l 279 -25 q 303 7 294 -6 q 319 29 313 19 q 269 15 293 19 q 221 10 246 10 q 92 62 143 10 q 42 196 42 114 q 104 344 42 285 q 264 403 167 403 q 422 347 363 403 q 481 196 481 290 m 263 319 q 174 285 208 319 q 139 200 139 251 q 172 117 139 146 q 265 88 206 88 q 309 91 286 88 q 358 101 332 94 q 376 148 371 126 q 382 194 382 169 q 349 285 382 251 q 263 319 317 319 z "},"´":{"ha":694,"x_min":315,"x_max":601,"o":"m 375 838 l 315 838 l 432 1072 l 601 1072 l 601 1069 l 375 838 z "},"˝":{"ha":694,"x_min":168,"x_max":703,"o":"m 228 838 l 168 838 l 285 1072 l 442 1072 l 442 1069 l 228 838 m 489 838 l 429 838 l 546 1072 l 703 1072 l 703 1069 l 489 838 z "},"`":{"ha":694,"x_min":93,"x_max":379,"o":"m 263 1072 l 379 838 l 319 838 l 93 1069 l 93 1072 l 263 1072 z "},"ˆ":{"ha":694,"x_min":113,"x_max":582,"o":"m 582 838 l 524 838 l 349 971 l 174 838 l 113 838 l 113 840 l 290 1072 l 404 1072 l 582 840 l 582 838 z "},"ˇ":{"ha":694,"x_min":113,"x_max":582,"o":"m 582 1072 l 582 1069 l 404 838 l 290 838 l 113 1069 l 113 1072 l 171 1072 l 346 938 l 521 1072 l 582 1072 z "},"˘":{"ha":694,"x_min":110,"x_max":585,"o":"m 347 829 q 215 876 274 829 q 110 1021 157 924 l 172 1056 q 260 965 219 992 q 347 938 301 938 q 434 965 393 938 q 522 1056 475 992 l 585 1021 q 479 876 538 924 q 347 829 421 829 z "},"˜":{"ha":694,"x_min":78,"x_max":617,"o":"m 369 988 q 428 953 411 961 q 456 944 446 944 q 488 960 472 944 q 554 1049 503 975 l 617 1010 q 520 868 553 900 q 447 836 488 836 q 404 847 429 836 q 325 893 379 858 q 266 928 283 919 q 239 936 249 936 q 209 922 224 936 q 140 832 194 908 l 78 869 q 174 1012 142 979 q 247 1044 207 1044 q 290 1033 265 1044 q 369 988 315 1022 z "},"¯":{"ha":694,"x_min":114,"x_max":581,"o":"m 114 872 l 114 967 l 581 967 l 581 872 l 114 872 z "},"¨":{"ha":694,"x_min":118,"x_max":576,"o":"m 204 836 q 143 861 168 836 q 118 922 118 886 q 143 983 118 958 q 204 1008 168 1008 q 265 983 240 1008 q 290 922 290 958 q 265 861 290 886 q 204 836 240 836 m 490 836 q 429 861 454 836 q 404 922 404 886 q 429 983 404 958 q 490 1008 454 1008 q 551 983 526 1008 q 576 922 576 958 q 551 861 576 886 q 490 836 526 836 z "},"˙":{"ha":694,"x_min":261,"x_max":433,"o":"m 347 836 q 286 861 311 836 q 261 922 261 886 q 286 983 261 958 q 347 1008 311 1008 q 408 983 383 1008 q 433 922 433 958 q 408 861 433 886 q 347 836 383 836 z "},"˚":{"ha":694,"x_min":178,"x_max":517,"o":"m 347 828 q 227 878 276 828 q 178 997 178 928 q 227 1117 178 1067 q 347 1167 276 1167 q 467 1117 418 1167 q 517 997 517 1067 q 467 878 517 928 q 347 828 418 828 m 456 997 q 424 1076 456 1043 q 347 1108 393 1108 q 270 1076 301 1108 q 239 997 239 1043 q 270 917 239 950 q 347 885 301 885 q 424 917 393 885 q 456 997 456 950 z "},"ꞈ":{"ha":694,"x_min":113,"x_max":582,"o":"m 582 -347 l 524 -347 l 349 -214 l 174 -347 l 113 -347 l 113 -344 l 290 -112 l 404 -112 l 582 -344 l 582 -347 z "},"ˍ":{"ha":694,"x_min":114,"x_max":581,"o":"m 114 -243 l 114 -149 l 581 -149 l 581 -243 l 114 -243 z "},"¸":{"ha":694,"x_min":192,"x_max":476,"o":"m 476 -161 q 432 -241 476 -211 q 314 -271 388 -271 q 270 -268 292 -271 q 228 -260 249 -265 l 192 -194 l 196 -190 q 251 -206 228 -201 q 300 -210 275 -210 q 359 -199 338 -210 q 381 -167 381 -187 q 363 -137 381 -147 q 311 -128 346 -128 q 288 -128 300 -128 q 247 -133 276 -129 l 242 -128 l 321 7 l 399 7 l 350 -69 q 444 -95 413 -72 q 476 -161 476 -118 z "},"˛":{"ha":694,"x_min":225,"x_max":478,"o":"m 478 -200 l 460 -258 q 414 -267 438 -264 q 369 -269 390 -269 q 264 -242 303 -269 q 225 -165 225 -215 q 238 -115 225 -142 q 283 -50 251 -89 l 335 14 l 408 14 l 356 -79 q 338 -115 343 -101 q 333 -144 333 -129 q 360 -187 333 -174 q 446 -200 386 -200 l 478 -200 z "},"ʹ":{"ha":344,"x_min":58,"x_max":325,"o":"m 58 592 l 171 972 l 325 972 l 108 574 l 58 592 z "},"ʺ":{"ha":610,"x_min":58,"x_max":589,"o":"m 58 592 l 171 972 l 325 972 l 108 574 l 58 592 m 322 592 l 435 972 l 589 972 l 374 574 l 322 592 z "},"ʻ":{"ha":301,"x_min":51,"x_max":260,"o":"m 167 758 q 180 694 167 725 q 244 585 193 663 l 113 585 q 65 664 79 629 q 51 739 51 699 q 81 831 51 783 q 218 983 110 879 l 260 953 q 188 839 208 883 q 167 758 167 794 z "},"ʼ":{"ha":301,"x_min":42,"x_max":250,"o":"m 133 800 q 119 866 133 833 q 56 972 106 899 l 189 972 q 236 892 222 926 q 250 819 250 857 q 235 755 250 788 q 189 683 221 722 q 153 644 179 672 q 83 574 126 617 l 42 604 q 112 717 90 671 q 133 800 133 763 z "},"ʿ":{"ha":279,"x_min":39,"x_max":231,"o":"m 39 939 q 92 1064 39 1017 q 231 1111 144 1111 l 231 1040 q 148 1011 179 1039 q 117 939 117 983 q 147 867 117 894 q 231 838 178 840 l 231 767 q 91 813 143 767 q 39 939 39 860 z "},"ʾ":{"ha":279,"x_min":49,"x_max":240,"o":"m 240 939 q 187 814 240 861 q 49 767 133 767 l 49 838 q 131 867 100 839 q 163 939 163 894 q 132 1010 163 983 q 49 1040 101 1038 l 49 1111 q 188 1065 136 1111 q 240 939 240 1018 z "},"ˈ":{"ha":256,"x_min":90,"x_max":165,"o":"m 165 769 l 90 769 l 90 1108 l 165 1108 l 165 769 z "},"ˌ":{"ha":256,"x_min":90,"x_max":165,"o":"m 165 -265 l 90 -265 l 90 74 l 165 74 l 165 -265 z "},"Á":{"ha":1096,"x_min":40,"x_max":1053,"o":"m 179 0 l 40 0 l 493 978 l 617 978 l 1053 0 l 908 0 l 800 250 l 292 250 l 179 0 m 550 825 l 344 368 l 749 368 l 550 825 m 581 1072 l 513 1072 l 626 1268 l 811 1268 l 811 1265 l 581 1072 z "},"À":{"ha":1096,"x_min":40,"x_max":1053,"o":"m 179 0 l 40 0 l 493 978 l 617 978 l 1053 0 l 908 0 l 800 250 l 292 250 l 179 0 m 550 825 l 344 368 l 749 368 l 550 825 m 476 1268 l 590 1072 l 522 1072 l 292 1265 l 292 1268 l 476 1268 z "},"Â":{"ha":1096,"x_min":40,"x_max":1053,"o":"m 179 0 l 40 0 l 493 978 l 617 978 l 1053 0 l 908 0 l 800 250 l 292 250 l 179 0 m 550 825 l 344 368 l 749 368 l 550 825 m 788 1067 l 717 1067 l 553 1171 l 389 1067 l 315 1067 l 315 1068 l 490 1263 l 613 1263 l 788 1068 l 788 1067 z "},"Ậ":{"ha":1096,"x_min":40,"x_max":1053,"o":"m 179 0 l 40 0 l 493 978 l 617 978 l 1053 0 l 908 0 l 800 250 l 292 250 l 179 0 m 550 825 l 344 368 l 749 368 l 550 825 m 788 1067 l 717 1067 l 553 1171 l 389 1067 l 315 1067 l 315 1068 l 490 1263 l 613 1263 l 788 1068 l 788 1067 m 547 -276 q 486 -251 511 -276 q 461 -190 461 -226 q 486 -129 461 -154 q 547 -104 511 -104 q 608 -129 583 -104 q 633 -190 633 -154 q 608 -251 633 -225 q 547 -276 583 -276 z "},"Ấ":{"ha":1096,"x_min":40,"x_max":1053,"o":"m 179 0 l 40 0 l 493 978 l 617 978 l 1053 0 l 908 0 l 800 250 l 292 250 l 179 0 m 550 825 l 344 368 l 749 368 l 550 825 m 778 1211 l 711 1211 l 808 1364 l 981 1364 l 981 1361 l 778 1211 m 788 1067 l 717 1067 l 553 1153 l 389 1067 l 315 1067 l 315 1068 l 483 1233 l 619 1233 l 788 1068 l 788 1067 z "},"Ầ":{"ha":1096,"x_min":40,"x_max":1053,"o":"m 179 0 l 40 0 l 493 978 l 617 978 l 1053 0 l 908 0 l 800 250 l 292 250 l 179 0 m 550 825 l 344 368 l 749 368 l 550 825 m 819 1364 l 917 1211 l 849 1211 l 646 1361 l 646 1364 l 819 1364 m 788 1067 l 717 1067 l 553 1153 l 389 1067 l 315 1067 l 315 1068 l 483 1233 l 619 1233 l 788 1068 l 788 1067 z "},"Ẩ":{"ha":1096,"x_min":40,"x_max":1053,"o":"m 179 0 l 40 0 l 493 978 l 617 978 l 1053 0 l 908 0 l 800 250 l 292 250 l 179 0 m 550 825 l 344 368 l 749 368 l 550 825 m 931 1335 q 904 1279 931 1304 q 797 1213 878 1254 l 733 1228 l 733 1231 q 819 1288 797 1269 q 842 1321 842 1306 q 831 1339 842 1332 q 800 1346 819 1346 q 734 1335 768 1346 q 663 1304 700 1325 l 661 1304 l 661 1375 q 733 1403 697 1394 q 810 1413 768 1413 q 898 1392 865 1413 q 931 1335 931 1371 m 788 1067 l 717 1067 l 553 1153 l 389 1067 l 315 1067 l 315 1068 l 483 1233 l 619 1233 l 788 1068 l 788 1067 z "},"Ẫ":{"ha":1096,"x_min":40,"x_max":1053,"o":"m 179 0 l 40 0 l 493 978 l 617 978 l 1053 0 l 908 0 l 800 250 l 292 250 l 179 0 m 550 825 l 344 368 l 749 368 l 550 825 m 579 1404 q 634 1378 618 1385 q 660 1372 650 1372 q 694 1385 678 1372 q 750 1449 710 1399 l 799 1413 q 716 1307 744 1332 q 653 1282 688 1282 q 615 1290 638 1282 q 544 1322 593 1297 q 490 1348 506 1342 q 465 1354 475 1354 q 431 1341 447 1354 q 375 1278 415 1328 l 325 1314 q 409 1419 381 1394 q 472 1444 438 1444 q 510 1437 488 1444 q 579 1404 532 1429 m 788 1067 l 717 1067 l 553 1153 l 389 1067 l 315 1067 l 315 1068 l 483 1233 l 619 1233 l 788 1068 l 788 1067 z "},"Ǎ":{"ha":1096,"x_min":40,"x_max":1053,"o":"m 179 0 l 40 0 l 493 978 l 617 978 l 1053 0 l 908 0 l 800 250 l 292 250 l 179 0 m 550 825 l 344 368 l 749 368 l 550 825 m 788 1264 l 788 1261 l 613 1068 l 490 1068 l 315 1261 l 315 1264 l 386 1264 l 550 1160 l 714 1264 l 788 1264 z "},"Ă":{"ha":1096,"x_min":40,"x_max":1053,"o":"m 179 0 l 40 0 l 493 978 l 617 978 l 1053 0 l 908 0 l 800 250 l 292 250 l 179 0 m 550 825 l 344 368 l 749 368 l 550 825 m 551 1072 q 412 1113 474 1072 q 301 1239 350 1154 l 354 1278 q 453 1198 408 1221 q 551 1175 499 1175 q 649 1198 604 1175 q 749 1278 694 1221 l 801 1239 q 691 1113 753 1154 q 551 1072 629 1072 z "},"Ặ":{"ha":1096,"x_min":40,"x_max":1053,"o":"m 179 0 l 40 0 l 493 978 l 617 978 l 1053 0 l 908 0 l 800 250 l 292 250 l 179 0 m 550 825 l 344 368 l 749 368 l 550 825 m 551 1072 q 412 1113 474 1072 q 301 1239 350 1154 l 354 1278 q 453 1198 408 1221 q 551 1175 499 1175 q 649 1198 604 1175 q 749 1278 694 1221 l 801 1239 q 691 1113 753 1154 q 551 1072 629 1072 m 547 -276 q 486 -251 511 -276 q 461 -190 461 -226 q 486 -129 461 -154 q 547 -104 511 -104 q 608 -129 583 -104 q 633 -190 633 -154 q 608 -251 633 -225 q 547 -276 583 -276 z "},"Ắ":{"ha":1096,"x_min":40,"x_max":1053,"o":"m 179 0 l 40 0 l 493 978 l 617 978 l 1053 0 l 908 0 l 800 250 l 292 250 l 179 0 m 550 825 l 344 368 l 749 368 l 550 825 m 558 1263 l 503 1263 l 592 1426 l 756 1426 l 756 1425 l 558 1263 m 551 1072 q 410 1110 472 1072 q 301 1224 349 1147 l 344 1263 q 450 1194 403 1214 q 551 1175 497 1175 q 653 1194 606 1175 q 758 1263 700 1214 l 801 1224 q 692 1110 754 1147 q 551 1072 631 1072 z "},"Ằ":{"ha":1096,"x_min":40,"x_max":1053,"o":"m 179 0 l 40 0 l 493 978 l 617 978 l 1053 0 l 908 0 l 800 250 l 292 250 l 179 0 m 550 825 l 344 368 l 749 368 l 550 825 m 511 1426 l 600 1263 l 544 1263 l 347 1425 l 347 1426 l 511 1426 m 551 1072 q 410 1110 472 1072 q 301 1224 349 1147 l 344 1263 q 450 1194 403 1214 q 551 1175 497 1175 q 653 1194 606 1175 q 758 1263 700 1214 l 801 1224 q 692 1110 754 1147 q 551 1072 631 1072 z "},"Ẳ":{"ha":1096,"x_min":40,"x_max":1053,"o":"m 179 0 l 40 0 l 493 978 l 617 978 l 1053 0 l 908 0 l 800 250 l 292 250 l 179 0 m 550 825 l 344 368 l 749 368 l 550 825 m 708 1399 q 681 1343 708 1371 q 560 1263 654 1315 l 493 1282 l 493 1283 q 590 1349 569 1332 q 611 1382 611 1367 q 598 1404 611 1396 q 563 1413 585 1413 q 495 1401 531 1413 q 417 1365 460 1390 l 415 1365 l 415 1443 q 495 1476 460 1467 q 572 1486 531 1486 q 670 1462 632 1486 q 708 1399 708 1438 m 551 1072 q 410 1110 472 1072 q 301 1224 349 1147 l 344 1263 q 450 1194 403 1214 q 551 1175 497 1175 q 653 1194 606 1175 q 758 1263 700 1214 l 801 1224 q 692 1110 754 1147 q 551 1072 631 1072 z "},"Ẵ":{"ha":1096,"x_min":40,"x_max":1053,"o":"m 179 0 l 40 0 l 493 978 l 617 978 l 1053 0 l 908 0 l 800 250 l 292 250 l 179 0 m 550 825 l 344 368 l 749 368 l 550 825 m 575 1428 q 629 1402 614 1408 q 654 1396 644 1396 q 688 1410 672 1396 q 744 1474 704 1424 l 794 1438 q 713 1333 742 1358 q 649 1307 683 1307 q 611 1315 633 1307 q 540 1347 589 1322 q 486 1373 501 1367 q 461 1379 471 1379 q 427 1365 443 1379 q 369 1303 411 1351 l 321 1338 q 403 1443 374 1417 q 467 1469 432 1469 q 504 1461 482 1469 q 575 1428 526 1453 m 551 1072 q 410 1110 472 1072 q 301 1224 349 1147 l 344 1263 q 450 1194 403 1214 q 551 1175 497 1175 q 653 1194 606 1175 q 758 1263 700 1214 l 801 1224 q 692 1110 754 1147 q 551 1072 631 1072 z "},"Ã":{"ha":1096,"x_min":40,"x_max":1053,"o":"m 179 0 l 40 0 l 493 978 l 617 978 l 1053 0 l 908 0 l 800 250 l 292 250 l 179 0 m 550 825 l 344 368 l 749 368 l 550 825 m 571 1208 q 631 1178 613 1185 q 660 1171 649 1171 q 695 1185 679 1171 q 761 1261 711 1199 l 815 1222 q 723 1100 756 1129 q 651 1071 690 1071 q 609 1080 633 1071 q 532 1119 585 1089 q 472 1150 490 1143 q 443 1157 454 1157 q 408 1143 424 1157 q 342 1067 392 1129 l 288 1106 q 380 1228 347 1199 q 451 1257 413 1257 q 494 1248 469 1257 q 571 1208 518 1239 z "},"Ā":{"ha":1096,"x_min":40,"x_max":1053,"o":"m 179 0 l 40 0 l 493 978 l 617 978 l 1053 0 l 908 0 l 800 250 l 292 250 l 179 0 m 550 825 l 344 368 l 749 368 l 550 825 m 304 1106 l 304 1200 l 799 1200 l 799 1106 l 304 1106 z "},"Ä":{"ha":1096,"x_min":40,"x_max":1053,"o":"m 179 0 l 40 0 l 493 978 l 617 978 l 1053 0 l 908 0 l 800 250 l 292 250 l 179 0 m 550 825 l 344 368 l 749 368 l 550 825 m 407 1244 q 469 1219 443 1244 q 494 1157 494 1193 q 469 1095 494 1121 q 407 1069 443 1069 q 344 1094 369 1069 q 319 1157 319 1119 q 344 1219 319 1194 q 407 1244 369 1244 m 696 1244 q 758 1219 733 1244 q 783 1157 783 1194 q 758 1094 783 1119 q 696 1069 733 1069 q 634 1095 660 1069 q 608 1157 608 1121 q 634 1219 608 1193 q 696 1244 660 1244 z "},"Ȧ":{"ha":1096,"x_min":40,"x_max":1053,"o":"m 179 0 l 40 0 l 493 978 l 617 978 l 1053 0 l 908 0 l 800 250 l 292 250 l 179 0 m 550 825 l 344 368 l 749 368 l 550 825 m 551 1244 q 614 1219 589 1244 q 639 1157 639 1194 q 614 1094 639 1119 q 551 1069 589 1069 q 489 1094 514 1069 q 464 1157 464 1119 q 489 1219 464 1194 q 551 1244 514 1244 z "},"Å":{"ha":1096,"x_min":40,"x_max":1053,"o":"m 1053 0 l 908 0 l 800 250 l 292 250 l 179 0 l 40 0 l 460 907 q 401 970 422 932 q 379 1051 379 1008 q 430 1172 379 1122 q 554 1222 481 1222 q 678 1172 628 1222 q 729 1051 729 1122 q 708 970 729 1008 q 649 907 686 932 l 1053 0 m 668 1051 q 635 1132 668 1099 q 554 1165 601 1165 q 474 1132 507 1165 q 442 1051 442 1099 q 474 972 442 1004 q 554 939 507 939 q 635 972 601 939 q 668 1051 668 1006 m 550 824 l 344 368 l 749 368 l 550 824 z "},"Ǻ":{"ha":1096,"x_min":40,"x_max":1053,"o":"m 1053 0 l 908 0 l 800 250 l 292 250 l 179 0 l 40 0 l 460 907 q 401 970 422 932 q 379 1051 379 1008 q 430 1172 379 1122 q 554 1222 481 1222 q 678 1172 628 1222 q 729 1051 729 1122 q 708 970 729 1008 q 649 907 686 932 l 1053 0 m 668 1051 q 635 1132 668 1099 q 554 1165 601 1165 q 474 1132 507 1165 q 442 1051 442 1099 q 474 972 442 1004 q 554 939 507 939 q 635 972 601 939 q 668 1051 668 1006 m 550 824 l 344 368 l 749 368 l 550 824 m 576 1276 l 508 1276 l 622 1472 l 807 1472 l 807 1469 l 576 1276 z "},"Ả":{"ha":1096,"x_min":40,"x_max":1053,"o":"m 179 0 l 40 0 l 493 978 l 617 978 l 1053 0 l 908 0 l 800 250 l 292 250 l 179 0 m 550 825 l 344 368 l 749 368 l 550 825 m 721 1218 q 688 1146 721 1178 q 561 1065 656 1114 l 490 1085 l 490 1088 q 597 1158 571 1136 q 622 1199 622 1179 q 606 1225 622 1215 q 560 1235 590 1235 q 483 1222 522 1235 q 401 1183 444 1210 l 399 1183 l 399 1268 q 482 1304 442 1293 q 567 1315 522 1315 q 680 1290 639 1315 q 721 1218 721 1264 z "},"Ạ":{"ha":1096,"x_min":40,"x_max":1053,"o":"m 179 0 l 40 0 l 493 978 l 617 978 l 1053 0 l 908 0 l 800 250 l 292 250 l 179 0 m 550 825 l 344 368 l 749 368 l 550 825 m 547 -276 q 486 -251 511 -276 q 461 -190 461 -226 q 486 -129 461 -154 q 547 -104 511 -104 q 608 -129 583 -104 q 633 -190 633 -154 q 608 -251 633 -225 q 547 -276 583 -276 z "},"Ą":{"ha":1096,"x_min":40,"x_max":1060,"o":"m 179 0 l 40 0 l 493 978 l 617 978 l 1053 0 l 982 0 l 938 -79 q 920 -115 925 -101 q 915 -144 915 -129 q 942 -187 915 -174 q 1028 -200 968 -200 l 1060 -200 l 1042 -258 q 996 -267 1019 -264 q 951 -269 972 -269 q 845 -242 883 -269 q 807 -165 807 -215 q 820 -114 807 -140 q 864 -50 833 -87 l 907 3 l 800 250 l 292 250 l 179 0 m 550 825 l 344 368 l 749 368 l 550 825 z "},"Æ":{"ha":1381,"x_min":11,"x_max":1301,"o":"m 151 0 l 11 0 l 653 972 l 1257 972 l 1297 851 l 843 851 l 843 554 l 1222 554 l 1222 435 l 843 435 l 843 121 l 1301 121 l 1261 0 l 710 0 l 710 250 l 315 250 l 151 0 m 710 849 l 393 368 l 710 368 l 710 849 z "},"Ǽ":{"ha":1381,"x_min":11,"x_max":1301,"o":"m 151 0 l 11 0 l 653 972 l 1257 972 l 1297 851 l 843 851 l 843 554 l 1222 554 l 1222 435 l 843 435 l 843 121 l 1301 121 l 1261 0 l 710 0 l 710 250 l 315 250 l 151 0 m 710 849 l 393 368 l 710 368 l 710 849 m 906 1072 l 838 1072 l 951 1268 l 1136 1268 l 1136 1265 l 906 1072 z "},"Ḇ":{"ha":857,"x_min":139,"x_max":782,"o":"m 592 506 q 733 419 683 478 q 782 275 782 360 q 685 75 782 150 q 429 0 588 0 l 139 0 l 139 972 l 432 972 q 657 905 575 972 q 739 718 739 838 q 701 594 739 649 q 592 506 663 540 m 424 857 l 268 857 l 268 553 l 410 553 q 551 597 497 553 q 606 710 606 640 q 556 817 606 778 q 424 857 507 857 m 268 439 l 268 115 l 436 115 q 591 160 533 115 q 649 278 649 204 q 591 397 649 354 q 429 439 533 439 l 268 439 m 211 -249 l 211 -154 l 678 -154 l 678 -249 l 211 -249 z "},"Ć":{"ha":1001,"x_min":76,"x_max":924,"o":"m 561 -17 q 215 125 354 -17 q 76 486 76 267 q 115 681 76 589 q 224 843 153 772 q 387 951 294 913 q 581 989 479 989 q 756 958 675 989 q 906 868 838 928 l 906 706 l 903 706 q 741 825 822 786 q 574 864 660 864 q 320 754 426 864 q 214 490 214 644 q 318 217 214 326 q 569 108 422 108 q 751 148 663 108 q 921 267 839 188 l 924 265 l 904 108 q 739 14 824 44 q 561 -17 654 -17 m 592 1079 l 524 1079 l 638 1275 l 822 1275 l 822 1272 l 592 1079 z "},"Ĉ":{"ha":1001,"x_min":76,"x_max":924,"o":"m 561 -17 q 215 125 354 -17 q 76 486 76 267 q 115 681 76 589 q 224 843 153 772 q 387 951 294 913 q 581 989 479 989 q 756 958 675 989 q 906 868 838 928 l 906 706 l 903 706 q 741 825 822 786 q 574 864 660 864 q 320 754 426 864 q 214 490 214 644 q 318 217 214 326 q 569 108 422 108 q 751 148 663 108 q 921 267 839 188 l 924 265 l 904 108 q 739 14 824 44 q 561 -17 654 -17 m 799 1072 l 728 1072 l 564 1176 l 400 1072 l 326 1072 l 326 1074 l 501 1268 l 624 1268 l 799 1074 l 799 1072 z "},"Č":{"ha":1001,"x_min":76,"x_max":924,"o":"m 561 -17 q 215 125 354 -17 q 76 486 76 267 q 115 681 76 589 q 224 843 153 772 q 387 951 294 913 q 581 989 479 989 q 756 958 675 989 q 906 868 838 928 l 906 706 l 903 706 q 741 825 822 786 q 574 864 660 864 q 320 754 426 864 q 214 490 214 644 q 318 217 214 326 q 569 108 422 108 q 751 148 663 108 q 921 267 839 188 l 924 265 l 904 108 q 739 14 824 44 q 561 -17 654 -17 m 799 1271 l 799 1268 l 624 1075 l 501 1075 l 326 1268 l 326 1271 l 397 1271 l 561 1167 l 725 1271 l 799 1271 z "},"Ċ":{"ha":1001,"x_min":76,"x_max":924,"o":"m 561 -17 q 215 125 354 -17 q 76 486 76 267 q 115 681 76 589 q 224 843 153 772 q 387 951 294 913 q 581 989 479 989 q 756 958 675 989 q 906 868 838 928 l 906 706 l 903 706 q 741 825 822 786 q 574 864 660 864 q 320 754 426 864 q 214 490 214 644 q 318 217 214 326 q 569 108 422 108 q 751 148 663 108 q 921 267 839 188 l 924 265 l 904 108 q 739 14 824 44 q 561 -17 654 -17 m 563 1251 q 625 1226 600 1251 q 650 1164 650 1201 q 625 1101 650 1126 q 563 1076 600 1076 q 500 1101 525 1076 q 475 1164 475 1126 q 500 1226 475 1201 q 563 1251 525 1251 z "},"Ç":{"ha":1001,"x_min":76,"x_max":924,"o":"m 688 -168 q 644 -248 688 -218 q 526 -278 600 -278 q 483 -275 504 -278 q 440 -267 463 -272 l 404 -201 l 408 -197 q 464 -212 440 -208 q 513 -217 488 -217 q 571 -206 550 -217 q 592 -174 592 -194 q 574 -144 592 -154 q 524 -135 557 -135 q 501 -135 513 -135 q 460 -140 489 -136 l 454 -135 l 524 -15 q 203 137 329 -3 q 76 486 76 276 q 115 681 76 589 q 224 843 153 772 q 387 951 294 913 q 581 989 479 989 q 756 958 675 989 q 906 868 838 928 l 906 706 l 903 706 q 741 825 822 786 q 574 864 660 864 q 320 754 426 864 q 214 490 214 644 q 318 217 214 326 q 569 108 422 108 q 751 148 663 108 q 921 267 839 188 l 924 265 l 904 108 q 758 22 832 51 q 601 -15 683 -8 l 563 -76 q 656 -102 624 -79 q 688 -168 688 -125 z "},"Ď":{"ha":1088,"x_min":139,"x_max":1010,"o":"m 460 0 l 139 0 l 139 972 l 460 972 q 861 842 713 972 q 1010 489 1010 711 q 856 135 1010 271 q 460 0 703 0 m 872 486 q 760 752 872 654 q 457 850 647 850 l 274 850 l 274 122 l 463 122 q 758 223 643 122 q 872 486 872 324 m 767 1264 l 767 1261 l 592 1068 l 469 1068 l 294 1261 l 294 1264 l 365 1264 l 529 1160 l 693 1264 l 767 1264 z "},"Ḓ":{"ha":1088,"x_min":139,"x_max":1010,"o":"m 460 0 l 139 0 l 139 972 l 460 972 q 861 842 713 972 q 1010 489 1010 711 q 856 135 1010 271 q 460 0 703 0 m 872 486 q 760 752 872 654 q 457 850 647 850 l 274 850 l 274 122 l 463 122 q 758 223 643 122 q 872 486 872 324 m 765 -354 l 707 -354 l 532 -221 l 357 -354 l 296 -354 l 296 -353 l 474 -119 l 588 -119 l 765 -353 l 765 -354 z "},"Ḏ":{"ha":1088,"x_min":139,"x_max":1010,"o":"m 460 0 l 139 0 l 139 972 l 460 972 q 861 842 713 972 q 1010 489 1010 711 q 856 135 1010 271 q 460 0 703 0 m 872 486 q 760 752 872 654 q 457 850 647 850 l 274 850 l 274 122 l 463 122 q 758 223 643 122 q 872 486 872 324 m 297 -249 l 297 -154 l 764 -154 l 764 -249 l 297 -249 z "},"Ḍ":{"ha":1088,"x_min":139,"x_max":1010,"o":"m 460 0 l 139 0 l 139 972 l 460 972 q 861 842 713 972 q 1010 489 1010 711 q 856 135 1010 271 q 460 0 703 0 m 872 486 q 760 752 872 654 q 457 850 647 850 l 274 850 l 274 122 l 463 122 q 758 223 643 122 q 872 486 872 324 m 531 -292 q 469 -267 494 -292 q 444 -206 444 -242 q 469 -144 444 -169 q 531 -119 494 -119 q 592 -144 567 -119 q 617 -206 617 -169 q 592 -266 617 -240 q 531 -292 567 -292 z "},"Đ":{"ha":1115,"x_min":33,"x_max":1038,"o":"m 33 449 l 33 544 l 167 544 l 167 972 l 488 972 q 889 842 740 972 q 1038 489 1038 711 q 884 135 1038 271 q 488 0 731 0 l 167 0 l 167 449 l 33 449 m 564 544 l 564 449 l 301 449 l 301 122 l 490 122 q 785 223 671 122 q 900 486 900 324 q 788 752 900 654 q 485 850 675 850 l 301 850 l 301 544 l 564 544 z "},"É":{"ha":811,"x_min":139,"x_max":731,"o":"m 690 0 l 139 0 l 139 972 l 686 972 l 726 851 l 274 851 l 274 554 l 653 554 l 653 435 l 274 435 l 274 121 l 731 121 l 690 0 m 457 1072 l 389 1072 l 503 1268 l 688 1268 l 688 1265 l 457 1072 z "},"È":{"ha":811,"x_min":139,"x_max":731,"o":"m 690 0 l 139 0 l 139 972 l 686 972 l 726 851 l 274 851 l 274 554 l 653 554 l 653 435 l 274 435 l 274 121 l 731 121 l 690 0 m 353 1268 l 467 1072 l 399 1072 l 168 1265 l 168 1268 l 353 1268 z "},"Ê":{"ha":811,"x_min":139,"x_max":731,"o":"m 690 0 l 139 0 l 139 972 l 686 972 l 726 851 l 274 851 l 274 554 l 653 554 l 653 435 l 274 435 l 274 121 l 731 121 l 690 0 m 664 1072 l 593 1072 l 429 1176 l 265 1072 l 192 1072 l 192 1074 l 367 1268 l 489 1268 l 664 1074 l 664 1072 z "},"Ệ":{"ha":811,"x_min":139,"x_max":731,"o":"m 690 0 l 139 0 l 139 972 l 686 972 l 726 851 l 274 851 l 274 554 l 653 554 l 653 435 l 274 435 l 274 121 l 731 121 l 690 0 m 664 1072 l 593 1072 l 429 1176 l 265 1072 l 192 1072 l 192 1074 l 367 1268 l 489 1268 l 664 1074 l 664 1072 m 428 -292 q 367 -267 392 -292 q 342 -206 342 -242 q 367 -144 342 -169 q 428 -119 392 -119 q 489 -144 464 -119 q 514 -206 514 -169 q 489 -266 514 -240 q 428 -292 464 -292 z "},"Ế":{"ha":811,"x_min":139,"x_max":857,"o":"m 690 0 l 139 0 l 139 972 l 686 972 l 726 851 l 274 851 l 274 554 l 653 554 l 653 435 l 274 435 l 274 121 l 731 121 l 690 0 m 654 1217 l 588 1217 l 685 1369 l 857 1369 l 857 1367 l 654 1217 m 664 1072 l 593 1072 l 429 1158 l 265 1072 l 192 1072 l 192 1074 l 360 1239 l 496 1239 l 664 1074 l 664 1072 z "},"Ề":{"ha":811,"x_min":139,"x_max":793,"o":"m 690 0 l 139 0 l 139 972 l 686 972 l 726 851 l 274 851 l 274 554 l 653 554 l 653 435 l 274 435 l 274 121 l 731 121 l 690 0 m 696 1369 l 793 1217 l 725 1217 l 522 1367 l 522 1369 l 696 1369 m 664 1072 l 593 1072 l 429 1158 l 265 1072 l 192 1072 l 192 1074 l 360 1239 l 496 1239 l 664 1074 l 664 1072 z "},"Ể":{"ha":811,"x_min":139,"x_max":807,"o":"m 690 0 l 139 0 l 139 972 l 686 972 l 726 851 l 274 851 l 274 554 l 653 554 l 653 435 l 274 435 l 274 121 l 731 121 l 690 0 m 807 1340 q 781 1285 807 1310 q 674 1218 754 1260 l 610 1233 l 610 1236 q 696 1293 674 1275 q 718 1326 718 1311 q 707 1344 718 1338 q 676 1351 696 1351 q 610 1341 644 1351 q 539 1310 576 1331 l 538 1310 l 538 1381 q 609 1409 574 1400 q 686 1418 644 1418 q 774 1397 742 1418 q 807 1340 807 1376 m 664 1072 l 593 1072 l 429 1158 l 265 1072 l 192 1072 l 192 1074 l 360 1239 l 496 1239 l 664 1074 l 664 1072 z "},"Ễ":{"ha":811,"x_min":139,"x_max":731,"o":"m 690 0 l 139 0 l 139 972 l 686 972 l 726 851 l 274 851 l 274 554 l 653 554 l 653 435 l 274 435 l 274 121 l 731 121 l 690 0 m 456 1410 q 510 1384 494 1390 q 536 1378 526 1378 q 570 1391 554 1378 q 626 1454 586 1404 l 675 1418 q 592 1313 621 1338 q 529 1288 564 1288 q 492 1295 514 1288 q 421 1328 469 1303 q 367 1353 382 1347 q 342 1360 351 1360 q 308 1347 324 1360 q 251 1283 292 1333 l 201 1319 q 285 1425 257 1400 q 349 1450 314 1450 q 386 1442 364 1450 q 456 1410 408 1435 m 664 1072 l 593 1072 l 429 1158 l 265 1072 l 192 1072 l 192 1074 l 360 1239 l 496 1239 l 664 1074 l 664 1072 z "},"Ě":{"ha":811,"x_min":139,"x_max":731,"o":"m 690 0 l 139 0 l 139 972 l 686 972 l 726 851 l 274 851 l 274 554 l 653 554 l 653 435 l 274 435 l 274 121 l 731 121 l 690 0 m 664 1264 l 664 1261 l 489 1068 l 367 1068 l 192 1261 l 192 1264 l 263 1264 l 426 1160 l 590 1264 l 664 1264 z "},"Ĕ":{"ha":811,"x_min":139,"x_max":731,"o":"m 690 0 l 139 0 l 139 972 l 686 972 l 726 851 l 274 851 l 274 554 l 653 554 l 653 435 l 274 435 l 274 121 l 731 121 l 690 0 m 428 1072 q 288 1113 350 1072 q 178 1239 226 1154 l 231 1278 q 330 1198 285 1221 q 428 1175 375 1175 q 526 1198 481 1175 q 625 1278 571 1221 l 678 1239 q 567 1113 629 1154 q 428 1072 506 1072 z "},"Ẽ":{"ha":811,"x_min":139,"x_max":731,"o":"m 690 0 l 139 0 l 139 972 l 686 972 l 726 851 l 274 851 l 274 554 l 653 554 l 653 435 l 274 435 l 274 121 l 731 121 l 690 0 m 447 1208 q 507 1178 489 1185 q 536 1171 525 1171 q 572 1185 556 1171 q 638 1261 588 1199 l 692 1222 q 599 1100 632 1129 q 528 1071 567 1071 q 485 1080 510 1071 q 408 1119 461 1089 q 349 1150 367 1143 q 319 1157 331 1157 q 284 1143 300 1157 q 218 1067 268 1129 l 164 1106 q 256 1228 224 1199 q 328 1257 289 1257 q 370 1248 346 1257 q 447 1208 394 1239 z "},"Ē":{"ha":811,"x_min":139,"x_max":731,"o":"m 690 0 l 139 0 l 139 972 l 686 972 l 726 851 l 274 851 l 274 554 l 653 554 l 653 435 l 274 435 l 274 121 l 731 121 l 690 0 m 181 1106 l 181 1200 l 675 1200 l 675 1106 l 181 1106 z "},"Ë":{"ha":811,"x_min":139,"x_max":731,"o":"m 690 0 l 139 0 l 139 972 l 686 972 l 726 851 l 274 851 l 274 554 l 653 554 l 653 435 l 274 435 l 274 121 l 731 121 l 690 0 m 283 1244 q 345 1219 319 1244 q 371 1157 371 1193 q 345 1095 371 1121 q 283 1069 319 1069 q 221 1094 246 1069 q 196 1157 196 1119 q 221 1219 196 1194 q 283 1244 246 1244 m 572 1244 q 635 1219 610 1244 q 660 1157 660 1194 q 635 1094 660 1119 q 572 1069 610 1069 q 510 1095 536 1069 q 485 1157 485 1121 q 510 1219 485 1193 q 572 1244 536 1244 z "},"Ė":{"ha":811,"x_min":139,"x_max":731,"o":"m 690 0 l 139 0 l 139 972 l 686 972 l 726 851 l 274 851 l 274 554 l 653 554 l 653 435 l 274 435 l 274 121 l 731 121 l 690 0 m 428 1244 q 490 1219 465 1244 q 515 1157 515 1194 q 490 1094 515 1119 q 428 1069 465 1069 q 365 1094 390 1069 q 340 1157 340 1119 q 365 1219 340 1194 q 428 1244 390 1244 z "},"Ẻ":{"ha":811,"x_min":139,"x_max":731,"o":"m 690 0 l 139 0 l 139 972 l 686 972 l 726 851 l 274 851 l 274 554 l 653 554 l 653 435 l 274 435 l 274 121 l 731 121 l 690 0 m 597 1218 q 565 1146 597 1178 q 438 1065 532 1114 l 367 1085 l 367 1088 q 473 1158 447 1136 q 499 1199 499 1179 q 483 1225 499 1215 q 436 1235 467 1235 q 360 1222 399 1235 q 278 1183 321 1210 l 275 1183 l 275 1268 q 358 1304 318 1293 q 443 1315 399 1315 q 556 1290 515 1315 q 597 1218 597 1264 z "},"Ẹ":{"ha":811,"x_min":139,"x_max":731,"o":"m 690 0 l 139 0 l 139 972 l 686 972 l 726 851 l 274 851 l 274 554 l 653 554 l 653 435 l 274 435 l 274 121 l 731 121 l 690 0 m 428 -292 q 367 -267 392 -292 q 342 -206 342 -242 q 367 -144 342 -169 q 428 -119 392 -119 q 489 -144 464 -119 q 514 -206 514 -169 q 489 -266 514 -240 q 428 -292 464 -292 z "},"Ę":{"ha":811,"x_min":139,"x_max":731,"o":"m 722 -200 l 704 -258 q 658 -267 682 -264 q 614 -269 635 -269 q 509 -242 547 -269 q 471 -165 471 -215 q 484 -114 471 -140 q 528 -50 497 -87 l 568 0 l 139 0 l 139 972 l 686 972 l 726 851 l 274 851 l 274 554 l 653 554 l 653 435 l 274 435 l 274 121 l 731 121 l 690 0 l 644 0 l 600 -79 q 582 -119 586 -106 q 578 -144 578 -132 q 605 -187 578 -174 q 690 -200 632 -200 l 722 -200 z "},"Ĝ":{"ha":1104,"x_min":76,"x_max":975,"o":"m 975 506 l 975 107 q 783 15 879 43 q 576 -14 688 -14 q 215 123 354 -14 q 76 483 76 260 q 227 844 76 703 q 610 986 378 986 q 786 966 704 986 q 950 903 868 946 l 950 754 l 947 754 q 773 834 856 808 q 606 860 690 860 q 326 752 439 860 q 214 486 214 644 q 317 215 214 318 q 583 111 419 111 q 722 126 658 111 q 843 175 785 142 l 843 383 l 564 383 l 564 506 l 975 506 m 817 1072 l 746 1072 l 582 1176 l 418 1072 l 344 1072 l 344 1074 l 519 1268 l 642 1268 l 817 1074 l 817 1072 z "},"Ǧ":{"ha":1104,"x_min":76,"x_max":975,"o":"m 975 506 l 975 107 q 783 15 879 43 q 576 -14 688 -14 q 215 123 354 -14 q 76 483 76 260 q 227 844 76 703 q 610 986 378 986 q 786 966 704 986 q 950 903 868 946 l 950 754 l 947 754 q 773 834 856 808 q 606 860 690 860 q 326 752 439 860 q 214 486 214 644 q 317 215 214 318 q 583 111 419 111 q 722 126 658 111 q 843 175 785 142 l 843 383 l 564 383 l 564 506 l 975 506 m 817 1271 l 817 1268 l 642 1075 l 519 1075 l 344 1268 l 344 1271 l 415 1271 l 579 1167 l 743 1271 l 817 1271 z "},"Ğ":{"ha":1104,"x_min":76,"x_max":975,"o":"m 975 506 l 975 107 q 783 15 879 43 q 576 -14 688 -14 q 215 123 354 -14 q 76 483 76 260 q 227 844 76 703 q 610 986 378 986 q 786 966 704 986 q 950 903 868 946 l 950 754 l 947 754 q 773 834 856 808 q 606 860 690 860 q 326 752 439 860 q 214 486 214 644 q 317 215 214 318 q 583 111 419 111 q 722 126 658 111 q 843 175 785 142 l 843 383 l 564 383 l 564 506 l 975 506 m 581 1079 q 441 1120 503 1079 q 331 1246 379 1161 l 383 1285 q 483 1205 438 1228 q 581 1182 528 1182 q 678 1205 633 1182 q 778 1285 724 1228 l 831 1246 q 720 1120 782 1161 q 581 1079 658 1079 z "},"Ḡ":{"ha":1104,"x_min":76,"x_max":975,"o":"m 975 506 l 975 107 q 783 15 879 43 q 576 -14 688 -14 q 215 123 354 -14 q 76 483 76 260 q 227 844 76 703 q 610 986 378 986 q 786 966 704 986 q 950 903 868 946 l 950 754 l 947 754 q 773 834 856 808 q 606 860 690 860 q 326 752 439 860 q 214 486 214 644 q 317 215 214 318 q 583 111 419 111 q 722 126 658 111 q 843 175 785 142 l 843 383 l 564 383 l 564 506 l 975 506 m 333 1113 l 333 1207 l 828 1207 l 828 1113 l 333 1113 z "},"Ġ":{"ha":1104,"x_min":76,"x_max":975,"o":"m 975 506 l 975 107 q 783 15 879 43 q 576 -14 688 -14 q 215 123 354 -14 q 76 483 76 260 q 227 844 76 703 q 610 986 378 986 q 786 966 704 986 q 950 903 868 946 l 950 754 l 947 754 q 773 834 856 808 q 606 860 690 860 q 326 752 439 860 q 214 486 214 644 q 317 215 214 318 q 583 111 419 111 q 722 126 658 111 q 843 175 785 142 l 843 383 l 564 383 l 564 506 l 975 506 m 581 1251 q 643 1226 618 1251 q 668 1164 668 1201 q 643 1101 668 1126 q 581 1076 618 1076 q 518 1101 543 1076 q 493 1164 493 1126 q 518 1226 493 1201 q 581 1251 543 1251 z "},"Ģ":{"ha":1104,"x_min":76,"x_max":975,"o":"m 975 506 l 975 107 q 783 15 879 43 q 576 -14 688 -14 q 215 123 354 -14 q 76 483 76 260 q 227 844 76 703 q 610 986 378 986 q 786 966 704 986 q 950 903 868 946 l 950 754 l 947 754 q 773 834 856 808 q 606 860 690 860 q 326 752 439 860 q 214 486 214 644 q 317 215 214 318 q 583 111 419 111 q 722 126 658 111 q 843 175 785 142 l 843 383 l 564 383 l 564 506 l 975 506 m 692 -215 q 656 -285 692 -251 q 539 -360 621 -319 l 469 -333 l 469 -331 q 542 -279 521 -300 q 564 -239 564 -258 q 544 -206 564 -221 q 467 -164 524 -190 l 467 -160 l 599 -121 q 669 -162 647 -140 q 692 -215 692 -185 z "},"Ĥ":{"ha":1133,"x_min":139,"x_max":993,"o":"m 993 0 l 860 0 l 860 435 l 274 435 l 274 0 l 139 0 l 139 972 l 274 972 l 274 558 l 860 558 l 860 972 l 993 972 l 993 0 m 803 1072 l 732 1072 l 568 1176 l 404 1072 l 331 1072 l 331 1074 l 506 1268 l 628 1268 l 803 1074 l 803 1072 z "},"Ḫ":{"ha":1133,"x_min":139,"x_max":993,"o":"m 993 0 l 860 0 l 860 435 l 274 435 l 274 0 l 139 0 l 139 972 l 274 972 l 274 558 l 860 558 l 860 972 l 993 972 l 993 0 m 567 -356 q 435 -308 493 -356 q 329 -164 376 -261 l 392 -129 q 480 -220 439 -193 q 567 -247 521 -247 q 653 -220 613 -247 q 742 -129 694 -193 l 804 -164 q 699 -308 757 -261 q 567 -356 640 -356 z "},"Ḥ":{"ha":1133,"x_min":139,"x_max":993,"o":"m 993 0 l 860 0 l 860 435 l 274 435 l 274 0 l 139 0 l 139 972 l 274 972 l 274 558 l 860 558 l 860 972 l 993 972 l 993 0 m 567 -283 q 506 -258 531 -283 q 481 -197 481 -233 q 506 -136 481 -161 q 567 -111 531 -111 q 628 -136 603 -111 q 653 -197 653 -161 q 628 -258 653 -232 q 567 -283 603 -283 z "},"Ḩ":{"ha":1133,"x_min":49,"x_max":993,"o":"m 332 -161 q 288 -241 332 -211 q 169 -271 243 -271 q 127 -268 147 -271 q 83 -260 107 -265 l 49 -194 l 51 -190 q 108 -206 85 -201 q 157 -210 132 -210 q 215 -198 193 -210 q 236 -167 236 -186 q 219 -137 236 -147 q 167 -128 201 -128 q 144 -128 156 -128 q 103 -133 132 -129 l 97 -128 l 172 0 l 139 0 l 139 972 l 274 972 l 274 558 l 860 558 l 860 972 l 993 972 l 993 0 l 860 0 l 860 435 l 274 435 l 274 0 l 250 0 l 206 -69 q 300 -95 268 -72 q 332 -161 332 -118 z "},"Ħ":{"ha":1189,"x_min":33,"x_max":1156,"o":"m 1021 0 l 888 0 l 888 386 l 301 386 l 301 0 l 167 0 l 167 719 l 33 719 l 33 815 l 167 815 l 167 972 l 301 972 l 301 815 l 888 815 l 888 972 l 1021 972 l 1021 815 l 1156 815 l 1156 719 l 1021 719 l 1021 0 m 301 721 l 301 510 l 888 510 l 888 721 l 301 721 z "},"Í":{"ha":426,"x_min":146,"x_max":474,"o":"m 281 0 l 146 0 l 146 972 l 281 972 l 281 0 m 243 1072 l 175 1072 l 289 1268 l 474 1268 l 474 1265 l 243 1072 z "},"Ì":{"ha":426,"x_min":-46,"x_max":281,"o":"m 281 0 l 146 0 l 146 972 l 281 972 l 281 0 m 139 1268 l 253 1072 l 185 1072 l -46 1265 l -46 1268 l 139 1268 z "},"Î":{"ha":426,"x_min":-22,"x_max":450,"o":"m 281 0 l 146 0 l 146 972 l 281 972 l 281 0 m 450 1067 l 379 1067 l 215 1171 l 51 1067 l -22 1067 l -22 1068 l 153 1263 l 275 1263 l 450 1068 l 450 1067 z "},"Ǐ":{"ha":426,"x_min":-22,"x_max":450,"o":"m 281 0 l 146 0 l 146 972 l 281 972 l 281 0 m 450 1264 l 450 1261 l 275 1068 l 153 1068 l -22 1261 l -22 1264 l 49 1264 l 213 1160 l 376 1264 l 450 1264 z "},"Ĭ":{"ha":426,"x_min":-36,"x_max":464,"o":"m 281 0 l 146 0 l 146 972 l 281 972 l 281 0 m 214 1072 q 74 1113 136 1072 q -36 1239 13 1154 l 17 1278 q 116 1198 71 1221 q 214 1175 161 1175 q 312 1198 267 1175 q 411 1278 357 1221 l 464 1239 q 353 1113 415 1154 q 214 1072 292 1072 z "},"Ĩ":{"ha":426,"x_min":-50,"x_max":478,"o":"m 281 0 l 146 0 l 146 972 l 281 972 l 281 0 m 233 1208 q 293 1178 275 1185 q 322 1171 311 1171 q 358 1185 342 1171 q 424 1261 374 1199 l 478 1222 q 385 1100 418 1129 q 314 1071 353 1071 q 272 1080 296 1071 q 194 1119 247 1089 q 135 1150 153 1143 q 106 1157 117 1157 q 70 1143 86 1157 q 4 1067 54 1129 l -50 1106 q 42 1228 10 1199 q 114 1257 75 1257 q 156 1248 132 1257 q 233 1208 181 1239 z "},"Ī":{"ha":426,"x_min":22,"x_max":406,"o":"m 281 0 l 146 0 l 146 972 l 281 972 l 281 0 m 22 1106 l 22 1200 l 406 1200 l 406 1106 l 22 1106 z "},"Ï":{"ha":426,"x_min":-18,"x_max":446,"o":"m 281 0 l 146 0 l 146 972 l 281 972 l 281 0 m 69 1244 q 131 1219 106 1244 q 157 1157 157 1193 q 131 1095 157 1121 q 69 1069 106 1069 q 7 1094 32 1069 q -18 1157 -18 1119 q 7 1219 -18 1194 q 69 1244 32 1244 m 358 1244 q 421 1219 396 1244 q 446 1157 446 1194 q 421 1094 446 1119 q 358 1069 396 1069 q 297 1095 322 1069 q 271 1157 271 1121 q 297 1219 271 1193 q 358 1244 322 1244 z "},"İ":{"ha":426,"x_min":126,"x_max":301,"o":"m 281 0 l 146 0 l 146 972 l 281 972 l 281 0 m 214 1244 q 276 1219 251 1244 q 301 1157 301 1194 q 276 1094 301 1119 q 214 1069 251 1069 q 151 1094 176 1069 q 126 1157 126 1119 q 151 1219 126 1194 q 214 1244 176 1244 z "},"Ỉ":{"ha":426,"x_min":61,"x_max":383,"o":"m 281 0 l 146 0 l 146 972 l 281 972 l 281 0 m 383 1218 q 351 1146 383 1178 q 224 1065 318 1114 l 153 1085 l 153 1088 q 259 1158 233 1136 q 285 1199 285 1179 q 269 1225 285 1215 q 222 1235 253 1235 q 146 1222 185 1235 q 64 1183 107 1210 l 61 1183 l 61 1268 q 144 1304 104 1293 q 229 1315 185 1315 q 342 1290 301 1315 q 383 1218 383 1264 z "},"Ị":{"ha":426,"x_min":128,"x_max":300,"o":"m 281 0 l 146 0 l 146 972 l 281 972 l 281 0 m 214 -292 q 153 -267 178 -292 q 128 -206 128 -242 q 153 -144 128 -169 q 214 -119 178 -119 q 275 -144 250 -119 q 300 -206 300 -169 q 275 -266 300 -240 q 214 -292 250 -292 z "},"Į":{"ha":426,"x_min":81,"x_max":333,"o":"m 333 -200 l 315 -258 q 267 -267 290 -264 q 225 -269 244 -269 q 119 -242 157 -269 q 81 -165 81 -215 q 94 -114 81 -140 q 138 -50 107 -87 l 178 0 l 146 0 l 146 972 l 281 972 l 281 0 l 256 0 l 211 -79 q 194 -115 199 -101 q 189 -144 189 -129 q 215 -187 189 -174 q 301 -200 242 -200 l 333 -200 z "},"Ĵ":{"ha":638,"x_min":43,"x_max":676,"o":"m 224 111 q 332 153 293 111 q 371 274 371 196 l 371 972 l 506 972 l 506 257 q 435 58 506 131 q 244 -14 365 -14 q 155 -2 197 -14 q 75 35 113 10 l 43 186 l 46 188 q 138 130 94 149 q 224 111 181 111 m 676 1067 l 606 1067 l 442 1171 l 278 1067 l 204 1067 l 204 1068 l 379 1263 l 501 1263 l 676 1068 l 676 1067 z "},"Ḵ":{"ha":958,"x_min":139,"x_max":944,"o":"m 944 0 l 767 0 l 306 439 l 274 439 l 274 0 l 139 0 l 139 972 l 274 972 l 274 554 l 307 554 l 764 972 l 939 972 l 939 969 l 414 500 l 944 3 l 944 0 m 283 -249 l 283 -154 l 750 -154 l 750 -249 l 283 -249 z "},"Ķ":{"ha":958,"x_min":139,"x_max":944,"o":"m 944 0 l 767 0 l 306 439 l 274 439 l 274 0 l 139 0 l 139 972 l 274 972 l 274 554 l 307 554 l 764 972 l 939 972 l 939 969 l 414 500 l 944 3 l 944 0 m 632 -201 q 597 -272 632 -237 q 479 -346 561 -306 l 410 -319 l 410 -317 q 483 -265 461 -286 q 504 -225 504 -244 q 484 -192 504 -207 q 407 -150 464 -176 l 407 -146 l 539 -107 q 610 -149 588 -126 q 632 -201 632 -171 z "},"Ḳ":{"ha":958,"x_min":139,"x_max":944,"o":"m 944 0 l 767 0 l 306 439 l 274 439 l 274 0 l 139 0 l 139 972 l 274 972 l 274 554 l 307 554 l 764 972 l 939 972 l 939 969 l 414 500 l 944 3 l 944 0 m 517 -285 q 456 -260 481 -285 q 431 -199 431 -235 q 456 -137 431 -162 q 517 -112 481 -112 q 578 -137 553 -112 q 603 -199 603 -162 q 578 -259 603 -233 q 517 -285 553 -285 z "},"Ĺ":{"ha":746,"x_min":139,"x_max":692,"o":"m 692 0 l 139 0 l 139 972 l 274 972 l 274 121 l 692 121 l 692 0 m 243 1072 l 175 1072 l 289 1268 l 474 1268 l 474 1265 l 243 1072 z "},"Ľ":{"ha":746,"x_min":139,"x_max":692,"o":"m 692 0 l 139 0 l 139 972 l 274 972 l 274 121 l 692 121 l 692 0 m 431 761 l 371 761 q 398 832 389 797 q 407 900 407 867 q 398 970 407 936 q 371 1040 389 1004 l 490 1040 q 501 995 497 1017 q 504 953 504 974 q 485 856 504 904 q 431 761 467 808 z "},"Ļ":{"ha":746,"x_min":139,"x_max":692,"o":"m 692 0 l 139 0 l 139 972 l 274 972 l 274 121 l 692 121 l 692 0 m 531 -208 q 495 -278 531 -244 q 378 -353 460 -312 l 308 -326 l 308 -324 q 381 -272 360 -293 q 403 -232 403 -251 q 383 -199 403 -214 q 306 -157 363 -183 l 306 -153 l 438 -114 q 508 -156 486 -133 q 531 -208 531 -178 z "},"Ḽ":{"ha":746,"x_min":139,"x_max":692,"o":"m 692 0 l 139 0 l 139 972 l 274 972 l 274 121 l 692 121 l 692 0 m 650 -354 l 592 -354 l 417 -221 l 242 -354 l 181 -354 l 181 -353 l 358 -119 l 472 -119 l 650 -353 l 650 -354 z "},"Ḻ":{"ha":746,"x_min":139,"x_max":692,"o":"m 692 0 l 139 0 l 139 972 l 274 972 l 274 121 l 692 121 l 692 0 m 182 -249 l 182 -154 l 649 -154 l 649 -249 l 182 -249 z "},"Ḹ":{"ha":746,"x_min":15,"x_max":692,"o":"m 692 0 l 139 0 l 139 972 l 274 972 l 274 121 l 692 121 l 692 0 m 15 1106 l 15 1200 l 399 1200 l 399 1106 l 15 1106 m 415 -292 q 354 -267 379 -292 q 329 -206 329 -242 q 354 -144 329 -169 q 415 -119 379 -119 q 476 -144 451 -119 q 501 -206 501 -169 q 476 -266 501 -240 q 415 -292 451 -292 z "},"Ḷ":{"ha":746,"x_min":139,"x_max":692,"o":"m 692 0 l 139 0 l 139 972 l 274 972 l 274 121 l 692 121 l 692 0 m 415 -292 q 354 -267 379 -292 q 329 -206 329 -242 q 354 -144 329 -169 q 415 -119 379 -119 q 476 -144 451 -119 q 501 -206 501 -169 q 476 -266 501 -240 q 415 -292 451 -292 z "},"Ł":{"ha":774,"x_min":33,"x_max":719,"o":"m 301 121 l 719 121 l 719 0 l 167 0 l 167 353 l 36 258 l 33 258 l 33 376 l 167 472 l 167 972 l 301 972 l 301 554 l 529 717 l 532 717 l 532 599 l 301 435 l 301 121 z "},"Ḿ":{"ha":1429,"x_min":139,"x_max":1289,"o":"m 139 972 l 338 972 l 713 225 l 1086 972 l 1289 972 l 1289 0 l 1158 0 l 1158 844 l 722 -15 l 701 -15 l 265 838 l 265 0 l 139 0 l 139 972 m 743 1050 l 675 1050 l 789 1246 l 974 1246 l 974 1243 l 743 1050 z "},"Ṁ":{"ha":1429,"x_min":139,"x_max":1289,"o":"m 139 972 l 338 972 l 713 225 l 1086 972 l 1289 972 l 1289 0 l 1158 0 l 1158 844 l 722 -15 l 701 -15 l 265 838 l 265 0 l 139 0 l 139 972 m 714 1222 q 776 1197 751 1222 q 801 1135 801 1172 q 776 1072 801 1097 q 714 1047 751 1047 q 651 1072 676 1047 q 626 1135 626 1097 q 651 1197 626 1172 q 714 1222 676 1222 z "},"Ṃ":{"ha":1429,"x_min":139,"x_max":1289,"o":"m 139 972 l 338 972 l 713 225 l 1086 972 l 1289 972 l 1289 0 l 1158 0 l 1158 844 l 722 -15 l 701 -15 l 265 838 l 265 0 l 139 0 l 139 972 m 713 -292 q 651 -267 676 -292 q 626 -206 626 -242 q 651 -144 626 -169 q 713 -119 676 -119 q 774 -144 749 -119 q 799 -206 799 -169 q 774 -266 799 -240 q 713 -292 749 -292 z "},"Ń":{"ha":1143,"x_min":139,"x_max":1003,"o":"m 267 0 l 139 0 l 139 972 l 263 972 l 876 274 l 876 972 l 1003 972 l 1003 -7 l 957 -7 l 267 779 l 267 0 m 603 1057 l 535 1057 l 649 1253 l 833 1253 l 833 1250 l 603 1057 z "},"Ǹ":{"ha":1143,"x_min":139,"x_max":1003,"o":"m 267 0 l 139 0 l 139 972 l 263 972 l 876 274 l 876 972 l 1003 972 l 1003 -7 l 957 -7 l 267 779 l 267 0 m 499 1253 l 613 1057 l 544 1057 l 314 1250 l 314 1253 l 499 1253 z "},"Ň":{"ha":1143,"x_min":139,"x_max":1003,"o":"m 267 0 l 139 0 l 139 972 l 263 972 l 876 274 l 876 972 l 1003 972 l 1003 -7 l 957 -7 l 267 779 l 267 0 m 810 1249 l 810 1246 l 635 1053 l 513 1053 l 338 1246 l 338 1249 l 408 1249 l 572 1144 l 736 1249 l 810 1249 z "},"Ñ":{"ha":1143,"x_min":139,"x_max":1003,"o":"m 267 0 l 139 0 l 139 972 l 263 972 l 876 274 l 876 972 l 1003 972 l 1003 -7 l 957 -7 l 267 779 l 267 0 m 593 1208 q 653 1178 635 1185 q 682 1171 671 1171 q 717 1185 701 1171 q 783 1261 733 1199 l 838 1222 q 745 1100 778 1129 q 674 1071 713 1071 q 631 1080 656 1071 q 554 1119 607 1089 q 494 1150 513 1143 q 465 1157 476 1157 q 430 1143 446 1157 q 364 1067 414 1129 l 310 1106 q 402 1228 369 1199 q 474 1257 435 1257 q 516 1248 492 1257 q 593 1208 540 1239 z "},"Ṅ":{"ha":1143,"x_min":139,"x_max":1003,"o":"m 267 0 l 139 0 l 139 972 l 263 972 l 876 274 l 876 972 l 1003 972 l 1003 -7 l 957 -7 l 267 779 l 267 0 m 574 1229 q 636 1204 611 1229 q 661 1142 661 1179 q 636 1079 661 1104 q 574 1054 611 1054 q 511 1079 536 1054 q 486 1142 486 1104 q 511 1204 486 1179 q 574 1229 536 1229 z "},"Ṋ":{"ha":1143,"x_min":139,"x_max":1003,"o":"m 267 0 l 139 0 l 139 972 l 263 972 l 876 274 l 876 972 l 1003 972 l 1003 -7 l 957 -7 l 267 779 l 267 0 m 818 -339 l 760 -339 l 585 -206 l 410 -339 l 349 -339 l 349 -337 l 526 -104 l 640 -104 l 818 -337 l 818 -339 z "},"Ņ":{"ha":1143,"x_min":139,"x_max":1003,"o":"m 267 0 l 139 0 l 139 972 l 263 972 l 876 274 l 876 972 l 1003 972 l 1003 -7 l 957 -7 l 267 779 l 267 0 m 699 -193 q 663 -263 699 -229 q 546 -337 628 -297 l 476 -311 l 476 -308 q 549 -257 528 -278 q 571 -217 571 -236 q 551 -183 571 -199 q 474 -142 531 -168 l 474 -137 l 606 -99 q 676 -140 654 -118 q 699 -193 699 -162 z "},"Ṇ":{"ha":1143,"x_min":139,"x_max":1003,"o":"m 267 0 l 139 0 l 139 972 l 263 972 l 876 274 l 876 972 l 1003 972 l 1003 -7 l 957 -7 l 267 779 l 267 0 m 583 -276 q 522 -251 547 -276 q 497 -190 497 -226 q 522 -129 497 -154 q 583 -104 547 -104 q 644 -129 619 -104 q 669 -190 669 -154 q 644 -251 669 -225 q 583 -276 619 -276 z "},"Ṉ":{"ha":1143,"x_min":139,"x_max":1003,"o":"m 267 0 l 139 0 l 139 972 l 263 972 l 876 274 l 876 972 l 1003 972 l 1003 -7 l 957 -7 l 267 779 l 267 0 m 350 -249 l 350 -154 l 817 -154 l 817 -249 l 350 -249 z "},"Ŋ":{"ha":1143,"x_min":139,"x_max":1003,"o":"m 267 0 l 139 0 l 139 972 l 263 972 l 876 232 l 876 972 l 1003 972 l 1003 40 q 925 -190 1003 -108 q 710 -272 847 -272 q 660 -269 685 -272 q 615 -260 635 -265 l 593 -140 l 596 -139 q 642 -150 617 -146 q 693 -154 668 -154 q 828 -103 779 -154 q 876 39 876 -53 l 267 776 l 267 0 z "},"Ó":{"ha":1168,"x_min":76,"x_max":1092,"o":"m 583 -19 q 222 126 368 -19 q 76 485 76 272 q 224 845 76 699 q 586 992 371 992 q 946 846 800 992 q 1092 488 1092 700 q 944 127 1092 274 q 583 -19 797 -19 m 581 867 q 321 756 428 867 q 214 488 214 646 q 321 216 214 326 q 583 106 428 106 q 845 216 736 106 q 954 485 954 326 q 845 756 954 644 q 581 867 736 867 m 614 1079 l 546 1079 l 660 1275 l 844 1275 l 844 1272 l 614 1079 z "},"Ő":{"ha":1168,"x_min":76,"x_max":1092,"o":"m 583 -19 q 222 126 368 -19 q 76 485 76 272 q 224 845 76 699 q 586 992 371 992 q 946 846 800 992 q 1092 488 1092 700 q 944 127 1092 274 q 583 -19 797 -19 m 581 867 q 321 756 428 867 q 214 488 214 646 q 321 216 214 326 q 583 106 428 106 q 845 216 736 106 q 954 485 954 326 q 845 756 954 644 q 581 867 736 867 m 465 1079 l 397 1079 l 511 1275 l 683 1275 l 683 1272 l 465 1079 m 728 1079 l 660 1079 l 774 1275 l 946 1275 l 946 1272 l 728 1079 z "},"Ò":{"ha":1168,"x_min":76,"x_max":1092,"o":"m 583 -19 q 222 126 368 -19 q 76 485 76 272 q 224 845 76 699 q 586 992 371 992 q 946 846 800 992 q 1092 488 1092 700 q 944 127 1092 274 q 583 -19 797 -19 m 581 867 q 321 756 428 867 q 214 488 214 646 q 321 216 214 326 q 583 106 428 106 q 845 216 736 106 q 954 485 954 326 q 845 756 954 644 q 581 867 736 867 m 510 1275 l 624 1079 l 556 1079 l 325 1272 l 325 1275 l 510 1275 z "},"Ô":{"ha":1168,"x_min":76,"x_max":1092,"o":"m 583 -19 q 222 126 368 -19 q 76 485 76 272 q 224 845 76 699 q 586 992 371 992 q 946 846 800 992 q 1092 488 1092 700 q 944 127 1092 274 q 583 -19 797 -19 m 581 867 q 321 756 428 867 q 214 488 214 646 q 321 216 214 326 q 583 106 428 106 q 845 216 736 106 q 954 485 954 326 q 845 756 954 644 q 581 867 736 867 m 821 1072 l 750 1072 l 586 1176 l 422 1072 l 349 1072 l 349 1074 l 524 1268 l 646 1268 l 821 1074 l 821 1072 z "},"Ộ":{"ha":1168,"x_min":76,"x_max":1092,"o":"m 583 -19 q 222 126 368 -19 q 76 485 76 272 q 224 845 76 699 q 586 992 371 992 q 946 846 800 992 q 1092 488 1092 700 q 944 127 1092 274 q 583 -19 797 -19 m 581 867 q 321 756 428 867 q 214 488 214 646 q 321 216 214 326 q 583 106 428 106 q 845 216 736 106 q 954 485 954 326 q 845 756 954 644 q 581 867 736 867 m 821 1072 l 750 1072 l 586 1176 l 422 1072 l 349 1072 l 349 1074 l 524 1268 l 646 1268 l 821 1074 l 821 1072 m 585 -299 q 524 -274 549 -299 q 499 -212 499 -249 q 524 -151 499 -176 q 585 -126 549 -126 q 646 -151 621 -126 q 671 -212 671 -176 q 646 -273 671 -247 q 585 -299 621 -299 z "},"Ố":{"ha":1168,"x_min":76,"x_max":1092,"o":"m 583 -19 q 222 126 368 -19 q 76 485 76 272 q 224 845 76 699 q 586 992 371 992 q 946 846 800 992 q 1092 488 1092 700 q 944 127 1092 274 q 583 -19 797 -19 m 581 867 q 321 756 428 867 q 214 488 214 646 q 321 216 214 326 q 583 106 428 106 q 845 216 736 106 q 954 485 954 326 q 845 756 954 644 q 581 867 736 867 m 811 1217 l 744 1217 l 842 1369 l 1014 1369 l 1014 1367 l 811 1217 m 821 1072 l 750 1072 l 586 1158 l 422 1072 l 349 1072 l 349 1074 l 517 1239 l 653 1239 l 821 1074 l 821 1072 z "},"Ồ":{"ha":1168,"x_min":76,"x_max":1092,"o":"m 583 -19 q 222 126 368 -19 q 76 485 76 272 q 224 845 76 699 q 586 992 371 992 q 946 846 800 992 q 1092 488 1092 700 q 944 127 1092 274 q 583 -19 797 -19 m 581 867 q 321 756 428 867 q 214 488 214 646 q 321 216 214 326 q 583 106 428 106 q 845 216 736 106 q 954 485 954 326 q 845 756 954 644 q 581 867 736 867 m 853 1369 l 950 1217 l 882 1217 l 679 1367 l 679 1369 l 853 1369 m 821 1072 l 750 1072 l 586 1158 l 422 1072 l 349 1072 l 349 1074 l 517 1239 l 653 1239 l 821 1074 l 821 1072 z "},"Ổ":{"ha":1168,"x_min":76,"x_max":1092,"o":"m 583 -19 q 222 126 368 -19 q 76 485 76 272 q 224 845 76 699 q 586 992 371 992 q 946 846 800 992 q 1092 488 1092 700 q 944 127 1092 274 q 583 -19 797 -19 m 581 867 q 321 756 428 867 q 214 488 214 646 q 321 216 214 326 q 583 106 428 106 q 845 216 736 106 q 954 485 954 326 q 845 756 954 644 q 581 867 736 867 m 964 1340 q 938 1285 964 1310 q 831 1218 911 1260 l 767 1233 l 767 1236 q 853 1293 831 1275 q 875 1326 875 1311 q 864 1344 875 1338 q 833 1351 853 1351 q 767 1341 801 1351 q 696 1310 733 1331 l 694 1310 l 694 1381 q 766 1409 731 1400 q 843 1418 801 1418 q 931 1397 899 1418 q 964 1340 964 1376 m 821 1072 l 750 1072 l 586 1158 l 422 1072 l 349 1072 l 349 1074 l 517 1239 l 653 1239 l 821 1074 l 821 1072 z "},"Ỗ":{"ha":1168,"x_min":76,"x_max":1092,"o":"m 583 -19 q 222 126 368 -19 q 76 485 76 272 q 224 845 76 699 q 586 992 371 992 q 946 846 800 992 q 1092 488 1092 700 q 944 127 1092 274 q 583 -19 797 -19 m 581 867 q 321 756 428 867 q 214 488 214 646 q 321 216 214 326 q 583 106 428 106 q 845 216 736 106 q 954 485 954 326 q 845 756 954 644 q 581 867 736 867 m 613 1410 q 667 1384 651 1390 q 693 1378 683 1378 q 727 1391 711 1378 q 783 1454 743 1404 l 832 1418 q 749 1313 778 1338 q 686 1288 721 1288 q 649 1295 671 1288 q 578 1328 626 1303 q 524 1353 539 1347 q 499 1360 508 1360 q 465 1347 481 1360 q 408 1283 449 1333 l 358 1319 q 442 1425 414 1400 q 506 1450 471 1450 q 543 1442 521 1450 q 613 1410 565 1435 m 821 1072 l 750 1072 l 586 1158 l 422 1072 l 349 1072 l 349 1074 l 517 1239 l 653 1239 l 821 1074 l 821 1072 z "},"Ǒ":{"ha":1168,"x_min":76,"x_max":1092,"o":"m 583 -19 q 222 126 368 -19 q 76 485 76 272 q 224 845 76 699 q 586 992 371 992 q 946 846 800 992 q 1092 488 1092 700 q 944 127 1092 274 q 583 -19 797 -19 m 581 867 q 321 756 428 867 q 214 488 214 646 q 321 216 214 326 q 583 106 428 106 q 845 216 736 106 q 954 485 954 326 q 845 756 954 644 q 581 867 736 867 m 821 1271 l 821 1268 l 646 1075 l 524 1075 l 349 1268 l 349 1271 l 419 1271 l 583 1167 l 747 1271 l 821 1271 z "},"Ŏ":{"ha":1168,"x_min":76,"x_max":1092,"o":"m 583 -19 q 222 126 368 -19 q 76 485 76 272 q 224 845 76 699 q 586 992 371 992 q 946 846 800 992 q 1092 488 1092 700 q 944 127 1092 274 q 583 -19 797 -19 m 581 867 q 321 756 428 867 q 214 488 214 646 q 321 216 214 326 q 583 106 428 106 q 845 216 736 106 q 954 485 954 326 q 845 756 954 644 q 581 867 736 867 m 585 1079 q 445 1120 507 1079 q 335 1246 383 1161 l 388 1285 q 487 1205 442 1228 q 585 1182 532 1182 q 683 1205 638 1182 q 782 1285 728 1228 l 835 1246 q 724 1120 786 1161 q 585 1079 663 1079 z "},"Õ":{"ha":1168,"x_min":76,"x_max":1092,"o":"m 583 -19 q 222 126 368 -19 q 76 485 76 272 q 224 845 76 699 q 586 992 371 992 q 946 846 800 992 q 1092 488 1092 700 q 944 127 1092 274 q 583 -19 797 -19 m 581 867 q 321 756 428 867 q 214 488 214 646 q 321 216 214 326 q 583 106 428 106 q 845 216 736 106 q 954 485 954 326 q 845 756 954 644 q 581 867 736 867 m 604 1215 q 664 1185 646 1192 q 693 1178 682 1178 q 728 1192 713 1178 q 794 1268 744 1206 l 849 1229 q 756 1107 789 1136 q 685 1078 724 1078 q 642 1087 667 1078 q 565 1126 618 1096 q 506 1157 524 1150 q 476 1164 488 1164 q 441 1150 457 1164 q 375 1074 425 1136 l 321 1113 q 413 1235 381 1206 q 485 1264 446 1264 q 527 1255 503 1264 q 604 1215 551 1246 z "},"Ō":{"ha":1168,"x_min":76,"x_max":1092,"o":"m 583 -19 q 222 126 368 -19 q 76 485 76 272 q 224 845 76 699 q 586 992 371 992 q 946 846 800 992 q 1092 488 1092 700 q 944 127 1092 274 q 583 -19 797 -19 m 581 867 q 321 756 428 867 q 214 488 214 646 q 321 216 214 326 q 583 106 428 106 q 845 216 736 106 q 954 485 954 326 q 845 756 954 644 q 581 867 736 867 m 338 1113 l 338 1207 l 832 1207 l 832 1113 l 338 1113 z "},"Ö":{"ha":1168,"x_min":76,"x_max":1092,"o":"m 583 -19 q 222 126 368 -19 q 76 485 76 272 q 224 845 76 699 q 586 992 371 992 q 946 846 800 992 q 1092 488 1092 700 q 944 127 1092 274 q 583 -19 797 -19 m 581 867 q 321 756 428 867 q 214 488 214 646 q 321 216 214 326 q 583 106 428 106 q 845 216 736 106 q 954 485 954 326 q 845 756 954 644 q 581 867 736 867 m 440 1251 q 502 1226 476 1251 q 528 1164 528 1200 q 502 1102 528 1128 q 440 1076 476 1076 q 378 1101 403 1076 q 353 1164 353 1126 q 378 1226 353 1201 q 440 1251 403 1251 m 729 1251 q 792 1226 767 1251 q 817 1164 817 1201 q 792 1101 817 1126 q 729 1076 767 1076 q 667 1102 693 1076 q 642 1164 642 1128 q 667 1226 642 1200 q 729 1251 693 1251 z "},"Ȯ":{"ha":1168,"x_min":76,"x_max":1092,"o":"m 583 -19 q 222 126 368 -19 q 76 485 76 272 q 224 845 76 699 q 586 992 371 992 q 946 846 800 992 q 1092 488 1092 700 q 944 127 1092 274 q 583 -19 797 -19 m 581 867 q 321 756 428 867 q 214 488 214 646 q 321 216 214 326 q 583 106 428 106 q 845 216 736 106 q 954 485 954 326 q 845 756 954 644 q 581 867 736 867 m 585 1251 q 647 1226 622 1251 q 672 1164 672 1201 q 647 1101 672 1126 q 585 1076 622 1076 q 522 1101 547 1076 q 497 1164 497 1126 q 522 1226 497 1201 q 585 1251 547 1251 z "},"Ỏ":{"ha":1168,"x_min":76,"x_max":1092,"o":"m 583 -19 q 222 126 368 -19 q 76 485 76 272 q 224 845 76 699 q 586 992 371 992 q 946 846 800 992 q 1092 488 1092 700 q 944 127 1092 274 q 583 -19 797 -19 m 581 867 q 321 756 428 867 q 214 488 214 646 q 321 216 214 326 q 583 106 428 106 q 845 216 736 106 q 954 485 954 326 q 845 756 954 644 q 581 867 736 867 m 754 1225 q 722 1153 754 1185 q 594 1072 689 1121 l 524 1092 l 524 1094 q 630 1165 604 1143 q 656 1206 656 1186 q 640 1232 656 1222 q 593 1242 624 1242 q 517 1229 556 1242 q 435 1190 478 1217 l 432 1190 l 432 1275 q 515 1311 475 1300 q 600 1322 556 1322 q 713 1297 672 1322 q 754 1225 754 1271 z "},"Ọ":{"ha":1168,"x_min":76,"x_max":1092,"o":"m 583 -19 q 222 126 368 -19 q 76 485 76 272 q 224 845 76 699 q 586 992 371 992 q 946 846 800 992 q 1092 488 1092 700 q 944 127 1092 274 q 583 -19 797 -19 m 581 867 q 321 756 428 867 q 214 488 214 646 q 321 216 214 326 q 583 106 428 106 q 845 216 736 106 q 954 485 954 326 q 845 756 954 644 q 581 867 736 867 m 585 -299 q 524 -274 549 -299 q 499 -212 499 -249 q 524 -151 499 -176 q 585 -126 549 -126 q 646 -151 621 -126 q 671 -212 671 -176 q 646 -273 671 -247 q 585 -299 621 -299 z "},"Ǫ":{"ha":1168,"x_min":76,"x_max":1092,"o":"m 715 -207 l 697 -265 q 649 -274 672 -271 q 606 -276 626 -276 q 501 -249 539 -276 q 463 -172 463 -222 q 476 -121 463 -147 q 519 -57 489 -94 l 550 -18 q 212 138 347 -7 q 76 485 76 282 q 224 845 76 699 q 586 992 371 992 q 946 846 800 992 q 1092 488 1092 700 q 960 144 1092 288 q 631 -18 829 0 l 592 -86 q 575 -123 579 -110 q 571 -151 571 -136 q 597 -194 571 -181 q 683 -207 624 -207 l 715 -207 m 581 867 q 321 756 428 867 q 214 488 214 646 q 321 216 214 326 q 583 106 428 106 q 845 216 736 106 q 954 485 954 326 q 845 756 954 644 q 581 867 736 867 z "},"Ø":{"ha":1168,"x_min":51,"x_max":1117,"o":"m 1092 488 q 944 127 1092 274 q 583 -19 797 -19 q 431 3 504 -19 q 294 68 358 25 l 186 -60 l 51 -60 l 217 135 q 113 295 149 204 q 76 485 76 386 q 224 845 76 699 q 586 992 371 992 q 737 969 664 992 q 874 904 810 947 l 983 1032 l 1117 1032 l 950 839 q 1055 678 1018 768 q 1092 488 1092 588 m 588 872 q 318 760 428 872 q 208 481 208 647 q 231 343 208 408 q 299 226 254 278 l 793 813 q 697 857 749 842 q 588 872 644 872 m 581 100 q 850 213 740 100 q 960 492 960 325 q 937 631 960 565 q 869 746 914 696 l 374 160 q 472 115 419 131 q 581 100 525 100 z "},"Ǿ":{"ha":1168,"x_min":51,"x_max":1117,"o":"m 1092 488 q 944 127 1092 274 q 583 -19 797 -19 q 431 3 504 -19 q 294 68 358 25 l 186 -60 l 51 -60 l 217 135 q 113 295 149 204 q 76 485 76 386 q 224 845 76 699 q 586 992 371 992 q 737 969 664 992 q 874 904 810 947 l 983 1032 l 1117 1032 l 950 839 q 1055 678 1018 768 q 1092 488 1092 588 m 588 872 q 318 760 428 872 q 208 481 208 647 q 231 343 208 408 q 299 226 254 278 l 793 813 q 697 857 749 842 q 588 872 644 872 m 581 100 q 850 213 740 100 q 960 492 960 325 q 937 631 960 565 q 869 746 914 696 l 374 160 q 472 115 419 131 q 581 100 525 100 m 614 1079 l 546 1079 l 660 1275 l 844 1275 l 844 1272 l 614 1079 z "},"Œ":{"ha":1404,"x_min":78,"x_max":1325,"o":"m 78 483 q 231 837 78 701 q 626 972 385 972 l 1281 972 l 1321 851 l 867 851 l 867 554 l 1246 554 l 1246 435 l 867 435 l 867 121 l 1325 121 l 1285 0 l 626 0 q 226 131 375 0 q 78 483 78 261 m 215 486 q 327 220 215 318 q 629 122 439 122 l 733 122 l 733 850 l 624 850 q 329 749 443 850 q 215 486 215 649 z "},"Ơ":{"ha":1168,"x_min":76,"x_max":1099,"o":"m 874 889 q 1034 715 976 821 q 1092 485 1092 608 q 944 126 1092 272 q 583 -19 797 -19 q 223 125 369 -19 q 76 481 76 269 q 224 839 76 694 q 593 983 372 983 q 636 982 614 983 q 703 978 658 981 q 769 974 747 975 q 811 972 792 972 q 942 1000 903 972 q 981 1092 981 1028 q 978 1129 981 1111 q 969 1168 975 1147 l 1088 1168 q 1096 1136 1093 1154 q 1099 1097 1099 1118 q 1040 951 1099 1006 q 874 889 982 897 m 581 861 q 321 752 428 861 q 214 485 214 643 q 321 215 214 325 q 583 106 428 106 q 845 215 736 106 q 954 483 954 325 q 845 751 954 642 q 581 861 736 861 z "},"Ớ":{"ha":1168,"x_min":76,"x_max":1099,"o":"m 874 889 q 1034 715 976 821 q 1092 485 1092 608 q 944 126 1092 272 q 583 -19 797 -19 q 223 125 369 -19 q 76 481 76 269 q 224 839 76 694 q 593 983 372 983 q 636 982 614 983 q 703 978 658 981 q 769 974 747 975 q 811 972 792 972 q 942 1000 903 972 q 981 1092 981 1028 q 978 1129 981 1111 q 969 1168 975 1147 l 1088 1168 q 1096 1136 1093 1154 q 1099 1097 1099 1118 q 1040 951 1099 1006 q 874 889 982 897 m 581 861 q 321 752 428 861 q 214 485 214 643 q 321 215 214 325 q 583 106 428 106 q 845 215 736 106 q 954 483 954 325 q 845 751 954 642 q 581 861 736 861 m 614 1079 l 546 1079 l 660 1275 l 844 1275 l 844 1272 l 614 1079 z "},"Ờ":{"ha":1168,"x_min":76,"x_max":1099,"o":"m 874 889 q 1034 715 976 821 q 1092 485 1092 608 q 944 126 1092 272 q 583 -19 797 -19 q 223 125 369 -19 q 76 481 76 269 q 224 839 76 694 q 593 983 372 983 q 636 982 614 983 q 703 978 658 981 q 769 974 747 975 q 811 972 792 972 q 942 1000 903 972 q 981 1092 981 1028 q 978 1129 981 1111 q 969 1168 975 1147 l 1088 1168 q 1096 1136 1093 1154 q 1099 1097 1099 1118 q 1040 951 1099 1006 q 874 889 982 897 m 581 861 q 321 752 428 861 q 214 485 214 643 q 321 215 214 325 q 583 106 428 106 q 845 215 736 106 q 954 483 954 325 q 845 751 954 642 q 581 861 736 861 m 510 1275 l 624 1079 l 556 1079 l 325 1272 l 325 1275 l 510 1275 z "},"Ỡ":{"ha":1168,"x_min":76,"x_max":1099,"o":"m 603 1215 q 664 1185 646 1192 q 693 1178 682 1178 q 729 1194 713 1178 q 793 1268 746 1210 l 847 1229 q 755 1106 786 1135 q 685 1078 724 1078 q 642 1087 667 1078 q 565 1126 617 1096 q 504 1157 522 1150 q 475 1164 486 1164 q 439 1148 456 1164 q 375 1074 422 1132 l 321 1113 q 413 1235 382 1207 q 483 1264 444 1264 q 526 1255 501 1264 q 603 1215 551 1246 m 874 889 q 1034 715 976 821 q 1092 485 1092 608 q 944 126 1092 272 q 583 -19 797 -19 q 223 125 369 -19 q 76 481 76 269 q 224 839 76 694 q 593 983 372 983 q 636 982 614 983 q 703 978 658 981 q 769 974 747 975 q 811 972 792 972 q 942 1000 903 972 q 981 1092 981 1028 q 978 1129 981 1111 q 969 1168 975 1147 l 1088 1168 q 1096 1136 1093 1154 q 1099 1097 1099 1118 q 1040 951 1099 1006 q 874 889 982 897 m 581 861 q 321 752 428 861 q 214 485 214 643 q 321 215 214 325 q 583 106 428 106 q 845 215 736 106 q 954 483 954 325 q 845 751 954 642 q 581 861 736 861 z "},"Ở":{"ha":1168,"x_min":76,"x_max":1099,"o":"m 874 889 q 1034 715 976 821 q 1092 485 1092 608 q 944 126 1092 272 q 583 -19 797 -19 q 223 125 369 -19 q 76 481 76 269 q 224 839 76 694 q 593 983 372 983 q 636 982 614 983 q 703 978 658 981 q 769 974 747 975 q 811 972 792 972 q 942 1000 903 972 q 981 1092 981 1028 q 978 1129 981 1111 q 969 1168 975 1147 l 1088 1168 q 1096 1136 1093 1154 q 1099 1097 1099 1118 q 1040 951 1099 1006 q 874 889 982 897 m 581 861 q 321 752 428 861 q 214 485 214 643 q 321 215 214 325 q 583 106 428 106 q 845 215 736 106 q 954 483 954 325 q 845 751 954 642 q 581 861 736 861 m 754 1225 q 722 1153 754 1185 q 594 1072 689 1121 l 524 1092 l 524 1094 q 630 1165 604 1143 q 656 1206 656 1186 q 640 1232 656 1222 q 593 1242 624 1242 q 517 1229 556 1242 q 435 1190 478 1217 l 432 1190 l 432 1275 q 515 1311 475 1300 q 600 1322 556 1322 q 713 1297 672 1322 q 754 1225 754 1271 z "},"Ợ":{"ha":1168,"x_min":76,"x_max":1099,"o":"m 874 889 q 1034 715 976 821 q 1092 485 1092 608 q 944 126 1092 272 q 583 -19 797 -19 q 223 125 369 -19 q 76 481 76 269 q 224 839 76 694 q 593 983 372 983 q 636 982 614 983 q 703 978 658 981 q 769 974 747 975 q 811 972 792 972 q 942 1000 903 972 q 981 1092 981 1028 q 978 1129 981 1111 q 969 1168 975 1147 l 1088 1168 q 1096 1136 1093 1154 q 1099 1097 1099 1118 q 1040 951 1099 1006 q 874 889 982 897 m 581 861 q 321 752 428 861 q 214 485 214 643 q 321 215 214 325 q 583 106 428 106 q 845 215 736 106 q 954 483 954 325 q 845 751 954 642 q 581 861 736 861 m 585 -297 q 524 -272 549 -297 q 499 -211 499 -247 q 524 -150 499 -175 q 585 -125 549 -125 q 646 -150 621 -125 q 671 -211 671 -175 q 646 -272 671 -246 q 585 -297 621 -297 z "},"Ŕ":{"ha":882,"x_min":139,"x_max":889,"o":"m 889 0 l 721 0 l 379 389 l 274 389 l 274 0 l 139 0 l 139 972 l 422 972 q 659 894 569 972 q 749 685 749 817 q 688 513 749 586 q 522 411 626 439 l 889 0 m 613 685 q 558 806 613 760 q 418 853 504 853 l 271 853 l 271 507 l 411 507 q 556 557 500 507 q 613 685 613 607 m 453 1072 l 385 1072 l 499 1268 l 683 1268 l 683 1265 l 453 1072 z "},"Ř":{"ha":882,"x_min":139,"x_max":889,"o":"m 889 0 l 721 0 l 379 389 l 274 389 l 274 0 l 139 0 l 139 972 l 422 972 q 659 894 569 972 q 749 685 749 817 q 688 513 749 586 q 522 411 626 439 l 889 0 m 613 685 q 558 806 613 760 q 418 853 504 853 l 271 853 l 271 507 l 411 507 q 556 557 500 507 q 613 685 613 607 m 660 1264 l 660 1261 l 485 1068 l 363 1068 l 188 1261 l 188 1264 l 258 1264 l 422 1160 l 586 1264 l 660 1264 z "},"Ṙ":{"ha":882,"x_min":139,"x_max":889,"o":"m 889 0 l 721 0 l 379 389 l 274 389 l 274 0 l 139 0 l 139 972 l 422 972 q 659 894 569 972 q 749 685 749 817 q 688 513 749 586 q 522 411 626 439 l 889 0 m 613 685 q 558 806 613 760 q 418 853 504 853 l 271 853 l 271 507 l 411 507 q 556 557 500 507 q 613 685 613 607 m 424 1244 q 486 1219 461 1244 q 511 1157 511 1194 q 486 1094 511 1119 q 424 1069 461 1069 q 361 1094 386 1069 q 336 1157 336 1119 q 361 1219 336 1194 q 424 1244 386 1244 z "},"Ṝ":{"ha":882,"x_min":139,"x_max":889,"o":"m 889 0 l 721 0 l 379 389 l 274 389 l 274 0 l 139 0 l 139 972 l 422 972 q 659 894 569 972 q 749 685 749 817 q 688 513 749 586 q 522 411 626 439 l 889 0 m 613 685 q 558 806 613 760 q 418 853 504 853 l 271 853 l 271 507 l 411 507 q 556 557 500 507 q 613 685 613 607 m 176 1106 l 176 1200 l 671 1200 l 671 1106 l 176 1106 m 481 -285 q 419 -260 444 -285 q 394 -199 394 -235 q 419 -137 394 -162 q 481 -112 444 -112 q 542 -137 517 -112 q 567 -199 567 -162 q 542 -259 567 -233 q 481 -285 517 -285 z "},"Ŗ":{"ha":882,"x_min":139,"x_max":889,"o":"m 889 0 l 721 0 l 379 389 l 274 389 l 274 0 l 139 0 l 139 972 l 422 972 q 659 894 569 972 q 749 685 749 817 q 688 513 749 586 q 522 411 626 439 l 889 0 m 613 685 q 558 806 613 760 q 418 853 504 853 l 271 853 l 271 507 l 411 507 q 556 557 500 507 q 613 685 613 607 m 596 -201 q 560 -272 596 -237 q 443 -346 525 -306 l 374 -319 l 374 -317 q 447 -265 425 -286 q 468 -225 468 -244 q 448 -192 468 -207 q 371 -150 428 -176 l 371 -146 l 503 -107 q 574 -149 551 -126 q 596 -201 596 -171 z "},"Ṛ":{"ha":882,"x_min":139,"x_max":889,"o":"m 889 0 l 721 0 l 379 389 l 274 389 l 274 0 l 139 0 l 139 972 l 422 972 q 659 894 569 972 q 749 685 749 817 q 688 513 749 586 q 522 411 626 439 l 889 0 m 613 685 q 558 806 613 760 q 418 853 504 853 l 271 853 l 271 507 l 411 507 q 556 557 500 507 q 613 685 613 607 m 481 -285 q 419 -260 444 -285 q 394 -199 394 -235 q 419 -137 394 -162 q 481 -112 444 -112 q 542 -137 517 -112 q 567 -199 567 -162 q 542 -259 567 -233 q 481 -285 517 -285 z "},"Ṟ":{"ha":882,"x_min":139,"x_max":889,"o":"m 889 0 l 721 0 l 379 389 l 274 389 l 274 0 l 139 0 l 139 972 l 422 972 q 659 894 569 972 q 749 685 749 817 q 688 513 749 586 q 522 411 626 439 l 889 0 m 613 685 q 558 806 613 760 q 418 853 504 853 l 271 853 l 271 507 l 411 507 q 556 557 500 507 q 613 685 613 607 m 247 -249 l 247 -154 l 714 -154 l 714 -249 l 247 -249 z "},"Ś":{"ha":769,"x_min":54,"x_max":686,"o":"m 346 439 q 149 567 203 503 q 94 725 94 632 q 176 917 94 844 q 390 989 257 989 q 524 972 463 989 q 646 915 585 954 l 646 765 l 643 765 q 512 840 576 815 q 385 864 447 864 q 267 830 311 864 q 224 738 224 796 q 264 644 224 682 q 433 549 304 607 q 628 419 571 486 q 686 260 686 353 q 599 60 686 136 q 371 -17 511 -17 q 221 8 293 -17 q 86 79 149 32 l 54 260 l 57 261 q 218 149 133 190 q 378 108 303 108 q 507 147 458 108 q 556 249 556 185 q 513 343 556 303 q 346 439 471 383 m 428 1079 l 360 1079 l 474 1275 l 658 1275 l 658 1272 l 428 1079 z "},"Ŝ":{"ha":769,"x_min":54,"x_max":686,"o":"m 346 439 q 149 567 203 503 q 94 725 94 632 q 176 917 94 844 q 390 989 257 989 q 524 972 463 989 q 646 915 585 954 l 646 765 l 643 765 q 512 840 576 815 q 385 864 447 864 q 267 830 311 864 q 224 738 224 796 q 264 644 224 682 q 433 549 304 607 q 628 419 571 486 q 686 260 686 353 q 599 60 686 136 q 371 -17 511 -17 q 221 8 293 -17 q 86 79 149 32 l 54 260 l 57 261 q 218 149 133 190 q 378 108 303 108 q 507 147 458 108 q 556 249 556 185 q 513 343 556 303 q 346 439 471 383 m 633 1072 l 563 1072 l 399 1176 l 235 1072 l 161 1072 l 161 1074 l 336 1268 l 458 1268 l 633 1074 l 633 1072 z "},"Š":{"ha":769,"x_min":54,"x_max":686,"o":"m 346 439 q 149 567 203 503 q 94 725 94 632 q 176 917 94 844 q 390 989 257 989 q 524 972 463 989 q 646 915 585 954 l 646 765 l 643 765 q 512 840 576 815 q 385 864 447 864 q 267 830 311 864 q 224 738 224 796 q 264 644 224 682 q 433 549 304 607 q 628 419 571 486 q 686 260 686 353 q 599 60 686 136 q 371 -17 511 -17 q 221 8 293 -17 q 86 79 149 32 l 54 260 l 57 261 q 218 149 133 190 q 378 108 303 108 q 507 147 458 108 q 556 249 556 185 q 513 343 556 303 q 346 439 471 383 m 635 1271 l 635 1268 l 460 1075 l 338 1075 l 163 1268 l 163 1271 l 233 1271 l 397 1167 l 561 1271 l 635 1271 z "},"Ș":{"ha":769,"x_min":54,"x_max":686,"o":"m 346 439 q 149 567 203 503 q 94 725 94 632 q 176 917 94 844 q 390 989 257 989 q 524 972 463 989 q 646 915 585 954 l 646 765 l 643 765 q 512 840 576 815 q 385 864 447 864 q 267 830 311 864 q 224 738 224 796 q 264 644 224 682 q 433 549 304 607 q 628 419 571 486 q 686 260 686 353 q 599 60 686 136 q 371 -17 511 -17 q 221 8 293 -17 q 86 79 149 32 l 54 260 l 57 261 q 218 149 133 190 q 378 108 303 108 q 507 147 458 108 q 556 249 556 185 q 513 343 556 303 q 346 439 471 383 m 482 -215 q 447 -285 482 -251 q 329 -360 411 -319 l 260 -333 l 260 -331 q 333 -279 311 -300 q 354 -239 354 -258 q 334 -206 354 -221 q 257 -164 314 -190 l 257 -160 l 389 -121 q 460 -162 438 -140 q 482 -215 482 -185 z "},"Ṣ":{"ha":769,"x_min":54,"x_max":686,"o":"m 346 439 q 149 567 203 503 q 94 725 94 632 q 176 917 94 844 q 390 989 257 989 q 524 972 463 989 q 646 915 585 954 l 646 765 l 643 765 q 512 840 576 815 q 385 864 447 864 q 267 830 311 864 q 224 738 224 796 q 264 644 224 682 q 433 549 304 607 q 628 419 571 486 q 686 260 686 353 q 599 60 686 136 q 371 -17 511 -17 q 221 8 293 -17 q 86 79 149 32 l 54 260 l 57 261 q 218 149 133 190 q 378 108 303 108 q 507 147 458 108 q 556 249 556 185 q 513 343 556 303 q 346 439 471 383 m 367 -299 q 306 -274 331 -299 q 281 -212 281 -249 q 306 -151 281 -176 q 367 -126 331 -126 q 428 -151 403 -126 q 453 -212 453 -176 q 428 -273 453 -247 q 367 -299 403 -299 z "},"Ş":{"ha":769,"x_min":54,"x_max":686,"o":"m 494 -168 q 451 -247 494 -217 q 333 -278 407 -278 q 290 -275 311 -278 q 247 -267 269 -272 l 211 -201 l 215 -197 q 271 -212 247 -208 q 319 -217 294 -217 q 378 -206 357 -217 q 399 -174 399 -194 q 381 -144 399 -154 q 331 -135 364 -135 q 309 -135 319 -135 q 265 -140 299 -136 l 261 -135 l 332 -15 q 202 15 264 -10 q 86 79 140 39 l 54 260 l 57 261 q 218 149 133 190 q 378 108 303 108 q 507 147 458 108 q 556 249 556 185 q 513 343 556 303 q 346 439 471 383 q 149 567 203 503 q 94 725 94 632 q 176 917 94 844 q 390 989 257 989 q 524 972 463 989 q 646 915 585 954 l 646 765 l 643 765 q 512 840 576 815 q 385 864 447 864 q 267 830 311 864 q 224 738 224 796 q 264 644 224 682 q 433 549 304 607 q 628 419 571 486 q 686 260 686 353 q 610 71 686 146 q 408 -15 533 -4 l 369 -76 q 463 -102 431 -79 q 494 -168 494 -125 z "},"ẞ":{"ha":976,"x_min":126,"x_max":910,"o":"m 910 242 q 831 57 910 131 q 631 -17 751 -17 q 531 -9 572 -17 q 433 22 490 -1 l 404 171 l 407 172 q 518 119 471 135 q 621 104 565 104 q 733 144 689 104 q 776 244 776 183 q 711 360 776 315 q 447 465 646 404 l 442 486 l 689 818 q 601 854 650 842 q 503 867 553 867 q 325 796 389 867 q 261 597 261 725 l 261 0 l 126 0 l 126 594 q 228 886 126 781 q 510 992 329 992 q 700 955 607 992 q 856 857 793 918 l 856 838 l 628 533 q 849 414 788 479 q 910 242 910 349 z "},"Ť":{"ha":993,"x_min":49,"x_max":944,"o":"m 944 972 l 944 851 l 563 851 l 563 0 l 429 0 l 429 851 l 49 851 l 49 972 l 944 972 m 732 1264 l 732 1261 l 557 1068 l 435 1068 l 260 1261 l 260 1264 l 331 1264 l 494 1160 l 658 1264 l 732 1264 z "},"Ṱ":{"ha":993,"x_min":49,"x_max":944,"o":"m 944 972 l 944 851 l 563 851 l 563 0 l 429 0 l 429 851 l 49 851 l 49 972 l 944 972 m 731 -354 l 672 -354 l 497 -221 l 322 -354 l 261 -354 l 261 -353 l 439 -119 l 553 -119 l 731 -353 l 731 -354 z "},"Ț":{"ha":993,"x_min":49,"x_max":944,"o":"m 944 972 l 944 851 l 563 851 l 563 0 l 429 0 l 429 851 l 49 851 l 49 972 l 944 972 m 611 -208 q 576 -278 611 -244 q 458 -353 540 -312 l 389 -326 l 389 -324 q 462 -272 440 -293 q 483 -232 483 -251 q 463 -199 483 -214 q 386 -157 443 -183 l 386 -153 l 518 -114 q 589 -156 567 -133 q 611 -208 611 -178 z "},"Ṭ":{"ha":993,"x_min":49,"x_max":944,"o":"m 944 972 l 944 851 l 563 851 l 563 0 l 429 0 l 429 851 l 49 851 l 49 972 l 944 972 m 496 -292 q 435 -267 460 -292 q 410 -206 410 -242 q 435 -144 410 -169 q 496 -119 460 -119 q 557 -144 532 -119 q 582 -206 582 -169 q 557 -266 582 -240 q 496 -292 532 -292 z "},"Ṯ":{"ha":993,"x_min":49,"x_max":944,"o":"m 944 972 l 944 851 l 563 851 l 563 0 l 429 0 l 429 851 l 49 851 l 49 972 l 944 972 m 263 -249 l 263 -154 l 729 -154 l 729 -249 l 263 -249 z "},"Ţ":{"ha":993,"x_min":49,"x_max":944,"o":"m 618 -161 q 574 -241 618 -211 q 456 -271 529 -271 q 413 -268 433 -271 q 369 -260 393 -265 l 335 -194 l 338 -190 q 394 -206 371 -201 q 443 -210 418 -210 q 501 -198 479 -210 q 522 -167 522 -186 q 505 -137 522 -147 q 454 -128 488 -128 q 433 -128 443 -128 q 389 -133 424 -129 l 383 -128 l 460 0 l 429 0 l 429 851 l 49 851 l 49 972 l 944 972 l 944 851 l 563 851 l 563 0 l 536 0 l 492 -69 q 586 -95 554 -72 q 618 -161 618 -118 z "},"Ŧ":{"ha":993,"x_min":49,"x_max":944,"o":"m 776 515 l 776 418 l 563 418 l 563 0 l 429 0 l 429 418 l 217 418 l 217 515 l 429 515 l 429 851 l 49 851 l 49 972 l 944 972 l 944 851 l 563 851 l 563 515 l 776 515 z "},"Ú":{"ha":1096,"x_min":126,"x_max":968,"o":"m 547 -17 q 239 101 351 -17 q 126 425 126 219 l 126 972 l 261 972 l 261 422 q 338 190 261 274 q 550 107 414 107 q 763 190 686 107 q 839 426 839 274 l 839 972 l 968 972 l 968 425 q 856 101 968 218 q 547 -17 744 -17 m 578 1057 l 510 1057 l 624 1253 l 808 1253 l 808 1250 l 578 1057 z "},"Ű":{"ha":1096,"x_min":126,"x_max":968,"o":"m 547 -17 q 239 101 351 -17 q 126 425 126 219 l 126 972 l 261 972 l 261 422 q 338 190 261 274 q 550 107 414 107 q 763 190 686 107 q 839 426 839 274 l 839 972 l 968 972 l 968 425 q 856 101 968 218 q 547 -17 744 -17 m 429 1072 l 361 1072 l 475 1268 l 647 1268 l 647 1265 l 429 1072 m 692 1072 l 624 1072 l 738 1268 l 910 1268 l 910 1265 l 692 1072 z "},"Ù":{"ha":1096,"x_min":126,"x_max":968,"o":"m 547 -17 q 239 101 351 -17 q 126 425 126 219 l 126 972 l 261 972 l 261 422 q 338 190 261 274 q 550 107 414 107 q 763 190 686 107 q 839 426 839 274 l 839 972 l 968 972 l 968 425 q 856 101 968 218 q 547 -17 744 -17 m 474 1253 l 588 1057 l 519 1057 l 289 1250 l 289 1253 l 474 1253 z "},"Û":{"ha":1096,"x_min":126,"x_max":968,"o":"m 547 -17 q 239 101 351 -17 q 126 425 126 219 l 126 972 l 261 972 l 261 422 q 338 190 261 274 q 550 107 414 107 q 763 190 686 107 q 839 426 839 274 l 839 972 l 968 972 l 968 425 q 856 101 968 218 q 547 -17 744 -17 m 785 1072 l 714 1072 l 550 1176 l 386 1072 l 313 1072 l 313 1074 l 488 1268 l 610 1268 l 785 1074 l 785 1072 z "},"Ǔ":{"ha":1096,"x_min":126,"x_max":968,"o":"m 547 -17 q 239 101 351 -17 q 126 425 126 219 l 126 972 l 261 972 l 261 422 q 338 190 261 274 q 550 107 414 107 q 763 190 686 107 q 839 426 839 274 l 839 972 l 968 972 l 968 425 q 856 101 968 218 q 547 -17 744 -17 m 785 1249 l 785 1246 l 610 1053 l 488 1053 l 313 1246 l 313 1249 l 383 1249 l 547 1144 l 711 1249 l 785 1249 z "},"Ŭ":{"ha":1096,"x_min":126,"x_max":968,"o":"m 547 -17 q 239 101 351 -17 q 126 425 126 219 l 126 972 l 261 972 l 261 422 q 338 190 261 274 q 550 107 414 107 q 763 190 686 107 q 839 426 839 274 l 839 972 l 968 972 l 968 425 q 856 101 968 218 q 547 -17 744 -17 m 549 1057 q 409 1098 471 1057 q 299 1224 347 1139 l 351 1263 q 451 1183 406 1206 q 549 1160 496 1160 q 647 1183 601 1160 q 746 1263 692 1206 l 799 1224 q 688 1098 750 1139 q 549 1057 626 1057 z "},"Ũ":{"ha":1096,"x_min":126,"x_max":968,"o":"m 547 -17 q 239 101 351 -17 q 126 425 126 219 l 126 972 l 261 972 l 261 422 q 338 190 261 274 q 550 107 414 107 q 763 190 686 107 q 839 426 839 274 l 839 972 l 968 972 l 968 425 q 856 101 968 218 q 547 -17 744 -17 m 568 1208 q 628 1178 610 1185 q 657 1171 646 1171 q 692 1185 676 1171 q 758 1261 708 1199 l 813 1222 q 720 1100 753 1129 q 649 1071 688 1071 q 606 1080 631 1071 q 529 1119 582 1089 q 469 1150 488 1143 q 440 1157 451 1157 q 405 1143 421 1157 q 339 1067 389 1129 l 285 1106 q 377 1228 344 1199 q 449 1257 410 1257 q 491 1248 467 1257 q 568 1208 515 1239 z "},"Ū":{"ha":1096,"x_min":126,"x_max":968,"o":"m 547 -17 q 239 101 351 -17 q 126 425 126 219 l 126 972 l 261 972 l 261 422 q 338 190 261 274 q 550 107 414 107 q 763 190 686 107 q 839 426 839 274 l 839 972 l 968 972 l 968 425 q 856 101 968 218 q 547 -17 744 -17 m 301 1106 l 301 1200 l 796 1200 l 796 1106 l 301 1106 z "},"Ü":{"ha":1096,"x_min":126,"x_max":968,"o":"m 547 -17 q 239 101 351 -17 q 126 425 126 219 l 126 972 l 261 972 l 261 422 q 338 190 261 274 q 550 107 414 107 q 763 190 686 107 q 839 426 839 274 l 839 972 l 968 972 l 968 425 q 856 101 968 218 q 547 -17 744 -17 m 404 1244 q 466 1219 440 1244 q 492 1157 492 1193 q 466 1095 492 1121 q 404 1069 440 1069 q 342 1094 367 1069 q 317 1157 317 1119 q 342 1219 317 1194 q 404 1244 367 1244 m 693 1244 q 756 1219 731 1244 q 781 1157 781 1194 q 756 1094 781 1119 q 693 1069 731 1069 q 631 1095 657 1069 q 606 1157 606 1121 q 631 1219 606 1193 q 693 1244 657 1244 z "},"Ǘ":{"ha":1096,"x_min":126,"x_max":968,"o":"m 547 -17 q 239 101 351 -17 q 126 425 126 219 l 126 972 l 261 972 l 261 422 q 338 190 261 274 q 550 107 414 107 q 763 190 686 107 q 839 426 839 274 l 839 972 l 968 972 l 968 425 q 856 101 968 218 q 547 -17 744 -17 m 567 1281 l 507 1281 l 596 1461 l 763 1461 l 763 1458 l 567 1281 m 404 1069 q 342 1094 367 1069 q 317 1157 317 1119 q 342 1219 317 1194 q 404 1244 367 1244 q 466 1219 440 1244 q 492 1157 492 1193 q 466 1095 492 1121 q 404 1069 440 1069 m 693 1069 q 631 1095 657 1069 q 606 1157 606 1121 q 631 1219 606 1193 q 693 1244 657 1244 q 756 1219 731 1244 q 781 1157 781 1194 q 756 1094 781 1119 q 693 1069 731 1069 z "},"Ǜ":{"ha":1096,"x_min":126,"x_max":968,"o":"m 547 -17 q 239 101 351 -17 q 126 425 126 219 l 126 972 l 261 972 l 261 422 q 338 190 261 274 q 550 107 414 107 q 763 190 686 107 q 839 426 839 274 l 839 972 l 968 972 l 968 425 q 856 101 968 218 q 547 -17 744 -17 m 501 1461 l 590 1281 l 531 1281 l 335 1458 l 335 1461 l 501 1461 m 693 1244 q 756 1219 731 1244 q 781 1157 781 1194 q 756 1094 781 1119 q 693 1069 731 1069 q 631 1095 657 1069 q 606 1157 606 1121 q 631 1219 606 1193 q 693 1244 657 1244 m 404 1244 q 466 1219 440 1244 q 492 1157 492 1193 q 466 1095 492 1121 q 404 1069 440 1069 q 342 1094 367 1069 q 317 1157 317 1119 q 342 1219 317 1194 q 404 1244 367 1244 z "},"Ǚ":{"ha":1096,"x_min":126,"x_max":968,"o":"m 547 -17 q 239 101 351 -17 q 126 425 126 219 l 126 972 l 261 972 l 261 422 q 338 190 261 274 q 550 107 414 107 q 763 190 686 107 q 839 426 839 274 l 839 972 l 968 972 l 968 425 q 856 101 968 218 q 547 -17 744 -17 m 771 1461 l 771 1458 l 594 1281 l 503 1281 l 326 1458 l 326 1461 l 392 1461 l 547 1376 l 701 1461 l 771 1461 m 404 1244 q 466 1219 440 1244 q 492 1157 492 1193 q 466 1095 492 1121 q 404 1069 440 1069 q 342 1094 367 1069 q 317 1157 317 1119 q 342 1219 317 1194 q 404 1244 367 1244 m 693 1244 q 756 1219 731 1244 q 781 1157 781 1194 q 756 1094 781 1119 q 693 1069 731 1069 q 631 1095 657 1069 q 606 1157 606 1121 q 631 1219 606 1193 q 693 1244 657 1244 z "},"Ǖ":{"ha":1096,"x_min":126,"x_max":968,"o":"m 547 -17 q 239 101 351 -17 q 126 425 126 219 l 126 972 l 261 972 l 261 422 q 338 190 261 274 q 550 107 414 107 q 763 190 686 107 q 839 426 839 274 l 839 972 l 968 972 l 968 425 q 856 101 968 218 q 547 -17 744 -17 m 318 1315 l 318 1404 l 779 1404 l 779 1315 l 318 1315 m 404 1244 q 466 1219 440 1244 q 492 1157 492 1193 q 466 1095 492 1121 q 404 1069 440 1069 q 342 1094 367 1069 q 317 1157 317 1119 q 342 1219 317 1194 q 404 1244 367 1244 m 693 1244 q 756 1219 731 1244 q 781 1157 781 1194 q 756 1094 781 1119 q 693 1069 731 1069 q 631 1095 657 1069 q 606 1157 606 1121 q 631 1219 606 1193 q 693 1244 657 1244 z "},"Ů":{"ha":1096,"x_min":126,"x_max":968,"o":"m 547 -17 q 239 101 351 -17 q 126 425 126 219 l 126 972 l 261 972 l 261 422 q 338 190 261 274 q 550 107 414 107 q 763 190 686 107 q 839 426 839 274 l 839 972 l 968 972 l 968 425 q 856 101 968 218 q 547 -17 744 -17 m 549 1054 q 424 1104 475 1054 q 374 1225 374 1154 q 425 1345 374 1294 q 549 1396 476 1396 q 672 1345 621 1396 q 724 1225 724 1294 q 673 1104 724 1154 q 549 1054 622 1054 m 661 1225 q 628 1305 661 1272 q 549 1338 596 1338 q 469 1305 501 1338 q 436 1225 436 1272 q 469 1144 436 1178 q 549 1111 501 1111 q 628 1144 596 1111 q 661 1225 661 1178 z "},"Ủ":{"ha":1096,"x_min":126,"x_max":968,"o":"m 547 -17 q 239 101 351 -17 q 126 425 126 219 l 126 972 l 261 972 l 261 422 q 338 190 261 274 q 550 107 414 107 q 763 190 686 107 q 839 426 839 274 l 839 972 l 968 972 l 968 425 q 856 101 968 218 q 547 -17 744 -17 m 718 1203 q 685 1131 718 1163 q 558 1050 653 1099 l 488 1069 l 488 1072 q 594 1142 568 1121 q 619 1183 619 1164 q 603 1210 619 1200 q 557 1219 588 1219 q 481 1207 519 1219 q 399 1168 442 1194 l 396 1168 l 396 1253 q 479 1289 439 1278 q 564 1300 519 1300 q 677 1274 636 1300 q 718 1203 718 1249 z "},"Ụ":{"ha":1096,"x_min":126,"x_max":968,"o":"m 547 -17 q 239 101 351 -17 q 126 425 126 219 l 126 972 l 261 972 l 261 422 q 338 190 261 274 q 550 107 414 107 q 763 190 686 107 q 839 426 839 274 l 839 972 l 968 972 l 968 425 q 856 101 968 218 q 547 -17 744 -17 m 549 -299 q 488 -274 513 -299 q 463 -212 463 -249 q 488 -151 463 -176 q 549 -126 513 -126 q 610 -151 585 -126 q 635 -212 635 -176 q 610 -273 635 -247 q 549 -299 585 -299 z "},"Ų":{"ha":1096,"x_min":126,"x_max":968,"o":"m 679 -207 l 661 -265 q 613 -274 636 -271 q 569 -276 590 -276 q 465 -249 503 -276 q 426 -172 426 -222 q 440 -121 426 -147 q 483 -57 453 -94 l 517 -15 q 230 111 333 -6 q 126 425 126 228 l 126 972 l 261 972 l 261 422 q 338 190 261 274 q 550 107 414 107 q 763 190 686 107 q 839 426 839 274 l 839 972 l 968 972 l 968 425 q 870 116 968 232 q 596 -15 772 0 l 556 -86 q 539 -123 543 -110 q 535 -151 535 -136 q 561 -194 535 -181 q 647 -207 588 -207 l 679 -207 z "},"Ư":{"ha":1136,"x_min":126,"x_max":1158,"o":"m 550 107 q 763 190 686 107 q 839 426 839 274 l 839 972 l 881 972 q 1003 1001 965 972 q 1042 1092 1042 1029 q 1039 1129 1042 1111 q 1031 1168 1036 1147 l 1149 1168 q 1156 1135 1153 1153 q 1158 1097 1158 1117 q 1110 960 1158 1013 q 968 890 1063 908 l 968 425 q 856 101 968 218 q 547 -17 744 -17 q 239 101 351 -17 q 126 425 126 219 l 126 972 l 261 972 l 261 422 q 338 190 261 274 q 550 107 414 107 z "},"Ứ":{"ha":1136,"x_min":126,"x_max":1158,"o":"m 550 107 q 763 190 686 107 q 839 426 839 274 l 839 972 l 881 972 q 1003 1001 965 972 q 1042 1092 1042 1029 q 1039 1129 1042 1111 q 1031 1168 1036 1147 l 1149 1168 q 1156 1135 1153 1153 q 1158 1097 1158 1117 q 1110 960 1158 1013 q 968 890 1063 908 l 968 425 q 856 101 968 218 q 547 -17 744 -17 q 239 101 351 -17 q 126 425 126 219 l 126 972 l 261 972 l 261 422 q 338 190 261 274 q 550 107 414 107 m 578 1057 l 510 1057 l 624 1253 l 808 1253 l 808 1250 l 578 1057 z "},"Ừ":{"ha":1136,"x_min":126,"x_max":1158,"o":"m 550 107 q 763 190 686 107 q 839 426 839 274 l 839 972 l 881 972 q 1003 1001 965 972 q 1042 1092 1042 1029 q 1039 1129 1042 1111 q 1031 1168 1036 1147 l 1149 1168 q 1156 1135 1153 1153 q 1158 1097 1158 1117 q 1110 960 1158 1013 q 968 890 1063 908 l 968 425 q 856 101 968 218 q 547 -17 744 -17 q 239 101 351 -17 q 126 425 126 219 l 126 972 l 261 972 l 261 422 q 338 190 261 274 q 550 107 414 107 m 474 1253 l 588 1057 l 519 1057 l 289 1250 l 289 1253 l 474 1253 z "},"Ữ":{"ha":1136,"x_min":126,"x_max":1158,"o":"m 550 107 q 763 190 686 107 q 839 426 839 274 l 839 972 l 881 972 q 1003 1001 965 972 q 1042 1092 1042 1029 q 1039 1129 1042 1111 q 1031 1168 1036 1147 l 1149 1168 q 1156 1135 1153 1153 q 1158 1097 1158 1117 q 1110 960 1158 1013 q 968 890 1063 908 l 968 425 q 856 101 968 218 q 547 -17 744 -17 q 239 101 351 -17 q 126 425 126 219 l 126 972 l 261 972 l 261 422 q 338 190 261 274 q 550 107 414 107 m 568 1208 q 628 1178 610 1185 q 657 1171 646 1171 q 692 1185 676 1171 q 758 1261 708 1199 l 813 1222 q 720 1100 753 1129 q 649 1071 688 1071 q 606 1080 631 1071 q 529 1119 582 1089 q 469 1150 488 1143 q 440 1157 451 1157 q 405 1143 421 1157 q 339 1067 389 1129 l 285 1106 q 377 1228 344 1199 q 449 1257 410 1257 q 491 1248 467 1257 q 568 1208 515 1239 z "},"Ử":{"ha":1136,"x_min":126,"x_max":1158,"o":"m 550 107 q 763 190 686 107 q 839 426 839 274 l 839 972 l 881 972 q 1003 1001 965 972 q 1042 1092 1042 1029 q 1039 1129 1042 1111 q 1031 1168 1036 1147 l 1149 1168 q 1156 1135 1153 1153 q 1158 1097 1158 1117 q 1110 960 1158 1013 q 968 890 1063 908 l 968 425 q 856 101 968 218 q 547 -17 744 -17 q 239 101 351 -17 q 126 425 126 219 l 126 972 l 261 972 l 261 422 q 338 190 261 274 q 550 107 414 107 m 718 1203 q 685 1131 718 1163 q 558 1050 653 1099 l 488 1069 l 488 1072 q 594 1142 568 1121 q 619 1183 619 1164 q 603 1210 619 1200 q 557 1219 588 1219 q 481 1207 519 1219 q 399 1168 442 1194 l 396 1168 l 396 1253 q 479 1289 439 1278 q 564 1300 519 1300 q 677 1274 636 1300 q 718 1203 718 1249 z "},"Ự":{"ha":1136,"x_min":126,"x_max":1158,"o":"m 550 107 q 763 190 686 107 q 839 426 839 274 l 839 972 l 881 972 q 1003 1001 965 972 q 1042 1092 1042 1029 q 1039 1129 1042 1111 q 1031 1168 1036 1147 l 1149 1168 q 1156 1135 1153 1153 q 1158 1097 1158 1117 q 1110 960 1158 1013 q 968 890 1063 908 l 968 425 q 856 101 968 218 q 547 -17 744 -17 q 239 101 351 -17 q 126 425 126 219 l 126 972 l 261 972 l 261 422 q 338 190 261 274 q 550 107 414 107 m 549 -299 q 488 -274 513 -299 q 463 -212 463 -249 q 488 -151 463 -176 q 549 -126 513 -126 q 610 -151 585 -126 q 635 -212 635 -176 q 610 -273 635 -247 q 549 -299 585 -299 z "},"Ṿ":{"ha":1071,"x_min":43,"x_max":1031,"o":"m 886 972 l 1031 972 l 544 -22 l 514 -22 l 43 972 l 193 972 l 535 219 l 886 972 m 531 -304 q 469 -279 494 -304 q 444 -218 444 -254 q 469 -157 444 -182 q 531 -132 494 -132 q 592 -157 567 -132 q 617 -218 617 -182 q 592 -278 617 -253 q 531 -304 567 -304 z "},"Ẃ":{"ha":1633,"x_min":51,"x_max":1585,"o":"m 1443 972 l 1585 972 l 1235 -6 l 1104 -6 l 815 701 l 515 -6 l 386 -6 l 51 972 l 197 972 l 458 169 l 808 983 l 832 983 l 1171 169 l 1443 972 m 850 1072 l 782 1072 l 896 1268 l 1081 1268 l 1081 1265 l 850 1072 z "},"Ẁ":{"ha":1633,"x_min":51,"x_max":1585,"o":"m 1443 972 l 1585 972 l 1235 -6 l 1104 -6 l 815 701 l 515 -6 l 386 -6 l 51 972 l 197 972 l 458 169 l 808 983 l 832 983 l 1171 169 l 1443 972 m 746 1268 l 860 1072 l 792 1072 l 561 1265 l 561 1268 l 746 1268 z "},"Ŵ":{"ha":1633,"x_min":51,"x_max":1585,"o":"m 1443 972 l 1585 972 l 1235 -6 l 1104 -6 l 815 701 l 515 -6 l 386 -6 l 51 972 l 197 972 l 458 169 l 808 983 l 832 983 l 1171 169 l 1443 972 m 1057 1072 l 986 1072 l 822 1176 l 658 1072 l 585 1072 l 585 1074 l 760 1268 l 882 1268 l 1057 1074 l 1057 1072 z "},"Ẅ":{"ha":1633,"x_min":51,"x_max":1585,"o":"m 1443 972 l 1585 972 l 1235 -6 l 1104 -6 l 815 701 l 515 -6 l 386 -6 l 51 972 l 197 972 l 458 169 l 808 983 l 832 983 l 1171 169 l 1443 972 m 676 1244 q 738 1219 713 1244 q 764 1157 764 1193 q 738 1095 764 1121 q 676 1069 713 1069 q 614 1094 639 1069 q 589 1157 589 1119 q 614 1219 589 1194 q 676 1244 639 1244 m 965 1244 q 1028 1219 1003 1244 q 1053 1157 1053 1194 q 1028 1094 1053 1119 q 965 1069 1003 1069 q 903 1095 929 1069 q 878 1157 878 1121 q 903 1219 878 1193 q 965 1244 929 1244 z "},"Ẍ":{"ha":1026,"x_min":49,"x_max":978,"o":"m 978 0 l 819 0 l 510 401 l 204 0 l 49 0 l 432 493 l 60 972 l 218 972 l 515 588 l 813 972 l 967 972 l 593 493 l 978 0 m 369 1244 q 431 1219 406 1244 q 457 1157 457 1193 q 431 1095 457 1121 q 369 1069 406 1069 q 307 1094 332 1069 q 282 1157 282 1119 q 307 1219 282 1194 q 369 1244 332 1244 m 658 1244 q 721 1219 696 1244 q 746 1157 746 1194 q 721 1094 746 1119 q 658 1069 696 1069 q 597 1095 622 1069 q 571 1157 571 1121 q 597 1219 571 1193 q 658 1244 622 1244 z "},"Ý":{"ha":928,"x_min":18,"x_max":910,"o":"m 756 972 l 910 972 l 531 435 l 531 0 l 397 0 l 397 435 l 18 972 l 178 972 l 467 553 l 756 972 m 493 1065 l 425 1065 l 539 1261 l 724 1261 l 724 1258 l 493 1065 z "},"Ỳ":{"ha":928,"x_min":18,"x_max":910,"o":"m 756 972 l 910 972 l 531 435 l 531 0 l 397 0 l 397 435 l 18 972 l 178 972 l 467 553 l 756 972 m 389 1261 l 503 1065 l 435 1065 l 204 1258 l 204 1261 l 389 1261 z "},"Ŷ":{"ha":928,"x_min":18,"x_max":910,"o":"m 756 972 l 910 972 l 531 435 l 531 0 l 397 0 l 397 435 l 18 972 l 178 972 l 467 553 l 756 972 m 700 1072 l 629 1072 l 465 1176 l 301 1072 l 228 1072 l 228 1074 l 403 1268 l 525 1268 l 700 1074 l 700 1072 z "},"Ỹ":{"ha":928,"x_min":18,"x_max":910,"o":"m 756 972 l 910 972 l 531 435 l 531 0 l 397 0 l 397 435 l 18 972 l 178 972 l 467 553 l 756 972 m 483 1208 q 543 1178 525 1185 q 572 1171 561 1171 q 608 1185 592 1171 q 674 1261 624 1199 l 728 1222 q 635 1100 668 1129 q 564 1071 603 1071 q 522 1080 546 1071 q 444 1119 497 1089 q 385 1150 403 1143 q 356 1157 367 1157 q 320 1143 336 1157 q 254 1067 304 1129 l 200 1106 q 292 1228 260 1199 q 364 1257 325 1257 q 406 1248 382 1257 q 483 1208 431 1239 z "},"Ȳ":{"ha":928,"x_min":18,"x_max":910,"o":"m 756 972 l 910 972 l 531 435 l 531 0 l 397 0 l 397 435 l 18 972 l 178 972 l 467 553 l 756 972 m 217 1106 l 217 1200 l 711 1200 l 711 1106 l 217 1106 z "},"Ÿ":{"ha":928,"x_min":18,"x_max":910,"o":"m 756 972 l 910 972 l 531 435 l 531 0 l 397 0 l 397 435 l 18 972 l 178 972 l 467 553 l 756 972 m 319 1244 q 381 1219 356 1244 q 407 1157 407 1193 q 381 1095 407 1121 q 319 1069 356 1069 q 257 1094 282 1069 q 232 1157 232 1119 q 257 1219 232 1194 q 319 1244 282 1244 m 608 1244 q 671 1219 646 1244 q 696 1157 696 1194 q 671 1094 696 1119 q 608 1069 646 1069 q 547 1095 572 1069 q 521 1157 521 1121 q 547 1219 521 1193 q 608 1244 572 1244 z "},"Ẏ":{"ha":928,"x_min":18,"x_max":910,"o":"m 756 972 l 910 972 l 531 435 l 531 0 l 397 0 l 397 435 l 18 972 l 178 972 l 467 553 l 756 972 m 464 1238 q 526 1213 501 1238 q 551 1150 551 1188 q 526 1088 551 1113 q 464 1063 501 1063 q 401 1088 426 1063 q 376 1150 376 1113 q 401 1213 376 1188 q 464 1238 426 1238 z "},"Ỷ":{"ha":928,"x_min":18,"x_max":910,"o":"m 756 972 l 910 972 l 531 435 l 531 0 l 397 0 l 397 435 l 18 972 l 178 972 l 467 553 l 756 972 m 633 1211 q 601 1139 633 1171 q 474 1058 568 1107 l 403 1078 l 403 1081 q 509 1151 483 1129 q 535 1192 535 1172 q 519 1218 535 1208 q 472 1228 503 1228 q 396 1215 435 1228 q 314 1176 357 1203 l 311 1176 l 311 1261 q 394 1297 354 1286 q 479 1308 435 1308 q 592 1283 551 1308 q 633 1211 633 1257 z "},"Ỵ":{"ha":928,"x_min":18,"x_max":910,"o":"m 756 972 l 910 972 l 531 435 l 531 0 l 397 0 l 397 435 l 18 972 l 178 972 l 467 553 l 756 972 m 464 -292 q 403 -267 428 -292 q 378 -206 378 -242 q 403 -144 378 -169 q 464 -119 428 -119 q 525 -144 500 -119 q 550 -206 550 -169 q 525 -266 550 -240 q 464 -292 500 -292 z "},"Ź":{"ha":969,"x_min":54,"x_max":917,"o":"m 282 121 l 917 121 l 851 0 l 64 0 l 54 19 l 676 851 l 99 851 l 99 972 l 896 972 l 906 953 l 282 121 m 517 1072 l 449 1072 l 563 1268 l 747 1268 l 747 1265 l 517 1072 z "},"Ẑ":{"ha":969,"x_min":54,"x_max":917,"o":"m 282 121 l 917 121 l 851 0 l 64 0 l 54 19 l 676 851 l 99 851 l 99 972 l 896 972 l 906 953 l 282 121 m 724 1072 l 653 1072 l 489 1176 l 325 1072 l 251 1072 l 251 1074 l 426 1268 l 549 1268 l 724 1074 l 724 1072 z "},"Ž":{"ha":969,"x_min":54,"x_max":917,"o":"m 282 121 l 917 121 l 851 0 l 64 0 l 54 19 l 676 851 l 99 851 l 99 972 l 896 972 l 906 953 l 282 121 m 724 1264 l 724 1261 l 549 1068 l 426 1068 l 251 1261 l 251 1264 l 322 1264 l 486 1160 l 650 1264 l 724 1264 z "},"Ż":{"ha":969,"x_min":54,"x_max":917,"o":"m 282 121 l 917 121 l 851 0 l 64 0 l 54 19 l 676 851 l 99 851 l 99 972 l 896 972 l 906 953 l 282 121 m 488 1244 q 550 1219 525 1244 q 575 1157 575 1194 q 550 1094 575 1119 q 488 1069 525 1069 q 425 1094 450 1069 q 400 1157 400 1119 q 425 1219 400 1194 q 488 1244 450 1244 z "},"Ẓ":{"ha":969,"x_min":54,"x_max":917,"o":"m 282 121 l 917 121 l 851 0 l 64 0 l 54 19 l 676 851 l 99 851 l 99 972 l 896 972 l 906 953 l 282 121 m 486 -292 q 425 -267 450 -292 q 400 -206 400 -242 q 425 -144 400 -169 q 486 -119 450 -119 q 547 -144 522 -119 q 572 -206 572 -169 q 547 -266 572 -240 q 486 -292 522 -292 z "},"Ẕ":{"ha":969,"x_min":54,"x_max":917,"o":"m 282 121 l 917 121 l 851 0 l 64 0 l 54 19 l 676 851 l 99 851 l 99 972 l 896 972 l 906 953 l 282 121 m 253 -249 l 253 -154 l 719 -154 l 719 -249 l 253 -249 z "},"Ð":{"ha":1115,"x_min":33,"x_max":1038,"o":"m 33 449 l 33 544 l 167 544 l 167 972 l 488 972 q 889 842 740 972 q 1038 489 1038 711 q 884 135 1038 271 q 488 0 731 0 l 167 0 l 167 449 l 33 449 m 564 544 l 564 449 l 301 449 l 301 122 l 490 122 q 785 223 671 122 q 900 486 900 324 q 788 752 900 654 q 485 850 675 850 l 301 850 l 301 544 l 564 544 z "},"Þ":{"ha":844,"x_min":139,"x_max":779,"o":"m 779 500 q 680 277 779 361 q 422 193 581 193 l 274 193 l 274 0 l 139 0 l 139 972 l 274 972 l 274 794 l 442 794 q 688 715 597 794 q 779 500 779 636 m 643 497 q 586 626 643 578 q 435 675 529 675 l 272 675 l 272 313 l 424 313 q 583 362 524 313 q 643 497 643 411 z "},"Ə":{"ha":1071,"x_min":69,"x_max":994,"o":"m 504 989 q 860 851 725 989 q 994 485 994 713 q 858 124 994 267 q 515 -19 722 -19 q 192 118 315 -19 q 69 482 69 256 l 69 546 l 853 546 q 738 777 835 690 q 499 864 642 864 q 317 831 406 864 q 140 731 228 797 l 136 733 l 157 882 q 324 963 238 936 q 504 989 410 989 m 519 106 q 742 196 649 106 q 854 426 836 286 l 206 426 q 303 192 218 278 q 519 106 388 106 z "},"á":{"ha":788,"x_min":72,"x_max":683,"o":"m 683 422 l 683 17 l 558 -11 l 558 113 q 412 19 481 50 q 278 -11 343 -11 q 129 40 186 -11 q 72 175 72 90 q 192 352 72 294 q 558 413 311 410 l 558 415 q 517 547 558 501 q 399 592 476 592 q 278 567 340 592 q 151 492 217 542 l 149 493 l 175 633 q 291 689 231 671 q 418 707 351 707 q 615 633 546 707 q 683 422 683 560 m 199 181 q 226 119 199 142 q 303 96 254 96 q 414 119 351 96 q 558 193 476 143 l 558 332 q 288 284 378 321 q 199 181 199 247 m 438 838 l 378 838 l 494 1072 l 664 1072 l 664 1069 l 438 838 z "},"à":{"ha":788,"x_min":72,"x_max":683,"o":"m 683 422 l 683 17 l 558 -11 l 558 113 q 412 19 481 50 q 278 -11 343 -11 q 129 40 186 -11 q 72 175 72 90 q 192 352 72 294 q 558 413 311 410 l 558 415 q 517 547 558 501 q 399 592 476 592 q 278 567 340 592 q 151 492 217 542 l 149 493 l 175 633 q 291 689 231 671 q 418 707 351 707 q 615 633 546 707 q 683 422 683 560 m 199 181 q 226 119 199 142 q 303 96 254 96 q 414 119 351 96 q 558 193 476 143 l 558 332 q 288 284 378 321 q 199 181 199 247 m 325 1072 l 442 838 l 382 838 l 156 1069 l 156 1072 l 325 1072 z "},"â":{"ha":788,"x_min":72,"x_max":683,"o":"m 683 422 l 683 17 l 558 -11 l 558 113 q 412 19 481 50 q 278 -11 343 -11 q 129 40 186 -11 q 72 175 72 90 q 192 352 72 294 q 558 413 311 410 l 558 415 q 517 547 558 501 q 399 592 476 592 q 278 567 340 592 q 151 492 217 542 l 149 493 l 175 633 q 291 689 231 671 q 418 707 351 707 q 615 633 546 707 q 683 422 683 560 m 199 181 q 226 119 199 142 q 303 96 254 96 q 414 119 351 96 q 558 193 476 143 l 558 332 q 288 284 378 321 q 199 181 199 247 m 644 838 l 586 838 l 411 971 l 236 838 l 175 838 l 175 840 l 353 1072 l 467 1072 l 644 840 l 644 838 z "},"ậ":{"ha":788,"x_min":72,"x_max":683,"o":"m 683 422 l 683 17 l 558 -11 l 558 113 q 412 19 481 50 q 278 -11 343 -11 q 129 40 186 -11 q 72 175 72 90 q 192 352 72 294 q 558 413 311 410 l 558 415 q 517 547 558 501 q 399 592 476 592 q 278 567 340 592 q 151 492 217 542 l 149 493 l 175 633 q 291 689 231 671 q 418 707 351 707 q 615 633 546 707 q 683 422 683 560 m 199 181 q 226 119 199 142 q 303 96 254 96 q 414 119 351 96 q 558 193 476 143 l 558 332 q 288 284 378 321 q 199 181 199 247 m 644 838 l 586 838 l 411 971 l 236 838 l 175 838 l 175 840 l 353 1072 l 467 1072 l 644 840 l 644 838 m 399 -292 q 338 -267 363 -292 q 313 -206 313 -242 q 338 -144 313 -169 q 399 -119 363 -119 q 460 -144 435 -119 q 485 -206 485 -169 q 460 -266 485 -240 q 399 -292 435 -292 z "},"ấ":{"ha":788,"x_min":72,"x_max":815,"o":"m 683 422 l 683 17 l 558 -11 l 558 113 q 412 19 481 50 q 278 -11 343 -11 q 129 40 186 -11 q 72 175 72 90 q 192 352 72 294 q 558 413 311 410 l 558 415 q 517 547 558 501 q 399 592 476 592 q 278 567 340 592 q 151 492 217 542 l 149 493 l 175 633 q 291 689 231 671 q 418 707 351 707 q 615 633 546 707 q 683 422 683 560 m 199 181 q 226 119 199 142 q 303 96 254 96 q 414 119 351 96 q 558 193 476 143 l 558 332 q 288 284 378 321 q 199 181 199 247 m 642 1003 l 586 1003 l 675 1181 l 815 1181 l 815 1179 l 642 1003 m 644 838 l 586 838 l 411 933 l 236 838 l 175 838 l 175 840 l 347 1019 l 472 1019 l 644 840 l 644 838 z "},"ầ":{"ha":788,"x_min":72,"x_max":728,"o":"m 683 422 l 683 17 l 558 -11 l 558 113 q 412 19 481 50 q 278 -11 343 -11 q 129 40 186 -11 q 72 175 72 90 q 192 352 72 294 q 558 413 311 410 l 558 415 q 517 547 558 501 q 399 592 476 592 q 278 567 340 592 q 151 492 217 542 l 149 493 l 175 633 q 291 689 231 671 q 418 707 351 707 q 615 633 546 707 q 683 422 683 560 m 199 181 q 226 119 199 142 q 303 96 254 96 q 414 119 351 96 q 558 193 476 143 l 558 332 q 288 284 378 321 q 199 181 199 247 m 638 1181 l 728 1003 l 671 1003 l 499 1179 l 499 1181 l 638 1181 m 644 838 l 586 838 l 411 933 l 236 838 l 175 838 l 175 840 l 347 1019 l 472 1019 l 644 840 l 644 838 z "},"ẩ":{"ha":788,"x_min":72,"x_max":813,"o":"m 683 422 l 683 17 l 558 -11 l 558 113 q 412 19 481 50 q 278 -11 343 -11 q 129 40 186 -11 q 72 175 72 90 q 192 352 72 294 q 558 413 311 410 l 558 415 q 517 547 558 501 q 399 592 476 592 q 278 567 340 592 q 151 492 217 542 l 149 493 l 175 633 q 291 689 231 671 q 418 707 351 707 q 615 633 546 707 q 683 422 683 560 m 199 181 q 226 119 199 142 q 303 96 254 96 q 414 119 351 96 q 558 193 476 143 l 558 332 q 288 284 378 321 q 199 181 199 247 m 813 1133 q 784 1070 813 1101 q 672 988 756 1039 l 608 1004 l 608 1007 q 700 1075 678 1054 q 722 1115 722 1096 q 710 1141 722 1132 q 674 1150 697 1150 q 605 1138 640 1150 q 529 1099 569 1125 l 528 1099 l 528 1179 q 601 1215 564 1203 q 682 1226 639 1226 q 777 1201 742 1226 q 813 1133 813 1176 m 644 838 l 586 838 l 411 933 l 236 838 l 175 838 l 175 840 l 347 1019 l 472 1019 l 644 840 l 644 838 z "},"ẫ":{"ha":788,"x_min":72,"x_max":683,"o":"m 683 422 l 683 17 l 558 -11 l 558 113 q 412 19 481 50 q 278 -11 343 -11 q 129 40 186 -11 q 72 175 72 90 q 192 352 72 294 q 558 413 311 410 l 558 415 q 517 547 558 501 q 399 592 476 592 q 278 567 340 592 q 151 492 217 542 l 149 493 l 175 633 q 291 689 231 671 q 418 707 351 707 q 615 633 546 707 q 683 422 683 560 m 199 181 q 226 119 199 142 q 303 96 254 96 q 414 119 351 96 q 558 193 476 143 l 558 332 q 288 284 378 321 q 199 181 199 247 m 426 1196 q 477 1173 463 1178 q 501 1168 492 1168 q 534 1181 519 1168 q 586 1238 549 1193 l 636 1204 q 555 1097 581 1119 q 497 1074 529 1074 q 460 1081 482 1074 q 394 1110 439 1088 q 344 1132 358 1126 q 319 1138 329 1138 q 289 1126 303 1138 q 236 1068 275 1114 l 185 1101 q 265 1208 239 1185 q 324 1231 292 1231 q 360 1224 339 1231 q 426 1196 382 1217 m 644 838 l 586 838 l 411 933 l 236 838 l 175 838 l 175 840 l 347 1019 l 472 1019 l 644 840 l 644 838 z "},"ǎ":{"ha":788,"x_min":72,"x_max":683,"o":"m 683 422 l 683 17 l 558 -11 l 558 113 q 412 19 481 50 q 278 -11 343 -11 q 129 40 186 -11 q 72 175 72 90 q 192 352 72 294 q 558 413 311 410 l 558 415 q 517 547 558 501 q 399 592 476 592 q 278 567 340 592 q 151 492 217 542 l 149 493 l 175 633 q 291 689 231 671 q 418 707 351 707 q 615 633 546 707 q 683 422 683 560 m 199 181 q 226 119 199 142 q 303 96 254 96 q 414 119 351 96 q 558 193 476 143 l 558 332 q 288 284 378 321 q 199 181 199 247 m 644 1072 l 644 1069 l 467 838 l 353 838 l 175 1069 l 175 1072 l 233 1072 l 408 938 l 583 1072 l 644 1072 z "},"ă":{"ha":788,"x_min":72,"x_max":683,"o":"m 683 422 l 683 17 l 558 -11 l 558 113 q 412 19 481 50 q 278 -11 343 -11 q 129 40 186 -11 q 72 175 72 90 q 192 352 72 294 q 558 413 311 410 l 558 415 q 517 547 558 501 q 399 592 476 592 q 278 567 340 592 q 151 492 217 542 l 149 493 l 175 633 q 291 689 231 671 q 418 707 351 707 q 615 633 546 707 q 683 422 683 560 m 199 181 q 226 119 199 142 q 303 96 254 96 q 414 119 351 96 q 558 193 476 143 l 558 332 q 288 284 378 321 q 199 181 199 247 m 410 829 q 278 876 336 829 q 172 1021 219 924 l 235 1056 q 323 965 282 992 q 410 938 364 938 q 497 965 456 938 q 585 1056 538 992 l 647 1021 q 542 876 600 924 q 410 829 483 829 z "},"ặ":{"ha":788,"x_min":72,"x_max":683,"o":"m 683 422 l 683 17 l 558 -11 l 558 113 q 412 19 481 50 q 278 -11 343 -11 q 129 40 186 -11 q 72 175 72 90 q 192 352 72 294 q 558 413 311 410 l 558 415 q 517 547 558 501 q 399 592 476 592 q 278 567 340 592 q 151 492 217 542 l 149 493 l 175 633 q 291 689 231 671 q 418 707 351 707 q 615 633 546 707 q 683 422 683 560 m 199 181 q 226 119 199 142 q 303 96 254 96 q 414 119 351 96 q 558 193 476 143 l 558 332 q 288 284 378 321 q 199 181 199 247 m 410 829 q 278 876 336 829 q 172 1021 219 924 l 235 1056 q 323 965 282 992 q 410 938 364 938 q 497 965 456 938 q 585 1056 538 992 l 647 1021 q 542 876 600 924 q 410 829 483 829 m 399 -292 q 338 -267 363 -292 q 313 -206 313 -242 q 338 -144 313 -169 q 399 -119 363 -119 q 460 -144 435 -119 q 485 -206 485 -169 q 460 -266 485 -240 q 399 -292 435 -292 z "},"ắ":{"ha":788,"x_min":72,"x_max":683,"o":"m 683 422 l 683 17 l 558 -11 l 558 113 q 412 19 481 50 q 278 -11 343 -11 q 129 40 186 -11 q 72 175 72 90 q 192 352 72 294 q 558 413 311 410 l 558 415 q 517 547 558 501 q 399 592 476 592 q 278 567 340 592 q 151 492 217 542 l 149 493 l 175 633 q 291 689 231 671 q 418 707 351 707 q 615 633 546 707 q 683 422 683 560 m 199 181 q 226 119 199 142 q 303 96 254 96 q 414 119 351 96 q 558 193 476 143 l 558 332 q 288 284 378 321 q 199 181 199 247 m 424 1042 l 368 1042 l 458 1219 l 622 1219 l 622 1218 l 424 1042 m 408 829 q 277 865 335 829 q 172 979 219 901 l 217 1019 q 313 947 269 968 q 407 926 356 926 q 503 949 458 926 q 600 1024 549 972 l 646 986 q 543 869 603 908 q 408 829 483 829 z "},"ằ":{"ha":788,"x_min":72,"x_max":683,"o":"m 683 422 l 683 17 l 558 -11 l 558 113 q 412 19 481 50 q 278 -11 343 -11 q 129 40 186 -11 q 72 175 72 90 q 192 352 72 294 q 558 413 311 410 l 558 415 q 517 547 558 501 q 399 592 476 592 q 278 567 340 592 q 151 492 217 542 l 149 493 l 175 633 q 291 689 231 671 q 418 707 351 707 q 615 633 546 707 q 683 422 683 560 m 199 181 q 226 119 199 142 q 303 96 254 96 q 414 119 351 96 q 558 193 476 143 l 558 332 q 288 284 378 321 q 199 181 199 247 m 361 1219 l 451 1042 l 396 1042 l 197 1218 l 197 1219 l 361 1219 m 408 829 q 277 865 335 829 q 172 979 219 901 l 217 1019 q 313 947 269 968 q 407 926 356 926 q 503 949 458 926 q 600 1024 549 972 l 646 986 q 543 869 603 908 q 408 829 483 829 z "},"ẳ":{"ha":788,"x_min":72,"x_max":683,"o":"m 683 422 l 683 17 l 558 -11 l 558 113 q 412 19 481 50 q 278 -11 343 -11 q 129 40 186 -11 q 72 175 72 90 q 192 352 72 294 q 558 413 311 410 l 558 415 q 517 547 558 501 q 399 592 476 592 q 278 567 340 592 q 151 492 217 542 l 149 493 l 175 633 q 291 689 231 671 q 418 707 351 707 q 615 633 546 707 q 683 422 683 560 m 199 181 q 226 119 199 142 q 303 96 254 96 q 414 119 351 96 q 558 193 476 143 l 558 332 q 288 284 378 321 q 199 181 199 247 m 564 1182 q 536 1119 564 1150 q 419 1033 508 1089 l 356 1051 l 356 1054 q 449 1124 425 1101 q 474 1164 474 1146 q 460 1190 474 1181 q 422 1200 446 1200 q 353 1188 389 1200 q 275 1147 318 1175 l 274 1147 l 274 1228 q 347 1264 307 1251 q 431 1276 386 1276 q 528 1251 492 1276 q 564 1182 564 1225 m 408 829 q 277 865 335 829 q 172 979 219 901 l 217 1019 q 313 947 269 968 q 407 926 356 926 q 503 949 458 926 q 600 1024 549 972 l 646 986 q 543 869 603 908 q 408 829 483 829 z "},"ẵ":{"ha":788,"x_min":72,"x_max":683,"o":"m 683 422 l 683 17 l 558 -11 l 558 113 q 412 19 481 50 q 278 -11 343 -11 q 129 40 186 -11 q 72 175 72 90 q 192 352 72 294 q 558 413 311 410 l 558 415 q 517 547 558 501 q 399 592 476 592 q 278 567 340 592 q 151 492 217 542 l 149 493 l 175 633 q 291 689 231 671 q 418 707 351 707 q 615 633 546 707 q 683 422 683 560 m 199 181 q 226 119 199 142 q 303 96 254 96 q 414 119 351 96 q 558 193 476 143 l 558 332 q 288 284 378 321 q 199 181 199 247 m 429 1200 q 481 1176 465 1182 q 506 1171 496 1171 q 542 1183 525 1171 q 596 1236 558 1196 l 647 1201 q 561 1099 588 1121 q 503 1076 535 1076 q 461 1084 485 1076 q 390 1115 438 1092 q 339 1139 354 1133 q 314 1144 324 1144 q 280 1133 296 1144 q 224 1079 264 1121 l 172 1114 q 260 1217 233 1196 q 317 1239 286 1239 q 358 1231 335 1239 q 429 1200 382 1224 m 408 829 q 277 865 335 829 q 172 979 219 901 l 217 1019 q 313 947 269 968 q 407 926 356 926 q 503 949 458 926 q 600 1024 549 972 l 646 986 q 543 869 603 908 q 408 829 483 829 z "},"ã":{"ha":788,"x_min":72,"x_max":683,"o":"m 683 422 l 683 17 l 558 -11 l 558 113 q 412 19 481 50 q 278 -11 343 -11 q 129 40 186 -11 q 72 175 72 90 q 192 352 72 294 q 558 413 311 410 l 558 415 q 517 547 558 501 q 399 592 476 592 q 278 567 340 592 q 151 492 217 542 l 149 493 l 175 633 q 291 689 231 671 q 418 707 351 707 q 615 633 546 707 q 683 422 683 560 m 199 181 q 226 119 199 142 q 303 96 254 96 q 414 119 351 96 q 558 193 476 143 l 558 332 q 288 284 378 321 q 199 181 199 247 m 432 988 q 491 953 474 961 q 518 944 508 944 q 550 960 535 944 q 617 1049 565 975 l 679 1010 q 583 868 615 900 q 510 836 550 836 q 467 847 492 836 q 388 893 442 858 q 328 928 346 919 q 301 936 311 936 q 272 922 286 936 q 203 832 257 908 l 140 869 q 237 1012 204 979 q 310 1044 269 1044 q 353 1033 328 1044 q 432 988 378 1022 z "},"ā":{"ha":788,"x_min":72,"x_max":683,"o":"m 683 422 l 683 17 l 558 -11 l 558 113 q 412 19 481 50 q 278 -11 343 -11 q 129 40 186 -11 q 72 175 72 90 q 192 352 72 294 q 558 413 311 410 l 558 415 q 517 547 558 501 q 399 592 476 592 q 278 567 340 592 q 151 492 217 542 l 149 493 l 175 633 q 291 689 231 671 q 418 707 351 707 q 615 633 546 707 q 683 422 683 560 m 199 181 q 226 119 199 142 q 303 96 254 96 q 414 119 351 96 q 558 193 476 143 l 558 332 q 288 284 378 321 q 199 181 199 247 m 176 872 l 176 967 l 643 967 l 643 872 l 176 872 z "},"ä":{"ha":788,"x_min":72,"x_max":683,"o":"m 683 422 l 683 17 l 558 -11 l 558 113 q 412 19 481 50 q 278 -11 343 -11 q 129 40 186 -11 q 72 175 72 90 q 192 352 72 294 q 558 413 311 410 l 558 415 q 517 547 558 501 q 399 592 476 592 q 278 567 340 592 q 151 492 217 542 l 149 493 l 175 633 q 291 689 231 671 q 418 707 351 707 q 615 633 546 707 q 683 422 683 560 m 199 181 q 226 119 199 142 q 303 96 254 96 q 414 119 351 96 q 558 193 476 143 l 558 332 q 288 284 378 321 q 199 181 199 247 m 267 836 q 206 861 231 836 q 181 922 181 886 q 206 983 181 958 q 267 1008 231 1008 q 328 983 303 1008 q 353 922 353 958 q 328 861 353 886 q 267 836 303 836 m 553 836 q 492 861 517 836 q 467 922 467 886 q 492 983 467 958 q 553 1008 517 1008 q 614 983 589 1008 q 639 922 639 958 q 614 861 639 886 q 553 836 589 836 z "},"ȧ":{"ha":788,"x_min":72,"x_max":683,"o":"m 683 422 l 683 17 l 558 -11 l 558 113 q 412 19 481 50 q 278 -11 343 -11 q 129 40 186 -11 q 72 175 72 90 q 192 352 72 294 q 558 413 311 410 l 558 415 q 517 547 558 501 q 399 592 476 592 q 278 567 340 592 q 151 492 217 542 l 149 493 l 175 633 q 291 689 231 671 q 418 707 351 707 q 615 633 546 707 q 683 422 683 560 m 199 181 q 226 119 199 142 q 303 96 254 96 q 414 119 351 96 q 558 193 476 143 l 558 332 q 288 284 378 321 q 199 181 199 247 m 410 836 q 349 861 374 836 q 324 922 324 886 q 349 983 324 958 q 410 1008 374 1008 q 471 983 446 1008 q 496 922 496 958 q 471 861 496 886 q 410 836 446 836 z "},"å":{"ha":788,"x_min":72,"x_max":683,"o":"m 683 422 l 683 17 l 558 -11 l 558 113 q 412 19 481 50 q 278 -11 343 -11 q 129 40 186 -11 q 72 175 72 90 q 192 352 72 294 q 558 413 311 410 l 558 415 q 517 547 558 501 q 399 592 476 592 q 278 567 340 592 q 151 492 217 542 l 149 493 l 175 633 q 291 689 231 671 q 418 707 351 707 q 615 633 546 707 q 683 422 683 560 m 199 181 q 226 119 199 142 q 303 96 254 96 q 414 119 351 96 q 558 193 476 143 l 558 332 q 288 284 378 321 q 199 181 199 247 m 410 828 q 290 878 339 828 q 240 997 240 928 q 290 1117 240 1067 q 410 1167 339 1167 q 530 1117 481 1167 q 579 997 579 1067 q 530 878 579 928 q 410 828 481 828 m 518 997 q 487 1076 518 1043 q 410 1108 456 1108 q 333 1076 364 1108 q 301 997 301 1043 q 333 917 301 950 q 410 885 364 885 q 487 917 456 885 q 518 997 518 950 z "},"ǻ":{"ha":788,"x_min":72,"x_max":683,"o":"m 683 422 l 683 17 l 558 -11 l 558 113 q 412 19 481 50 q 278 -11 343 -11 q 129 40 186 -11 q 72 175 72 90 q 192 352 72 294 q 558 413 311 410 l 558 415 q 517 547 558 501 q 399 592 476 592 q 278 567 340 592 q 151 492 217 542 l 149 493 l 175 633 q 291 689 231 671 q 418 707 351 707 q 615 633 546 707 q 683 422 683 560 m 199 181 q 226 119 199 142 q 303 96 254 96 q 414 119 351 96 q 558 193 476 143 l 558 332 q 288 284 378 321 q 199 181 199 247 m 449 1206 l 392 1206 l 476 1356 l 614 1356 l 614 1354 l 449 1206 m 410 828 q 290 878 339 828 q 240 997 240 928 q 290 1117 240 1067 q 410 1167 339 1167 q 530 1117 481 1167 q 579 997 579 1067 q 530 878 579 928 q 410 828 481 828 m 518 997 q 487 1076 518 1043 q 410 1108 456 1108 q 333 1076 364 1108 q 301 997 301 1043 q 333 917 301 950 q 410 885 364 885 q 487 917 456 885 q 518 997 518 950 z "},"ả":{"ha":788,"x_min":72,"x_max":683,"o":"m 683 422 l 683 17 l 558 -11 l 558 113 q 412 19 481 50 q 278 -11 343 -11 q 129 40 186 -11 q 72 175 72 90 q 192 352 72 294 q 558 413 311 410 l 558 415 q 517 547 558 501 q 399 592 476 592 q 278 567 340 592 q 151 492 217 542 l 149 493 l 175 633 q 291 689 231 671 q 418 707 351 707 q 615 633 546 707 q 683 422 683 560 m 199 181 q 226 119 199 142 q 303 96 254 96 q 414 119 351 96 q 558 193 476 143 l 558 332 q 288 284 378 321 q 199 181 199 247 m 579 1019 q 547 935 579 976 q 419 828 514 894 l 349 849 l 349 851 q 455 947 429 918 q 481 1000 481 975 q 465 1033 481 1021 q 421 1046 449 1046 q 346 1028 385 1046 q 263 976 307 1011 l 260 976 l 260 1078 q 341 1124 299 1108 q 432 1139 383 1139 q 539 1106 499 1139 q 579 1019 579 1074 z "},"ạ":{"ha":788,"x_min":72,"x_max":683,"o":"m 683 422 l 683 17 l 558 -11 l 558 113 q 412 19 481 50 q 278 -11 343 -11 q 129 40 186 -11 q 72 175 72 90 q 192 352 72 294 q 558 413 311 410 l 558 415 q 517 547 558 501 q 399 592 476 592 q 278 567 340 592 q 151 492 217 542 l 149 493 l 175 633 q 291 689 231 671 q 418 707 351 707 q 615 633 546 707 q 683 422 683 560 m 199 181 q 226 119 199 142 q 303 96 254 96 q 414 119 351 96 q 558 193 476 143 l 558 332 q 288 284 378 321 q 199 181 199 247 m 399 -292 q 338 -267 363 -292 q 313 -206 313 -242 q 338 -144 313 -169 q 399 -119 363 -119 q 460 -144 435 -119 q 485 -206 485 -169 q 460 -266 485 -240 q 399 -292 435 -292 z "},"ą":{"ha":788,"x_min":72,"x_max":711,"o":"m 711 -200 l 693 -258 q 647 -267 671 -264 q 603 -269 624 -269 q 497 -242 535 -269 q 458 -165 458 -215 q 472 -114 458 -140 q 515 -50 485 -87 l 558 3 l 558 113 q 412 19 481 50 q 278 -11 343 -11 q 129 40 186 -11 q 72 175 72 90 q 192 352 72 294 q 558 413 311 410 l 558 415 q 517 547 558 501 q 399 592 476 592 q 278 567 340 592 q 151 492 217 542 l 149 493 l 175 633 q 291 689 231 671 q 418 707 351 707 q 615 633 546 707 q 683 422 683 560 l 683 17 l 638 7 l 589 -79 q 572 -115 576 -101 q 567 -144 567 -129 q 593 -187 567 -174 q 679 -200 619 -200 l 711 -200 m 199 181 q 226 119 199 142 q 303 96 254 96 q 414 119 351 96 q 558 193 476 143 l 558 332 q 288 284 378 321 q 199 181 199 247 z "},"æ":{"ha":1268,"x_min":72,"x_max":1207,"o":"m 1185 182 l 1140 46 q 1026 -1 1079 13 q 911 -15 974 -15 q 739 22 815 -15 q 617 129 663 60 q 446 23 525 57 q 290 -11 367 -11 q 132 39 192 -11 q 72 175 72 89 q 192 352 72 294 q 557 413 311 410 l 557 418 q 517 547 557 503 q 399 592 476 592 q 278 567 340 592 q 151 492 217 542 l 149 493 l 175 633 q 291 689 231 671 q 418 707 351 707 q 553 678 497 707 q 643 594 610 650 q 753 683 689 651 q 892 714 818 714 q 1122 613 1036 714 q 1207 354 1207 513 q 1206 324 1207 340 q 1203 299 1204 307 l 682 299 q 760 151 696 204 q 925 99 825 99 q 1051 121 985 99 q 1182 183 1117 143 l 1185 182 m 886 604 q 745 544 803 604 q 679 392 688 485 l 1081 392 q 1021 548 1072 492 q 886 604 969 604 m 557 332 q 288 284 376 321 q 199 181 199 247 q 227 119 199 142 q 303 96 256 96 q 424 124 357 96 q 578 210 490 151 q 563 268 568 238 q 557 332 558 299 z "},"ǽ":{"ha":1268,"x_min":72,"x_max":1207,"o":"m 1185 182 l 1140 46 q 1026 -1 1079 13 q 911 -15 974 -15 q 739 22 815 -15 q 617 129 663 60 q 446 23 525 57 q 290 -11 367 -11 q 132 39 192 -11 q 72 175 72 89 q 192 352 72 294 q 557 413 311 410 l 557 418 q 517 547 557 503 q 399 592 476 592 q 278 567 340 592 q 151 492 217 542 l 149 493 l 175 633 q 291 689 231 671 q 418 707 351 707 q 553 678 497 707 q 643 594 610 650 q 753 683 689 651 q 892 714 818 714 q 1122 613 1036 714 q 1207 354 1207 513 q 1206 324 1207 340 q 1203 299 1204 307 l 682 299 q 760 151 696 204 q 925 99 825 99 q 1051 121 985 99 q 1182 183 1117 143 l 1185 182 m 886 604 q 745 544 803 604 q 679 392 688 485 l 1081 392 q 1021 548 1072 492 q 886 604 969 604 m 557 332 q 288 284 376 321 q 199 181 199 247 q 227 119 199 142 q 303 96 256 96 q 424 124 357 96 q 578 210 490 151 q 563 268 568 238 q 557 332 558 299 m 681 840 l 621 840 l 738 1075 l 907 1075 l 907 1072 l 681 840 z "},"ḇ":{"ha":856,"x_min":118,"x_max":793,"o":"m 488 708 q 705 610 617 708 q 793 367 793 513 q 683 95 793 201 q 411 -11 574 -11 q 318 -1 364 -11 q 224 29 272 8 l 133 0 l 118 0 l 118 1008 l 243 1054 l 243 593 q 363 681 304 654 q 488 708 421 708 m 665 358 q 605 530 665 464 q 450 596 544 596 q 347 575 396 596 q 243 508 299 554 l 243 133 q 325 108 285 117 q 408 100 365 100 q 592 174 519 100 q 665 358 665 247 m 193 -249 l 193 -154 l 660 -154 l 660 -249 l 193 -249 z "},"ć":{"ha":749,"x_min":61,"x_max":679,"o":"m 679 207 l 657 63 q 539 3 600 24 q 415 -17 478 -17 q 160 85 258 -17 q 61 346 61 186 q 166 606 61 501 q 431 711 271 711 q 557 691 500 711 q 664 628 614 671 l 664 474 l 661 474 q 542 567 599 538 q 428 596 486 596 q 258 524 326 596 q 190 347 190 451 q 255 169 190 239 q 421 99 319 99 q 550 128 482 99 q 676 208 618 158 l 679 207 m 433 843 l 374 843 l 490 1078 l 660 1078 l 660 1075 l 433 843 z "},"ĉ":{"ha":749,"x_min":61,"x_max":679,"o":"m 679 207 l 657 63 q 539 3 600 24 q 415 -17 478 -17 q 160 85 258 -17 q 61 346 61 186 q 166 606 61 501 q 431 711 271 711 q 557 691 500 711 q 664 628 614 671 l 664 474 l 661 474 q 542 567 599 538 q 428 596 486 596 q 258 524 326 596 q 190 347 190 451 q 255 169 190 239 q 421 99 319 99 q 550 128 482 99 q 676 208 618 158 l 679 207 m 639 831 l 581 831 l 406 964 l 231 831 l 169 831 l 169 833 l 347 1065 l 461 1065 l 639 833 l 639 831 z "},"č":{"ha":749,"x_min":61,"x_max":679,"o":"m 679 207 l 657 63 q 539 3 600 24 q 415 -17 478 -17 q 160 85 258 -17 q 61 346 61 186 q 166 606 61 501 q 431 711 271 711 q 557 691 500 711 q 664 628 614 671 l 664 474 l 661 474 q 542 567 599 538 q 428 596 486 596 q 258 524 326 596 q 190 347 190 451 q 255 169 190 239 q 421 99 319 99 q 550 128 482 99 q 676 208 618 158 l 679 207 m 640 1078 l 640 1075 l 463 843 l 349 843 l 171 1075 l 171 1078 l 229 1078 l 404 943 l 579 1078 l 640 1078 z "},"ċ":{"ha":749,"x_min":61,"x_max":679,"o":"m 679 207 l 657 63 q 539 3 600 24 q 415 -17 478 -17 q 160 85 258 -17 q 61 346 61 186 q 166 606 61 501 q 431 711 271 711 q 557 691 500 711 q 664 628 614 671 l 664 474 l 661 474 q 542 567 599 538 q 428 596 486 596 q 258 524 326 596 q 190 347 190 451 q 255 169 190 239 q 421 99 319 99 q 550 128 482 99 q 676 208 618 158 l 679 207 m 406 842 q 344 867 369 842 q 319 928 319 892 q 344 989 319 964 q 406 1014 369 1014 q 467 989 442 1014 q 492 928 492 964 q 467 867 492 892 q 406 842 442 842 z "},"ç":{"ha":749,"x_min":61,"x_max":679,"o":"m 533 -167 q 490 -247 533 -217 q 371 -276 446 -276 q 328 -274 349 -276 q 285 -265 308 -271 l 250 -200 l 253 -196 q 308 -212 285 -207 q 358 -217 332 -217 q 417 -205 396 -217 q 438 -172 438 -193 q 421 -144 438 -153 q 369 -135 404 -135 q 335 -136 350 -135 q 304 -140 321 -137 l 299 -135 l 369 -14 q 146 100 231 1 q 61 346 61 199 q 166 606 61 501 q 431 711 271 711 q 557 691 500 711 q 664 628 614 671 l 664 474 l 661 474 q 542 567 599 538 q 428 596 486 596 q 258 524 326 596 q 190 347 190 451 q 255 169 190 239 q 421 99 319 99 q 550 128 482 99 q 676 208 618 158 l 679 207 l 657 63 q 553 8 606 28 q 444 -15 500 -11 l 407 -75 q 501 -101 469 -78 q 533 -167 533 -124 z "},"ď":{"ha":861,"x_min":61,"x_max":956,"o":"m 744 0 l 618 0 l 618 100 q 502 13 558 40 q 378 -14 446 -14 q 153 85 244 -14 q 61 333 61 185 q 164 599 61 493 q 411 706 267 706 q 516 688 465 706 q 618 633 567 671 l 618 1008 l 744 1054 l 744 0 m 432 594 q 259 524 328 594 q 190 343 190 453 q 253 167 190 236 q 411 99 317 99 q 514 119 465 99 q 618 186 563 140 l 618 536 q 525 581 569 567 q 432 594 481 594 m 882 763 l 822 763 q 849 833 840 799 q 858 901 858 868 q 849 972 858 938 q 822 1042 840 1006 l 942 1042 q 952 997 949 1018 q 956 954 956 975 q 937 858 956 906 q 882 763 918 810 z "},"ḓ":{"ha":861,"x_min":61,"x_max":744,"o":"m 744 0 l 618 0 l 618 100 q 502 13 558 40 q 378 -14 446 -14 q 153 85 244 -14 q 61 333 61 185 q 164 599 61 493 q 411 706 267 706 q 516 688 465 706 q 618 633 567 671 l 618 1008 l 744 1054 l 744 0 m 432 594 q 259 524 328 594 q 190 343 190 453 q 253 167 190 236 q 411 99 317 99 q 514 119 465 99 q 618 186 563 140 l 618 536 q 525 581 569 567 q 432 594 481 594 m 661 -354 l 603 -354 l 428 -221 l 253 -354 l 192 -354 l 192 -353 l 369 -119 l 483 -119 l 661 -353 l 661 -354 z "},"ḏ":{"ha":861,"x_min":61,"x_max":744,"o":"m 744 0 l 618 0 l 618 100 q 502 13 558 40 q 378 -14 446 -14 q 153 85 244 -14 q 61 333 61 185 q 164 599 61 493 q 411 706 267 706 q 516 688 465 706 q 618 633 567 671 l 618 1008 l 744 1054 l 744 0 m 432 594 q 259 524 328 594 q 190 343 190 453 q 253 167 190 236 q 411 99 317 99 q 514 119 465 99 q 618 186 563 140 l 618 536 q 525 581 569 567 q 432 594 481 594 m 193 -249 l 193 -154 l 660 -154 l 660 -249 l 193 -249 z "},"ḍ":{"ha":861,"x_min":61,"x_max":744,"o":"m 744 0 l 618 0 l 618 100 q 502 13 558 40 q 378 -14 446 -14 q 153 85 244 -14 q 61 333 61 185 q 164 599 61 493 q 411 706 267 706 q 516 688 465 706 q 618 633 567 671 l 618 1008 l 744 1054 l 744 0 m 432 594 q 259 524 328 594 q 190 343 190 453 q 253 167 190 236 q 411 99 317 99 q 514 119 465 99 q 618 186 563 140 l 618 536 q 525 581 569 567 q 432 594 481 594 m 426 -292 q 365 -267 390 -292 q 340 -206 340 -242 q 365 -144 340 -169 q 426 -119 390 -119 q 488 -144 463 -119 q 513 -206 513 -169 q 488 -266 513 -240 q 426 -292 463 -292 z "},"đ":{"ha":874,"x_min":61,"x_max":856,"o":"m 744 0 l 618 0 l 618 99 q 501 13 558 39 q 378 -14 444 -14 q 153 85 244 -14 q 61 331 61 183 q 165 594 61 489 q 411 699 268 699 q 517 681 467 699 q 618 628 568 664 l 618 815 l 413 815 l 413 899 l 618 899 l 618 1008 l 744 1054 l 744 899 l 856 899 l 856 815 l 744 815 l 744 0 m 432 588 q 259 517 328 588 q 190 339 190 446 q 253 167 190 235 q 411 99 317 99 q 515 119 465 99 q 618 185 564 139 l 618 529 q 525 574 569 560 q 432 588 481 588 z "},"é":{"ha":776,"x_min":60,"x_max":715,"o":"m 694 183 l 649 46 q 535 -1 588 13 q 419 -15 482 -15 q 157 83 254 -15 q 60 347 60 182 q 157 607 60 500 q 399 714 254 714 q 629 613 543 714 q 715 354 715 513 q 714 324 715 340 q 711 299 713 307 l 189 299 q 267 151 203 204 q 433 99 332 99 q 562 122 494 99 q 692 185 629 144 l 694 183 m 394 604 q 252 544 310 604 q 186 392 194 485 l 589 392 q 529 548 581 492 q 394 604 478 604 m 429 843 l 369 843 l 486 1078 l 656 1078 l 656 1075 l 429 843 z "},"è":{"ha":776,"x_min":60,"x_max":715,"o":"m 694 183 l 649 46 q 535 -1 588 13 q 419 -15 482 -15 q 157 83 254 -15 q 60 347 60 182 q 157 607 60 500 q 399 714 254 714 q 629 613 543 714 q 715 354 715 513 q 714 324 715 340 q 711 299 713 307 l 189 299 q 267 151 203 204 q 433 99 332 99 q 562 122 494 99 q 692 185 629 144 l 694 183 m 394 604 q 252 544 310 604 q 186 392 194 485 l 589 392 q 529 548 581 492 q 394 604 478 604 m 317 1078 l 433 843 l 374 843 l 147 1075 l 147 1078 l 317 1078 z "},"ê":{"ha":776,"x_min":60,"x_max":715,"o":"m 694 183 l 649 46 q 535 -1 588 13 q 419 -15 482 -15 q 157 83 254 -15 q 60 347 60 182 q 157 607 60 500 q 399 714 254 714 q 629 613 543 714 q 715 354 715 513 q 714 324 715 340 q 711 299 713 307 l 189 299 q 267 151 203 204 q 433 99 332 99 q 562 122 494 99 q 692 185 629 144 l 694 183 m 394 604 q 252 544 310 604 q 186 392 194 485 l 589 392 q 529 548 581 492 q 394 604 478 604 m 636 831 l 578 831 l 403 964 l 228 831 l 167 831 l 167 833 l 344 1065 l 458 1065 l 636 833 l 636 831 z "},"ệ":{"ha":776,"x_min":60,"x_max":715,"o":"m 694 183 l 649 46 q 535 -1 588 13 q 419 -15 482 -15 q 157 83 254 -15 q 60 347 60 182 q 157 607 60 500 q 399 714 254 714 q 629 613 543 714 q 715 354 715 513 q 714 324 715 340 q 711 299 713 307 l 189 299 q 267 151 203 204 q 433 99 332 99 q 562 122 494 99 q 692 185 629 144 l 694 183 m 394 604 q 252 544 310 604 q 186 392 194 485 l 589 392 q 529 548 581 492 q 394 604 478 604 m 636 831 l 578 831 l 403 964 l 228 831 l 167 831 l 167 833 l 344 1065 l 458 1065 l 636 833 l 636 831 m 411 -297 q 350 -272 375 -297 q 325 -211 325 -247 q 350 -150 325 -175 q 411 -125 375 -125 q 472 -150 447 -125 q 497 -211 497 -175 q 472 -272 497 -246 q 411 -297 447 -297 z "},"ế":{"ha":776,"x_min":60,"x_max":807,"o":"m 694 183 l 649 46 q 535 -1 588 13 q 419 -15 482 -15 q 157 83 254 -15 q 60 347 60 182 q 157 607 60 500 q 399 714 254 714 q 629 613 543 714 q 715 354 715 513 q 714 324 715 340 q 711 299 713 307 l 189 299 q 267 151 203 204 q 433 99 332 99 q 562 122 494 99 q 692 185 629 144 l 694 183 m 394 604 q 252 544 310 604 q 186 392 194 485 l 589 392 q 529 548 581 492 q 394 604 478 604 m 633 996 l 578 996 l 667 1174 l 807 1174 l 807 1172 l 633 996 m 636 831 l 578 831 l 403 926 l 228 831 l 167 831 l 167 833 l 339 1013 l 464 1013 l 636 833 l 636 831 z "},"ề":{"ha":776,"x_min":60,"x_max":719,"o":"m 694 183 l 649 46 q 535 -1 588 13 q 419 -15 482 -15 q 157 83 254 -15 q 60 347 60 182 q 157 607 60 500 q 399 714 254 714 q 629 613 543 714 q 715 354 715 513 q 714 324 715 340 q 711 299 713 307 l 189 299 q 267 151 203 204 q 433 99 332 99 q 562 122 494 99 q 692 185 629 144 l 694 183 m 394 604 q 252 544 310 604 q 186 392 194 485 l 589 392 q 529 548 581 492 q 394 604 478 604 m 629 1174 l 719 996 l 663 996 l 490 1172 l 490 1174 l 629 1174 m 636 831 l 578 831 l 403 926 l 228 831 l 167 831 l 167 833 l 339 1013 l 464 1013 l 636 833 l 636 831 z "},"ể":{"ha":776,"x_min":60,"x_max":804,"o":"m 694 183 l 649 46 q 535 -1 588 13 q 419 -15 482 -15 q 157 83 254 -15 q 60 347 60 182 q 157 607 60 500 q 399 714 254 714 q 629 613 543 714 q 715 354 715 513 q 714 324 715 340 q 711 299 713 307 l 189 299 q 267 151 203 204 q 433 99 332 99 q 562 122 494 99 q 692 185 629 144 l 694 183 m 394 604 q 252 544 310 604 q 186 392 194 485 l 589 392 q 529 548 581 492 q 394 604 478 604 m 804 1126 q 776 1063 804 1094 q 664 981 747 1032 l 600 997 l 600 1000 q 692 1068 669 1047 q 714 1108 714 1089 q 701 1134 714 1125 q 665 1143 689 1143 q 597 1131 632 1143 q 521 1092 561 1118 l 519 1092 l 519 1172 q 593 1208 556 1196 q 674 1219 631 1219 q 769 1194 733 1219 q 804 1126 804 1169 m 636 831 l 578 831 l 403 926 l 228 831 l 167 831 l 167 833 l 339 1013 l 464 1013 l 636 833 l 636 831 z "},"ễ":{"ha":776,"x_min":60,"x_max":715,"o":"m 694 183 l 649 46 q 535 -1 588 13 q 419 -15 482 -15 q 157 83 254 -15 q 60 347 60 182 q 157 607 60 500 q 399 714 254 714 q 629 613 543 714 q 715 354 715 513 q 714 324 715 340 q 711 299 713 307 l 189 299 q 267 151 203 204 q 433 99 332 99 q 562 122 494 99 q 692 185 629 144 l 694 183 m 394 604 q 252 544 310 604 q 186 392 194 485 l 589 392 q 529 548 581 492 q 394 604 478 604 m 418 1189 q 469 1166 454 1171 q 493 1161 483 1161 q 526 1174 511 1161 q 578 1231 540 1186 l 628 1197 q 547 1090 572 1113 q 489 1067 521 1067 q 452 1074 474 1067 q 386 1103 431 1081 q 335 1125 350 1119 q 311 1131 321 1131 q 281 1119 294 1131 q 228 1061 267 1107 l 176 1094 q 257 1201 231 1178 q 315 1224 283 1224 q 352 1217 331 1224 q 418 1189 374 1210 m 636 831 l 578 831 l 403 926 l 228 831 l 167 831 l 167 833 l 339 1013 l 464 1013 l 636 833 l 636 831 z "},"ě":{"ha":776,"x_min":60,"x_max":715,"o":"m 694 183 l 649 46 q 535 -1 588 13 q 419 -15 482 -15 q 157 83 254 -15 q 60 347 60 182 q 157 607 60 500 q 399 714 254 714 q 629 613 543 714 q 715 354 715 513 q 714 324 715 340 q 711 299 713 307 l 189 299 q 267 151 203 204 q 433 99 332 99 q 562 122 494 99 q 692 185 629 144 l 694 183 m 394 604 q 252 544 310 604 q 186 392 194 485 l 589 392 q 529 548 581 492 q 394 604 478 604 m 636 1078 l 636 1075 l 458 843 l 344 843 l 167 1075 l 167 1078 l 225 1078 l 400 943 l 575 1078 l 636 1078 z "},"ĕ":{"ha":776,"x_min":60,"x_max":715,"o":"m 694 183 l 649 46 q 535 -1 588 13 q 419 -15 482 -15 q 157 83 254 -15 q 60 347 60 182 q 157 607 60 500 q 399 714 254 714 q 629 613 543 714 q 715 354 715 513 q 714 324 715 340 q 711 299 713 307 l 189 299 q 267 151 203 204 q 433 99 332 99 q 562 122 494 99 q 692 185 629 144 l 694 183 m 394 604 q 252 544 310 604 q 186 392 194 485 l 589 392 q 529 548 581 492 q 394 604 478 604 m 401 835 q 269 882 328 835 q 164 1026 211 929 l 226 1061 q 315 970 274 997 q 401 943 356 943 q 488 970 447 943 q 576 1061 529 997 l 639 1026 q 533 882 592 929 q 401 835 475 835 z "},"ẽ":{"ha":776,"x_min":60,"x_max":715,"o":"m 694 183 l 649 46 q 535 -1 588 13 q 419 -15 482 -15 q 157 83 254 -15 q 60 347 60 182 q 157 607 60 500 q 399 714 254 714 q 629 613 543 714 q 715 354 715 513 q 714 324 715 340 q 711 299 713 307 l 189 299 q 267 151 203 204 q 433 99 332 99 q 562 122 494 99 q 692 185 629 144 l 694 183 m 394 604 q 252 544 310 604 q 186 392 194 485 l 589 392 q 529 548 581 492 q 394 604 478 604 m 424 993 q 483 958 465 967 q 510 950 500 950 q 542 965 526 950 q 608 1054 557 981 l 671 1015 q 574 874 607 906 q 501 842 542 842 q 458 853 483 842 q 379 899 433 864 q 320 933 338 925 q 293 942 303 942 q 263 928 278 942 q 194 838 249 914 l 132 875 q 228 1017 196 985 q 301 1050 261 1050 q 344 1039 319 1050 q 424 993 369 1028 z "},"ē":{"ha":776,"x_min":60,"x_max":715,"o":"m 694 183 l 649 46 q 535 -1 588 13 q 419 -15 482 -15 q 157 83 254 -15 q 60 347 60 182 q 157 607 60 500 q 399 714 254 714 q 629 613 543 714 q 715 354 715 513 q 714 324 715 340 q 711 299 713 307 l 189 299 q 267 151 203 204 q 433 99 332 99 q 562 122 494 99 q 692 185 629 144 l 694 183 m 394 604 q 252 544 310 604 q 186 392 194 485 l 589 392 q 529 548 581 492 q 394 604 478 604 m 168 878 l 168 972 l 635 972 l 635 878 l 168 878 z "},"ë":{"ha":776,"x_min":60,"x_max":715,"o":"m 694 183 l 649 46 q 535 -1 588 13 q 419 -15 482 -15 q 157 83 254 -15 q 60 347 60 182 q 157 607 60 500 q 399 714 254 714 q 629 613 543 714 q 715 354 715 513 q 714 324 715 340 q 711 299 713 307 l 189 299 q 267 151 203 204 q 433 99 332 99 q 562 122 494 99 q 692 185 629 144 l 694 183 m 394 604 q 252 544 310 604 q 186 392 194 485 l 589 392 q 529 548 581 492 q 394 604 478 604 m 258 842 q 197 867 222 842 q 172 928 172 892 q 197 989 172 964 q 258 1014 222 1014 q 319 989 294 1014 q 344 928 344 964 q 319 867 344 892 q 258 842 294 842 m 544 842 q 483 867 508 842 q 458 928 458 892 q 483 989 458 964 q 544 1014 508 1014 q 606 989 581 1014 q 631 928 631 964 q 606 867 631 892 q 544 842 581 842 z "},"ė":{"ha":776,"x_min":60,"x_max":715,"o":"m 694 183 l 649 46 q 535 -1 588 13 q 419 -15 482 -15 q 157 83 254 -15 q 60 347 60 182 q 157 607 60 500 q 399 714 254 714 q 629 613 543 714 q 715 354 715 513 q 714 324 715 340 q 711 299 713 307 l 189 299 q 267 151 203 204 q 433 99 332 99 q 562 122 494 99 q 692 185 629 144 l 694 183 m 394 604 q 252 544 310 604 q 186 392 194 485 l 589 392 q 529 548 581 492 q 394 604 478 604 m 401 842 q 340 867 365 842 q 315 928 315 892 q 340 989 315 964 q 401 1014 365 1014 q 463 989 438 1014 q 488 928 488 964 q 463 867 488 892 q 401 842 438 842 z "},"ẻ":{"ha":776,"x_min":60,"x_max":715,"o":"m 694 183 l 649 46 q 535 -1 588 13 q 419 -15 482 -15 q 157 83 254 -15 q 60 347 60 182 q 157 607 60 500 q 399 714 254 714 q 629 613 543 714 q 715 354 715 513 q 714 324 715 340 q 711 299 713 307 l 189 299 q 267 151 203 204 q 433 99 332 99 q 562 122 494 99 q 692 185 629 144 l 694 183 m 394 604 q 252 544 310 604 q 186 392 194 485 l 589 392 q 529 548 581 492 q 394 604 478 604 m 571 1025 q 538 941 571 982 q 411 833 506 900 l 340 854 l 340 857 q 447 952 421 924 q 472 1006 472 981 q 456 1039 472 1026 q 413 1051 440 1051 q 338 1034 376 1051 q 254 982 299 1017 l 251 982 l 251 1083 q 333 1129 290 1114 q 424 1144 375 1144 q 531 1112 490 1144 q 571 1025 571 1079 z "},"ẹ":{"ha":776,"x_min":60,"x_max":715,"o":"m 694 183 l 649 46 q 535 -1 588 13 q 419 -15 482 -15 q 157 83 254 -15 q 60 347 60 182 q 157 607 60 500 q 399 714 254 714 q 629 613 543 714 q 715 354 715 513 q 714 324 715 340 q 711 299 713 307 l 189 299 q 267 151 203 204 q 433 99 332 99 q 562 122 494 99 q 692 185 629 144 l 694 183 m 394 604 q 252 544 310 604 q 186 392 194 485 l 589 392 q 529 548 581 492 q 394 604 478 604 m 411 -297 q 350 -272 375 -297 q 325 -211 325 -247 q 350 -150 325 -175 q 411 -125 375 -125 q 472 -150 447 -125 q 497 -211 497 -175 q 472 -272 497 -246 q 411 -297 447 -297 z "},"ę":{"ha":776,"x_min":60,"x_max":715,"o":"m 632 -200 l 614 -258 q 568 -267 592 -264 q 524 -269 544 -269 q 419 -242 457 -269 q 381 -167 381 -215 q 396 -116 381 -140 q 450 -57 411 -92 l 507 -8 q 463 -14 485 -12 q 419 -15 442 -15 q 157 83 254 -15 q 60 347 60 182 q 157 607 60 500 q 399 714 254 714 q 629 613 543 714 q 715 354 715 513 q 714 324 715 340 q 711 299 713 307 l 189 299 q 267 151 203 204 q 433 99 332 99 q 560 121 493 99 q 690 183 628 143 l 693 182 l 649 46 l 532 -69 q 499 -112 508 -94 q 489 -144 489 -129 q 515 -187 489 -174 q 600 -200 542 -200 l 632 -200 m 394 604 q 252 544 310 604 q 186 392 194 485 l 589 392 q 529 548 581 492 q 394 604 478 604 z "},"ĝ":{"ha":861,"x_min":61,"x_max":744,"o":"m 744 694 l 744 67 q 648 -182 744 -92 q 385 -272 551 -272 q 247 -257 314 -272 q 113 -208 181 -242 l 86 -68 l 89 -67 q 244 -135 172 -114 q 390 -157 315 -157 q 556 -97 493 -157 q 618 67 618 -36 l 618 129 q 496 41 556 68 q 368 14 436 14 q 148 107 235 14 q 61 343 61 200 q 172 603 61 501 q 443 706 282 706 q 536 696 490 706 q 635 664 582 686 l 728 694 l 744 694 m 446 599 q 263 528 336 599 q 190 350 190 457 q 250 186 190 249 q 406 124 310 124 q 509 145 458 124 q 618 215 560 167 l 618 560 q 531 589 572 579 q 446 599 489 599 m 671 838 l 613 838 l 438 971 l 263 838 l 201 838 l 201 840 l 379 1072 l 493 1072 l 671 840 l 671 838 z "},"ǧ":{"ha":861,"x_min":61,"x_max":744,"o":"m 744 694 l 744 67 q 648 -182 744 -92 q 385 -272 551 -272 q 247 -257 314 -272 q 113 -208 181 -242 l 86 -68 l 89 -67 q 244 -135 172 -114 q 390 -157 315 -157 q 556 -97 493 -157 q 618 67 618 -36 l 618 129 q 496 41 556 68 q 368 14 436 14 q 148 107 235 14 q 61 343 61 200 q 172 603 61 501 q 443 706 282 706 q 536 696 490 706 q 635 664 582 686 l 728 694 l 744 694 m 446 599 q 263 528 336 599 q 190 350 190 457 q 250 186 190 249 q 406 124 310 124 q 509 145 458 124 q 618 215 560 167 l 618 560 q 531 589 572 579 q 446 599 489 599 m 671 1072 l 671 1069 l 493 838 l 379 838 l 201 1069 l 201 1072 l 260 1072 l 435 938 l 610 1072 l 671 1072 z "},"ğ":{"ha":861,"x_min":61,"x_max":744,"o":"m 744 694 l 744 67 q 648 -182 744 -92 q 385 -272 551 -272 q 247 -257 314 -272 q 113 -208 181 -242 l 86 -68 l 89 -67 q 244 -135 172 -114 q 390 -157 315 -157 q 556 -97 493 -157 q 618 67 618 -36 l 618 129 q 496 41 556 68 q 368 14 436 14 q 148 107 235 14 q 61 343 61 200 q 172 603 61 501 q 443 706 282 706 q 536 696 490 706 q 635 664 582 686 l 728 694 l 744 694 m 446 599 q 263 528 336 599 q 190 350 190 457 q 250 186 190 249 q 406 124 310 124 q 509 145 458 124 q 618 215 560 167 l 618 560 q 531 589 572 579 q 446 599 489 599 m 436 829 q 304 876 363 829 q 199 1021 246 924 l 261 1056 q 349 965 308 992 q 436 938 390 938 q 523 965 482 938 q 611 1056 564 992 l 674 1021 q 568 876 626 924 q 436 829 510 829 z "},"ḡ":{"ha":861,"x_min":61,"x_max":744,"o":"m 744 694 l 744 67 q 648 -182 744 -92 q 385 -272 551 -272 q 247 -257 314 -272 q 113 -208 181 -242 l 86 -68 l 89 -67 q 244 -135 172 -114 q 390 -157 315 -157 q 556 -97 493 -157 q 618 67 618 -36 l 618 129 q 496 41 556 68 q 368 14 436 14 q 148 107 235 14 q 61 343 61 200 q 172 603 61 501 q 443 706 282 706 q 536 696 490 706 q 635 664 582 686 l 728 694 l 744 694 m 446 599 q 263 528 336 599 q 190 350 190 457 q 250 186 190 249 q 406 124 310 124 q 509 145 458 124 q 618 215 560 167 l 618 560 q 531 589 572 579 q 446 599 489 599 m 203 872 l 203 967 l 669 967 l 669 872 l 203 872 z "},"ġ":{"ha":861,"x_min":61,"x_max":744,"o":"m 744 694 l 744 67 q 648 -182 744 -92 q 385 -272 551 -272 q 247 -257 314 -272 q 113 -208 181 -242 l 86 -68 l 89 -67 q 244 -135 172 -114 q 390 -157 315 -157 q 556 -97 493 -157 q 618 67 618 -36 l 618 129 q 496 41 556 68 q 368 14 436 14 q 148 107 235 14 q 61 343 61 200 q 172 603 61 501 q 443 706 282 706 q 536 696 490 706 q 635 664 582 686 l 728 694 l 744 694 m 446 599 q 263 528 336 599 q 190 350 190 457 q 250 186 190 249 q 406 124 310 124 q 509 145 458 124 q 618 215 560 167 l 618 560 q 531 589 572 579 q 446 599 489 599 m 436 836 q 375 861 400 836 q 350 922 350 886 q 375 983 350 958 q 436 1008 400 1008 q 497 983 472 1008 q 522 922 522 958 q 497 861 522 886 q 436 836 472 836 z "},"ģ":{"ha":861,"x_min":61,"x_max":744,"o":"m 744 694 l 744 67 q 648 -182 744 -92 q 385 -272 551 -272 q 247 -257 314 -272 q 113 -208 181 -242 l 86 -68 l 89 -67 q 244 -135 172 -114 q 390 -157 315 -157 q 556 -97 493 -157 q 618 67 618 -36 l 618 129 q 496 41 556 68 q 368 14 436 14 q 148 107 235 14 q 61 343 61 200 q 172 603 61 501 q 443 706 282 706 q 536 696 490 706 q 635 664 582 686 l 728 694 l 744 694 m 446 599 q 263 528 336 599 q 190 350 190 457 q 250 186 190 249 q 406 124 310 124 q 509 145 458 124 q 618 215 560 167 l 618 560 q 531 589 572 579 q 446 599 489 599 m 321 933 q 355 1008 321 971 q 474 1090 389 1044 l 543 1063 l 543 1060 q 472 1005 494 1029 q 449 960 449 981 q 468 922 449 939 q 546 875 488 906 l 546 871 l 414 831 q 342 878 363 854 q 321 933 321 901 z "},"ĥ":{"ha":839,"x_min":-53,"x_max":735,"o":"m 456 596 q 353 567 401 596 q 243 471 306 539 l 243 0 l 118 0 l 118 1008 l 243 1054 l 243 564 q 361 674 303 640 q 490 708 419 708 q 667 635 600 708 q 735 438 735 561 l 735 0 l 610 0 l 610 425 q 569 551 610 506 q 456 596 528 596 m 417 1132 l 358 1132 l 183 1265 l 8 1132 l -53 1132 l -53 1135 l 125 1367 l 239 1367 l 417 1135 l 417 1132 z "},"ḫ":{"ha":839,"x_min":118,"x_max":735,"o":"m 456 596 q 353 567 401 596 q 243 471 306 539 l 243 0 l 118 0 l 118 1008 l 243 1054 l 243 564 q 361 674 303 640 q 490 708 419 708 q 667 635 600 708 q 735 438 735 561 l 735 0 l 610 0 l 610 425 q 569 551 610 506 q 456 596 528 596 m 426 -356 q 294 -308 353 -356 q 189 -164 236 -261 l 251 -129 q 340 -220 299 -193 q 426 -247 381 -247 q 513 -220 472 -247 q 601 -129 554 -193 l 664 -164 q 558 -308 617 -261 q 426 -356 500 -356 z "},"ẖ":{"ha":839,"x_min":118,"x_max":735,"o":"m 456 596 q 353 567 401 596 q 243 471 306 539 l 243 0 l 118 0 l 118 1008 l 243 1054 l 243 564 q 361 674 303 640 q 490 708 419 708 q 667 635 600 708 q 735 438 735 561 l 735 0 l 610 0 l 610 425 q 569 551 610 506 q 456 596 528 596 m 193 -249 l 193 -154 l 660 -154 l 660 -249 l 193 -249 z "},"ḥ":{"ha":839,"x_min":118,"x_max":735,"o":"m 456 596 q 353 567 401 596 q 243 471 306 539 l 243 0 l 118 0 l 118 1008 l 243 1054 l 243 564 q 361 674 303 640 q 490 708 419 708 q 667 635 600 708 q 735 438 735 561 l 735 0 l 610 0 l 610 425 q 569 551 610 506 q 456 596 528 596 m 426 -283 q 365 -258 390 -283 q 340 -197 340 -233 q 365 -136 340 -161 q 426 -111 390 -111 q 488 -136 463 -111 q 513 -197 513 -161 q 488 -258 513 -232 q 426 -283 463 -283 z "},"ḩ":{"ha":839,"x_min":21,"x_max":735,"o":"m 304 -161 q 260 -241 304 -211 q 143 -271 217 -271 q 99 -268 121 -271 q 57 -260 78 -265 l 21 -194 l 25 -190 q 81 -206 57 -201 q 129 -210 104 -210 q 188 -199 167 -210 q 208 -167 208 -187 q 191 -137 208 -147 q 140 -128 174 -128 q 117 -128 129 -128 q 76 -133 106 -129 l 71 -128 l 146 0 l 118 0 l 118 1008 l 243 1054 l 243 564 q 361 674 303 640 q 490 708 419 708 q 667 635 600 708 q 735 438 735 561 l 735 0 l 610 0 l 610 425 q 569 551 610 506 q 456 596 528 596 q 353 567 401 596 q 243 471 306 539 l 243 0 l 224 0 l 179 -69 q 272 -95 240 -72 q 304 -161 304 -118 z "},"ħ":{"ha":851,"x_min":18,"x_max":747,"o":"m 468 588 q 366 559 414 588 q 256 463 318 531 l 256 0 l 131 0 l 131 815 l 18 815 l 18 899 l 131 899 l 131 1008 l 256 1054 l 256 899 l 461 899 l 461 815 l 256 815 l 256 556 q 373 667 315 633 q 503 701 431 701 q 681 628 614 701 q 747 429 747 554 l 747 0 l 622 0 l 622 418 q 581 543 622 499 q 468 588 540 588 z "},"ı":{"ha":375,"x_min":125,"x_max":250,"o":"m 250 0 l 125 0 l 125 694 l 250 694 l 250 0 z "},"í":{"ha":375,"x_min":125,"x_max":442,"o":"m 250 0 l 125 0 l 125 694 l 250 694 l 250 0 m 215 838 l 156 838 l 272 1072 l 442 1072 l 442 1069 l 215 838 z "},"ì":{"ha":375,"x_min":-67,"x_max":250,"o":"m 250 0 l 125 0 l 125 694 l 250 694 l 250 0 m 103 1072 l 219 838 l 160 838 l -67 1069 l -67 1072 l 103 1072 z "},"î":{"ha":375,"x_min":-47,"x_max":422,"o":"m 250 0 l 125 0 l 125 694 l 250 694 l 250 0 m 422 826 l 364 826 l 189 960 l 14 826 l -47 826 l -47 829 l 131 1061 l 244 1061 l 422 829 l 422 826 z "},"ǐ":{"ha":375,"x_min":-47,"x_max":422,"o":"m 250 0 l 125 0 l 125 694 l 250 694 l 250 0 m 422 1072 l 422 1069 l 244 838 l 131 838 l -47 1069 l -47 1072 l 11 1072 l 186 938 l 361 1072 l 422 1072 z "},"ĭ":{"ha":375,"x_min":-50,"x_max":425,"o":"m 250 0 l 125 0 l 125 694 l 250 694 l 250 0 m 188 829 q 56 876 114 829 q -50 1021 -3 924 l 13 1056 q 101 965 60 992 q 188 938 142 938 q 274 965 233 938 q 363 1056 315 992 l 425 1021 q 319 876 378 924 q 188 829 261 829 z "},"ĩ":{"ha":375,"x_min":-82,"x_max":457,"o":"m 250 0 l 125 0 l 125 694 l 250 694 l 250 0 m 210 988 q 269 953 251 961 q 296 944 286 944 q 328 960 313 944 q 394 1049 343 975 l 457 1010 q 360 868 393 900 q 288 836 328 836 q 244 847 269 836 q 165 893 219 858 q 106 928 124 919 q 79 936 89 936 q 49 922 64 936 q -19 832 35 908 l -82 869 q 15 1012 -18 979 q 88 1044 47 1044 q 131 1033 106 1044 q 210 988 156 1022 z "},"ī":{"ha":375,"x_min":-4,"x_max":379,"o":"m 250 0 l 125 0 l 125 694 l 250 694 l 250 0 m -4 872 l -4 967 l 379 967 l 379 872 l -4 872 z "},"ï":{"ha":375,"x_min":-42,"x_max":417,"o":"m 250 0 l 125 0 l 125 694 l 250 694 l 250 0 m 44 836 q -17 861 8 836 q -42 922 -42 886 q -17 983 -42 958 q 44 1008 8 1008 q 106 983 81 1008 q 131 922 131 958 q 106 861 131 886 q 44 836 81 836 m 331 836 q 269 861 294 836 q 244 922 244 886 q 269 983 244 958 q 331 1008 294 1008 q 392 983 367 1008 q 417 922 417 958 q 392 861 417 886 q 331 836 367 836 z "},"ỉ":{"ha":375,"x_min":38,"x_max":357,"o":"m 250 0 l 125 0 l 125 694 l 250 694 l 250 0 m 357 1019 q 324 935 357 976 q 197 828 292 894 l 126 849 l 126 851 q 233 947 207 918 q 258 1000 258 975 q 242 1033 258 1021 q 199 1046 226 1046 q 124 1028 163 1046 q 40 976 85 1011 l 38 976 l 38 1078 q 119 1124 76 1108 q 210 1139 161 1139 q 317 1106 276 1139 q 357 1019 357 1074 z "},"ị":{"ha":375,"x_min":101,"x_max":274,"o":"m 188 1029 q 249 1004 224 1029 q 274 943 274 979 q 249 882 274 907 q 188 857 224 857 q 126 882 151 857 q 101 943 101 907 q 126 1004 101 979 q 188 1029 151 1029 m 250 0 l 125 0 l 125 694 l 250 694 l 250 0 m 188 -292 q 126 -267 151 -292 q 101 -206 101 -242 q 126 -144 101 -169 q 188 -119 151 -119 q 249 -144 224 -119 q 274 -206 274 -169 q 249 -266 274 -240 q 188 -292 224 -292 z "},"į":{"ha":375,"x_min":56,"x_max":307,"o":"m 188 1029 q 249 1004 224 1029 q 274 943 274 979 q 249 882 274 907 q 188 857 224 857 q 126 882 151 857 q 101 943 101 907 q 126 1004 101 979 q 188 1029 151 1029 m 307 -200 l 289 -258 q 243 -267 267 -264 q 199 -269 219 -269 q 94 -242 132 -269 q 56 -165 56 -215 q 69 -114 56 -140 q 113 -50 82 -87 l 153 0 l 125 0 l 125 694 l 250 694 l 250 0 l 229 0 l 185 -79 q 167 -115 172 -101 q 163 -144 163 -129 q 189 -187 163 -174 q 275 -200 215 -200 l 307 -200 z "},"ȷ":{"ha":378,"x_min":-46,"x_max":253,"o":"m 128 694 l 253 694 l 253 -40 q 197 -212 253 -151 q 42 -272 142 -272 q 8 -270 26 -272 q -24 -264 -10 -268 l -46 -156 l -43 -154 q -10 -162 -25 -160 q 19 -164 4 -164 q 100 -133 72 -164 q 128 -42 128 -101 l 128 694 z "},"ĵ":{"ha":378,"x_min":-46,"x_max":425,"o":"m 128 694 l 253 694 l 253 -40 q 197 -212 253 -151 q 42 -272 142 -272 q 8 -270 26 -272 q -24 -264 -10 -268 l -46 -156 l -43 -154 q -10 -162 -25 -160 q 19 -164 4 -164 q 100 -133 72 -164 q 128 -42 128 -101 l 128 694 m 425 826 l 367 826 l 192 960 l 17 826 l -44 826 l -44 829 l 133 1061 l 247 1061 l 425 829 l 425 826 z "},"ǰ":{"ha":378,"x_min":-46,"x_max":425,"o":"m 128 694 l 253 694 l 253 -40 q 197 -212 253 -151 q 42 -272 142 -272 q 8 -270 26 -272 q -24 -264 -10 -268 l -46 -156 l -43 -154 q -10 -162 -25 -160 q 19 -164 4 -164 q 100 -133 72 -164 q 128 -42 128 -101 l 128 694 m 425 1072 l 425 1069 l 247 838 l 133 838 l -44 1069 l -44 1072 l 14 1072 l 189 938 l 364 1072 l 425 1072 z "},"ḵ":{"ha":765,"x_min":118,"x_max":754,"o":"m 754 0 l 589 0 l 283 306 l 243 306 l 243 0 l 118 0 l 118 1008 l 243 1054 l 243 400 l 282 400 l 572 694 l 731 694 l 731 692 l 390 357 l 754 3 l 754 0 m 185 -249 l 185 -154 l 651 -154 l 651 -249 l 185 -249 z "},"ķ":{"ha":765,"x_min":118,"x_max":754,"o":"m 754 0 l 589 0 l 283 306 l 243 306 l 243 0 l 118 0 l 118 1008 l 243 1054 l 243 400 l 282 400 l 572 694 l 731 694 l 731 692 l 390 357 l 754 3 l 754 0 m 533 -201 q 498 -272 533 -237 q 381 -346 463 -306 l 311 -319 l 311 -317 q 384 -265 363 -286 q 406 -225 406 -244 q 385 -192 406 -207 q 308 -150 365 -176 l 308 -146 l 440 -107 q 511 -149 489 -126 q 533 -201 533 -171 z "},"ḳ":{"ha":765,"x_min":118,"x_max":754,"o":"m 754 0 l 589 0 l 283 306 l 243 306 l 243 0 l 118 0 l 118 1008 l 243 1054 l 243 400 l 282 400 l 572 694 l 731 694 l 731 692 l 390 357 l 754 3 l 754 0 m 418 -285 q 357 -260 382 -285 q 332 -199 332 -235 q 357 -137 332 -162 q 418 -112 382 -112 q 479 -137 454 -112 q 504 -199 504 -162 q 479 -259 504 -233 q 418 -285 454 -285 z "},"ĺ":{"ha":375,"x_min":125,"x_max":442,"o":"m 250 0 l 125 0 l 125 1008 l 250 1054 l 250 0 m 215 1143 l 156 1143 l 272 1378 l 442 1378 l 442 1375 l 215 1143 z "},"ľ":{"ha":375,"x_min":125,"x_max":463,"o":"m 250 0 l 125 0 l 125 1008 l 250 1054 l 250 0 m 389 763 l 329 763 q 356 833 347 799 q 365 901 365 868 q 356 972 365 938 q 329 1042 347 1006 l 449 1042 q 459 997 456 1018 q 463 954 463 975 q 444 858 463 906 q 389 763 425 810 z "},"ļ":{"ha":375,"x_min":78,"x_max":303,"o":"m 250 0 l 125 0 l 125 1008 l 250 1054 l 250 0 m 303 -208 q 267 -278 303 -244 q 150 -353 232 -312 l 81 -326 l 81 -324 q 153 -272 132 -293 q 175 -232 175 -251 q 155 -199 175 -214 q 78 -157 135 -183 l 78 -153 l 210 -114 q 281 -156 258 -133 q 303 -208 303 -178 z "},"ḽ":{"ha":375,"x_min":-47,"x_max":422,"o":"m 250 0 l 125 0 l 125 1008 l 250 1054 l 250 0 m 422 -354 l 364 -354 l 189 -221 l 14 -354 l -47 -354 l -47 -353 l 131 -119 l 244 -119 l 422 -353 l 422 -354 z "},"ḻ":{"ha":375,"x_min":-4,"x_max":379,"o":"m 250 0 l 125 0 l 125 1008 l 250 1054 l 250 0 m -4 -249 l -4 -154 l 379 -154 l 379 -249 l -4 -249 z "},"ḹ":{"ha":375,"x_min":-4,"x_max":379,"o":"m 250 0 l 125 0 l 125 1008 l 250 1054 l 250 0 m -4 1178 l -4 1272 l 379 1272 l 379 1178 l -4 1178 m 188 -292 q 126 -267 151 -292 q 101 -206 101 -242 q 126 -144 101 -169 q 188 -119 151 -119 q 249 -144 224 -119 q 274 -206 274 -169 q 249 -266 274 -240 q 188 -292 224 -292 z "},"ḷ":{"ha":375,"x_min":101,"x_max":274,"o":"m 250 0 l 125 0 l 125 1008 l 250 1054 l 250 0 m 188 -292 q 126 -267 151 -292 q 101 -206 101 -242 q 126 -144 101 -169 q 188 -119 151 -119 q 249 -144 224 -119 q 274 -206 274 -169 q 249 -266 274 -240 q 188 -292 224 -292 z "},"ł":{"ha":443,"x_min":26,"x_max":417,"o":"m 417 718 l 417 608 l 285 510 l 285 0 l 158 0 l 158 429 l 29 335 l 26 335 l 26 444 l 158 542 l 158 1008 l 285 1054 l 285 622 l 414 718 l 417 718 z "},"ḿ":{"ha":1279,"x_min":118,"x_max":1175,"o":"m 438 596 q 345 569 389 596 q 243 476 301 542 l 243 0 l 118 0 l 118 678 l 243 706 l 243 569 q 354 676 299 643 q 475 708 410 708 q 608 668 551 708 q 690 554 664 628 q 810 672 751 636 q 940 708 868 708 q 1110 635 1046 708 q 1175 438 1175 561 l 1175 0 l 1049 0 l 1049 425 q 1010 551 1049 506 q 903 596 971 596 q 809 568 854 596 q 707 475 764 540 q 708 462 708 469 q 708 438 708 454 l 708 0 l 583 0 l 583 425 q 544 551 583 506 q 438 596 506 596 m 674 838 l 614 838 l 731 1072 l 900 1072 l 900 1069 l 674 838 z "},"ṁ":{"ha":1279,"x_min":118,"x_max":1175,"o":"m 438 596 q 345 569 389 596 q 243 476 301 542 l 243 0 l 118 0 l 118 678 l 243 706 l 243 569 q 354 676 299 643 q 475 708 410 708 q 608 668 551 708 q 690 554 664 628 q 810 672 751 636 q 940 708 868 708 q 1110 635 1046 708 q 1175 438 1175 561 l 1175 0 l 1049 0 l 1049 425 q 1010 551 1049 506 q 903 596 971 596 q 809 568 854 596 q 707 475 764 540 q 708 462 708 469 q 708 438 708 454 l 708 0 l 583 0 l 583 425 q 544 551 583 506 q 438 596 506 596 m 646 836 q 585 861 610 836 q 560 922 560 886 q 585 983 560 958 q 646 1008 610 1008 q 707 983 682 1008 q 732 922 732 958 q 707 861 732 886 q 646 836 682 836 z "},"ṃ":{"ha":1279,"x_min":118,"x_max":1175,"o":"m 438 596 q 345 569 389 596 q 243 476 301 542 l 243 0 l 118 0 l 118 678 l 243 706 l 243 569 q 354 676 299 643 q 475 708 410 708 q 608 668 551 708 q 690 554 664 628 q 810 672 751 636 q 940 708 868 708 q 1110 635 1046 708 q 1175 438 1175 561 l 1175 0 l 1049 0 l 1049 425 q 1010 551 1049 506 q 903 596 971 596 q 809 568 854 596 q 707 475 764 540 q 708 462 708 469 q 708 438 708 454 l 708 0 l 583 0 l 583 425 q 544 551 583 506 q 438 596 506 596 m 646 -292 q 585 -267 610 -292 q 560 -206 560 -242 q 585 -144 560 -169 q 646 -119 610 -119 q 707 -144 682 -119 q 732 -206 732 -169 q 707 -266 732 -240 q 646 -292 682 -292 z "},"ń":{"ha":839,"x_min":118,"x_max":735,"o":"m 456 596 q 353 567 401 596 q 243 471 306 539 l 243 0 l 118 0 l 118 678 l 243 706 l 243 564 q 361 674 303 640 q 490 708 419 708 q 667 635 600 708 q 735 438 735 561 l 735 0 l 610 0 l 610 425 q 569 551 610 506 q 456 596 528 596 m 454 838 l 394 838 l 511 1072 l 681 1072 l 681 1069 l 454 838 z "},"ǹ":{"ha":839,"x_min":118,"x_max":735,"o":"m 456 596 q 353 567 401 596 q 243 471 306 539 l 243 0 l 118 0 l 118 678 l 243 706 l 243 564 q 361 674 303 640 q 490 708 419 708 q 667 635 600 708 q 735 438 735 561 l 735 0 l 610 0 l 610 425 q 569 551 610 506 q 456 596 528 596 m 342 1072 l 458 838 l 399 838 l 172 1069 l 172 1072 l 342 1072 z "},"ň":{"ha":839,"x_min":118,"x_max":735,"o":"m 456 596 q 353 567 401 596 q 243 471 306 539 l 243 0 l 118 0 l 118 678 l 243 706 l 243 564 q 361 674 303 640 q 490 708 419 708 q 667 635 600 708 q 735 438 735 561 l 735 0 l 610 0 l 610 425 q 569 551 610 506 q 456 596 528 596 m 661 1072 l 661 1069 l 483 838 l 369 838 l 192 1069 l 192 1072 l 250 1072 l 425 938 l 600 1072 l 661 1072 z "},"ñ":{"ha":839,"x_min":118,"x_max":735,"o":"m 456 596 q 353 567 401 596 q 243 471 306 539 l 243 0 l 118 0 l 118 678 l 243 706 l 243 564 q 361 674 303 640 q 490 708 419 708 q 667 635 600 708 q 735 438 735 561 l 735 0 l 610 0 l 610 425 q 569 551 610 506 q 456 596 528 596 m 449 988 q 508 953 490 961 q 535 944 525 944 q 567 960 551 944 q 633 1049 582 975 l 696 1010 q 599 868 632 900 q 526 836 567 836 q 483 847 508 836 q 404 893 458 858 q 345 928 363 919 q 318 936 328 936 q 288 922 303 936 q 219 832 274 908 l 157 869 q 253 1012 221 979 q 326 1044 286 1044 q 369 1033 344 1044 q 449 988 394 1022 z "},"ṅ":{"ha":839,"x_min":118,"x_max":735,"o":"m 456 596 q 353 567 401 596 q 243 471 306 539 l 243 0 l 118 0 l 118 678 l 243 706 l 243 564 q 361 674 303 640 q 490 708 419 708 q 667 635 600 708 q 735 438 735 561 l 735 0 l 610 0 l 610 425 q 569 551 610 506 q 456 596 528 596 m 426 836 q 365 861 390 836 q 340 922 340 886 q 365 983 340 958 q 426 1008 390 1008 q 488 983 463 1008 q 513 922 513 958 q 488 861 513 886 q 426 836 463 836 z "},"ṋ":{"ha":839,"x_min":118,"x_max":735,"o":"m 456 596 q 353 567 401 596 q 243 471 306 539 l 243 0 l 118 0 l 118 678 l 243 706 l 243 564 q 361 674 303 640 q 490 708 419 708 q 667 635 600 708 q 735 438 735 561 l 735 0 l 610 0 l 610 425 q 569 551 610 506 q 456 596 528 596 m 661 -346 l 603 -346 l 428 -212 l 253 -346 l 192 -346 l 192 -344 l 369 -111 l 483 -111 l 661 -344 l 661 -346 z "}}}
